<?xml version="1.0" encoding="UTF-8"?>
<svg width="700pt" height="700pt" version="1.1" viewBox="0 0 700 700" xmlns="http://www.w3.org/2000/svg">
 <path d="m143.27 111.35c-25.973 0-47.082 21.473-47.082 47.613v242.09c0 26.141 21.109 47.594 47.082 47.594l413.5 0.003906c25.977 0 47.031-21.453 47.031-47.594v-242.1c0-26.141-21.055-47.613-47.031-47.613zm0 17.516 413.5 0.003907c9.1797 0 17.305 4.1094 22.695 10.68l-194.57 151.18c-10.949 8.5078-22.105 13.133-33.461 13.504-11.359 0.36719-23.324-3.3672-36.367-13.504l-194.55-151.16c5.4062-6.582 13.559-10.699 22.746-10.699zm442.92 27.602c0.0625 0.82422 0.11719 1.6523 0.11719 2.4961v242.09c0 2.7383-0.37891 5.3594-1.0273 7.8633l-143.09-140.51zm-472.38 0.019531 144.02 111.9-143.11 140.52c-0.64453-2.5-1.0234-5.1172-1.0234-7.8477v-242.09c0-0.83594 0.050782-1.6602 0.12109-2.4766zm157.98 122.76 32.574 25.309c15.574 12.102 31.895 17.691 47.664 17.176 15.766-0.51562 30.551-6.9844 43.664-17.176l32.523-25.277 147.66 144.86c-5.125 4.3867-11.773 7.0234-19.09 7.0234h-413.51c-7.3164 0-13.965-2.6367-19.105-7.0234z" fill-rule="evenodd"/>
</svg>
