<?xml version="1.0" encoding="UTF-8"?><svg id="Layer_2" xmlns="http://www.w3.org/2000/svg" viewBox="0 0 576.4 488.92"><g id="Vektorlag"><path d="m285.83,458.19c-14.97-1.36-29.95-2.9-44.72-5.7-16.1-3.23-32.05-7.18-47.97-11.2-12.3-3.56-24.53-7.34-37.02-10.17-6.09-1.32-11.86-3.49-17.49-6.01-.26-.23-.54-.44-.83-.61-.73-.42-1.43-.8-2.24-1.04-.33-.1-.67-.19-1.02-.26-6.04-2.9-11.97-6.1-18.02-8.97-14.57-6.88-30.09-12.07-43.54-21.09-6.59-4.7-12.55-10.2-18.92-15.18-6.31-5.09-12.89-9.92-18.73-15.55-4.04-3.8-7.59-8.04-11.07-12.33-.38-1.27-.76-2.54-1.16-3.81,3.29,4.05,6.54,8.14,10.2,11.86,8.08,8.45,17.79,15,26.77,22.39,5.91,4.83,11.67,9.81,18.23,13.73,10.9,6.29,22.78,10.57,34.22,15.74,9.93,4.07,19.29,9.55,29.14,13.75,7.59,3.22,15.68,4.95,23.67,6.84,9.79,2.2,19.3,5.41,29,7.94,18.14,4.35,36.43,8.84,54.82,11.86,19.46,2.81,39.09,4.4,58.71,5.5,25.6.55,51.38.96,76.79-2.71,19.14-2.68,37.5-8.91,55.98-14.32,8.34-2.64,16.73-4.95,24.77-8.33,12.34-5.75,24.14-12.74,35.54-20.18,5.59-3.93,10.22-9,15.29-13.55,4.02-3.7,8.44-6.98,12.12-11.04,7.5-8.47,13.09-18.39,18.53-28.25,2.26-4.19,4.39-8.45,6.06-12.92,2.5-6.79,4.09-13.86,6-20.82,1.48-5.06,2.86-10.16,3.85-15.34,1.54-8.03,1.49-16.25,2.39-24.36,1.05-8.31,3.26-16.49,3.26-24.92.21-11.35-3-22.46-6.11-33.29-4.52-14.66-10.62-28.75-17.2-42.6-3.74-8.12-6.55-16.64-10.52-24.65-3.61-7.05-8.03-13.64-12.09-20.43-10.62-18.77-25.1-34.98-41.5-48.9-9.95-8.43-21.68-14.31-32.36-21.7-8-5.43-15.9-11.02-24.15-16.07-10.03-5.83-20.39-11.06-30.84-16.11-17.98-8.74-36.95-15.51-55.92-21.73-.47-.31-.94-.62-1.42-.93-3.14-2.01-6.39-3.81-9.67-5.59-.79-.43-1.57-.83-2.37-1.23,23.12,7,46.12,14.62,68.02,24.92,11.85,5.46,23.51,11.34,34.8,17.88,8.32,5.12,16.33,10.74,24.44,16.19,8.79,6,18.21,10.97,26.81,17.23,11.87,9.04,22.56,19.6,32.18,31,9.31,11.12,16.3,23.92,24.05,36.14,6.06,9.59,9.65,20.38,14.24,30.69,9.12,19.07,17.64,38.62,22.2,59.35,4.29,17.25,2.05,27.89-.84,44.84-1.02,8.51-.86,17.09-2.56,25.5-1.2,6.19-3.02,12.22-4.67,18.3-1.66,6.32-3.19,12.69-5.55,18.79-2.33,6.21-5.57,12-8.82,17.77-4.21,7.68-8.93,15.12-14.42,21.95-4.69,5.75-10.72,10.15-16.12,15.18-4,3.7-7.79,7.63-12.12,10.95-5.78,4.39-12.19,7.84-18.42,11.53-7.46,4.36-15.02,8.66-23.08,11.83-13.05,4.73-26.46,8.4-39.76,12.39-9.88,2.92-19.81,5.68-29.93,7.58-17.2,3.18-34.74,4.32-52.21,4.38-2.18.01-4.37.02-6.55.02-16.73,0-33.46-.42-50.12-2.14Z"/><path d="m11.91,334.02c-.05-.14-.12-.27-.2-.39.39.38.77.75,1.16,1.13.16.15.32.3.48.46-.23.23-.43.48-.58.79-.02.04-.04.09-.06.13-.24-.71-.5-1.42-.79-2.11Z"/><path d="m10.67,332.73s-.02-.07-.04-.11c.08.07.16.15.24.23-.07-.04-.13-.08-.2-.11Z"/><path d="m238.41,285.36c-7.82-2.32-15.13-6.07-22.75-8.92-7.2-2.77-13.25-7.63-19.32-12.27-7.72-5.71-14.45-12.59-21.08-19.5-4.87-5.1-8.99-10.84-13.11-16.55-6.08-8.04-10.73-17.24-12.74-27.16-1.22-6.92-.78-14.04-.45-21.03.64-6.76,1-13.55,2.18-20.24,2.33-9.97,4.46-20.29,10.26-28.92,5.21-8.07,12.77-14.31,20.55-19.8,12.89-9.05,27.54-15.24,42-21.31,11.95-4.77,24.8-6.43,37.61-6.44-.54.14-1.08.3-1.62.45-8.84.09-17.66,1.07-26.23,3.31-7.32,1.8-14.16,5.01-21.05,7.98-24.35,10.92-52.51,25.71-58.29,54.2-1.67,6.21-3.25,12.46-3.68,18.91-.93,10.06-1.94,20.18-.97,30.27,1.59,10.61,6.41,20.48,12.82,29.01,4.42,6.13,8.88,12.27,14.18,17.69,7.16,7.48,14.63,14.66,23.07,20.7,5.85,4.64,12.14,8.7,19.24,11.14,6.89,2.68,13.56,6.06,20.72,7.99,8.04,1.88,16.2,3.45,24.41,4.41,7.95.52,15.89,1.23,23.86,1.27,9.16-.27,18.29-1.91,27.23-3.91,7.71-1.81,15.11-4.66,22.6-7.18,18.16-5.86,31.67-15.12,44.58-29.05,6.29-6.82,10.21-15.3,14.39-23.46,2.73-5.35,5.5-10.82,6.2-16.85,1.49-10.55,1.52-21.21,1.66-31.83-1.32-9.29-3.64-18.71-6.84-27.54-3.35-7.86-7.05-15.75-11.66-22.96-6.12-8.54-14.2-15.59-22.64-21.75-5.43-3.64-11.61-5.87-17.51-8.61-5.87-2.63-11.48-5.62-17.43-7.99-5.2-1.99-10.58-3.48-15.98-4.82-3.27-.86-6.56-1.66-9.88-2.34-.96-.25-1.93-.49-2.89-.7-5.32-1.2-10.65-1.55-16.06-1.57-1.08-.02-2.17-.02-3.25,0-10.53-.17-20.91,1.93-31.26,3.61-.94.17-1.24-1.27-.21-1.42,2.27-.41,4.54-.83,6.82-1.21,13.94-2.61,28.31-3.74,42.38-1.4,15.12,2.7,30.14,6.59,43.85,13.67,6.87,3.38,14.23,5.89,20.87,9.7,8.25,5.29,15.66,11.98,22.14,19.31,5.29,6.19,8.62,13.68,12.14,20.94,5.11,10.2,7.38,21.48,9.51,32.61.59,4.76.04,9.58-.14,14.35-.17,6.84-.44,13.7-1.6,20.45-1.51,9.62-7.14,17.88-11.43,26.44-2.53,4.88-5.6,9.47-9.23,13.6-14.03,15.22-28.39,24.58-48.23,30.61-15.57,5.64-31.89,9.76-48.5,10.17-16.57-.34-33.16-1.83-49.25-6.05Z"/><path d="m146.17,218.01c-.09-.45-.31-.86-.6-1.21-.02-.3-.03-.6-.04-.89-.04.23-.09.47-.13.7-.14-.13-.28-.26-.44-.37.15-.64.3-1.29.45-1.93.08-.2.43-.2.5.02.09.84.12,1.69.23,2.53.03.45.05.9.08,1.35-.01-.07-.03-.13-.04-.2Z"/><path d="m248.94,358.78c-.33,0-.66.01-.99.02-4.28-.86-8.53-1.39-12.93-1.5-1.04-.02-2.08-.02-3.12,0-1.61-.32-3.22-.7-4.82-1.12-6.32-1.04-12.32-3.37-17.84-6.58-7.77-3.31-15.67-6.36-22.75-11.07-.37-.27-.75-.54-1.12-.8-.54-.46-1.07-.93-1.6-1.4-2.64-2.36-5.26-4.75-7.84-7.17-.66-.63-1.31-1.26-1.97-1.88-.21-.2-.42-.39-.62-.58,4.64,3.12,9.87,5.5,14.36,8.72,7.08,4.64,14.94,7.74,22.7,11,2.41,1.07,4.46,2.7,6.81,3.83,4.27,1.89,8.88,2.77,13.42,3.76,12.8,3.13,26.21,1.86,39.15.35,8.9-.47,18.21-.4,26.86-2.23,1.54-.48,2.9,1.76,1.21,2.7-3.09,1.2-6.6,1.1-9.87,1.55-5.7.5-11.62.71-17.31.87-6.68.7-13.36,1.55-20.09,1.55-.55,0-1.09,0-1.63-.02Z"/><path d="m171.27,325.33c-.1-.11-.19-.21-.29-.32.19.15.39.3.58.45-.09-.04-.2-.08-.29-.12Z"/><path d="m260.9,361.49c-.1,0-.2-.02-.29-.03-2.67-1.32-5.27-2.8-8.36-2.89-.78-.1-1.54-.27-2.31-.25-.13,0-.25-.1-.25-.23.03-.32.5-.27.87-.22.15.02.29.04.38.04,2.96.32,5.91.85,8.5,2.42.8.46,1.62.87,2.45,1.23-.33-.02-.66-.04-.99-.07Z"/><path d="m388.42,319.71c.02-.14.05-.29.07-.43-.02.17-.03.33-.05.5,0,0-.02.02-.03.03,0-.04,0-.07,0-.11Z"/><path d="m391.12,313.71c.25-.24.5-.48.74-.72-.38.38-.74.75-1.08,1.14.11-.14.23-.29.34-.43Z"/><path d="m400.74,296.65c.25-.4.75-.59,1.21-.47,1.65-.1,3.32-.04,4.98.03,2.15.08,4.29.16,6.42-.09,3.87-.88,7.49-2.33,11.18-3.66,1.54-.41,3.09-.59,4.59-1.11,4.25-1.38,7.37-4.65,10.48-7.68,4.57-5.06,8.88-11.62,6.93-18.71-.59-3.65-.21-7.4-.71-11.03-1.37-4.7-8.5-4.56-13.57-4.42-1.09.03-2.07.06-2.89.04-6.36.6-12.77,2.42-18.24,5.75-2.88,1.67-5.29,4.13-8.07,5.84-.2.16-.36.37-.53.57-.33.5-.87.23-.57-.32.16-.45.61-.74,1.04-.71,3.45-2.54,6.78-5.39,10.59-7.45,6.01-3.01,12.66-4.87,19.4-4.87,4.61-.12,10.79-.58,13.72,3.68,1.49,2.61.75,5.81,1.04,8.68-.07,4.09,1.5,8.13.11,12.11-2.45,7.8-10.53,16.93-18.22,19.8-5.71,1.2-10.9,3.95-16.54,5.39-2.62.32-5.29.31-7.94.3-.96,0-1.91,0-2.86,0-.05,0-.09,0-.14,0-.89,0-1.95-.74-1.4-1.69Z"/><path d="m454,240.5c-1.13-.68-2.36-1.01-3.47-1.72-.93-.59-1.68-1.44-2.57-2.09-4.45-2.75-10.04-1.63-15-2.54-4.36-.21-8.71-.61-13.08-.32-1.27.11-2.53.24-3.81.21-.13,0-.25-.1-.25-.23,5.65-1.07,12.05-.35,17.93-.07,5.04.89,10.78-.47,15.16,2.73.83.66,1.56,1.41,2.5,1.88,1.34.68,2.89.99,4.05,2,.75.69,1.49,1.41,2.18,2.18.14.41.27.81.4,1.22.18.66.36,1.34.62,1.97l.13.3c-1.34-2.04-2.81-4.09-4.79-5.52Z"/><path d="m394.75,305.69c-.84-.4-.85-1.71,0-2.11.4-.26.87-.14,1.3-.2.87-.48,1.66-.91,2.63-.9.45-.14,1.48-.14,1.02.57-.2.18-.3.29-.49.45,5.46.41,10.86-.68,16.12-2,2.38-.68,4.8-.88,7.12-1.67,3.2-1.05,6.1-2.87,9.32-3.89,5.32-1.71,10.35-4.33,15-7.28,3.46-3.09,6.62-6.55,9.16-10.42-.25.59-.49,1.18-.57,1.82-.02.16-.04.33-.04.5-1.35,2.11-2.88,4.11-4.62,5.96-1.33,1.29-2.3,3.11-4.06,3.84-.81.69-1.51,1.45-2.49,1.89-4.29,2.48-8.78,4.53-13.46,6.17-2.96,1.29-5.68,2.98-8.82,3.79-6.43,1.25-12.81,3.25-19.4,3.57-.98-.07-2.11-.02-3.25.02-.73.03-1.46.05-2.16.06-.84,0-1.62-.04-2.29-.17Z"/><path d="m420.82,286.82c-.21-.33-.07-.75.26-.93.18-.1.36-.2.54-.29-4.5-.01-9.03-.73-13.5-.61-.07.23-.49.2-.49-.07,0-.43.51-.41.83-.43,1.88-.02,3.75.08,5.62.19,1.98.11,3.96.23,5.95.19,2.81.46,4.93-.94,7.54-1.62,4.6-1.15,9.47-1.71,13.26-4.78,1.06-.68,2.73.31,2.17,1.61-.32.66-1.03.99-1.67,1.28-1.64.94-3.48,1.5-5.26,2.14-3.44,1.23-6.97,2.45-10.67,2.21-1.25.41-2.46.91-3.67,1.4-.09.04-.19.05-.28.05-.25,0-.5-.12-.63-.34Z"/><path d="m411.23,305.03c-.45-.31-.85-.98-.36-1.43,2.36-2.41,4.99-4.52,7.55-6.69-1.69.86-10.29,7.03-11.38,5.25-.48-.58.07-1.25.55-1.53,4.55-3.98,9.42-7.57,14.01-11.52-5.73,3.23-11.2,6.75-16.71,10.3-.47.3-.96.58-1.45.86-.31.18-.79-.07-.72-.45.01-.37.42-.63.69-.75,2.88-2.05,5.73-4.13,8.44-6.39,1.72-1.58,4.07-2.96,4.93-5.2-5.03,1.77-9.58,4.93-14.11,7.72-1.22.71-2.33,1.71-3.73,2.06-.16.04-.32-.05-.38-.2-.12-.27.03-.52.23-.69,1.7-1.97,3.55-3.82,5.36-5.7.65-.48,4.02-4.83,4.47-3.62.05.36-.13.69-.25,1.02-.1.32-.62.2-.53-.14.05-.15.11-.29.16-.43-2.93,2.87-5.85,5.84-8.52,8.95,5.64-3.34,11.01-7.53,17.27-9.59,3.1.43-4.73,6.54-5.61,7.28,3.79-2.43,7.65-4.77,11.6-6.93.54-.26,1.34-.86,1.88-.36.56,1.12-3.01,3.4-3.79,4.23-3.86,3.25-7.91,6.27-11.66,9.6,6-3.17,11.52-7.07,17.07-10.95.8-.42,1.91-1.9,2.78-.91.16.27.12.62-.12.84-4.85,4.41-10.07,8.41-14.92,12.83,1.95-1.19,3.75-2.38,5.65-3.61.29-1.29,1.83-1.82,2.74-2.64,3.64-2.73,7.48-5.17,11.36-7.55.14-.36.34-.7.55-1.03,0-.53.58-.83.9-1.2.39-.44.88-1.13,1.54-.82,1.45-.99,2.85-2.02,4.28-3.03-.05-.71.89-.91,1.43-1.03.54-.07,1.06.46.9,1.01-1.05,1.3-3.43,2.47-4.83,3.61.93-.13,1.6,1.07.87,1.73-1.44,1.07-2.96,2.57-4.77,2.83-5.68,4.17-11.53,8.11-17.52,11.8-1.11.69-2.23,1.37-3.4,1.95-.54.29-1.18.69-1.82.69-.22,0-.45-.05-.67-.17Z"/><path d="m402.74,235.91c-.29-1.2,1.62-1.12,2.39-1.39,1.63-.27,3.27-.72,4.93-.54,1.5.06,2.99.27,4.47.47.49.03,1.01,0,1.47.2.33.18.54.54.86.71.35.12.16.62-.18.45-.54-.29-.88-.94-1.57-.86-2.2-.21-4.4-.2-6.59.07-1.62.41-3.28.72-4.87,1.24-.09.03-.18.05-.27.05-.27,0-.53-.14-.64-.39Z"/><path d="m387.65,262.67c-.21-1.05,1.18-1.29,1.88-1.66.77-.27,2.11-.81,2.51.21,1.74-.35,10.38-4.62,11.02-2.91,0,.28-.42.3-.49.07h0c-2.89.02-5.29,1.83-7.88,2.88-1.38.7-2.77,1.31-4.2,1.9-.71.51-1.43,1.24-2.37,1.2-.03,0-.06,0-.09,0-.97,0-1.35-1.29-.38-1.69Z"/><path d="m391.03,305.75c-2.45-.3-4.87-.75-7.3-1.19-1.44-.02-3.17-1.06-2.08-2.62,1-1.2,2.47-.2,3.62.19,4.37,1.64,9.13,3.25,13.6,1.12.62-.31,1.16-.68,1.73-1.04.29-.18.6.22.29.41-2.71,1.73-5.75,3.18-9.01,3.18-.28,0-.56-.01-.85-.03Z"/><path d="m403.58,287.97c-1.71-.78-3.46-1.25-5.36-1.38-1.5-.23-2.78-1.21-4.34-1.13-1.91-.13-2.45-2.66-.48-3.23,1.65-.37,3.28.69,4.59,1.58.98.62,2.15.8,3.23,1.16,2,.67,3.38,2.69,5.71,2.11.63-.2,1.04-.81,1.03-1.43.02-.37.61-.33.56.04-.09.65-.43,1.22-.91,1.68-.71.57-1.64.79-2.57.79-.51,0-1.01-.07-1.48-.18Z"/><path d="m402.48,225.32c0-.13.12-.23.25-.23s.25.1.25.23-.12.23-.25.23-.25-.1-.25-.23Z"/><path d="m406.83,235.79c.59-4.27,1.5-8.57,2.04-12.85.09-6.45.44-12.87.34-19.31.48-5.34.29-10.66-.66-15.93-.52-4.8.4-10.33-2.38-14.53-.96-1.55-1.11-3.4-1.21-5.18-.07-1.19,1.03-2.15,2.13-2.29,3.45-.12,2.48,2.86,3.34,5.02,3.24,4.6,2.63,10.69,2.95,16.05.91,5.62,1.11,11.3.41,16.96-.14,8.34-1.52,16.75-4.27,24.63-.68,2.69-1.56,5.03-2.21,7.36.03.18-.12.28-.26.28-.12,0-.23-.07-.24-.23Z"/><path d="m276.01,361.3c-5.81.1-11.4-1.45-17.14-2.07-.68-.07-1.36-.12-2.04-.2-.76-.09-2.04-.1-2.18-1.07-.11-.73.56-1.18,1.19-1.34,3.48-1,7.62-1.49,11.03-.11,2.91,2.05,6.66,1.81,10.06,1.97,3.07.53,6.15.06,9.24-.05,2.23-.17,4.47-.37,6.71-.55.66-.09,1.32.57,1.02,1.23,8.94-.62,17.96.03,26.82-1.62,4.59-.57,8.91-2.13,13.29-3.43-.73.4-1.46.82-2.21,1.2-1.06.53-2.15,1.03-3.24,1.5-1.27.52-2.55,1.04-3.82,1.56.2-.09.41-.17.61-.25-1.54.62-3.13,1.11-4.73,1.56-1.95.47-3.91.86-5.89,1.16-1.2.09-2.38.11-3.58.15-2.04.08-4.07.35-6.08.64.25-.04.5-.07.75-.1-1.67.22-3.32.48-4.98.79h0c.06-.01.11-.02.17-.03-.06,0-.12.02-.18.03-1.86-.02-3.71-.01-5.56.05-2.81.17-5.62.2-8.43.13-.44.03-.87.05-1.3.05-3.23,0-6.34-.85-9.54-1.2Z"/><path d="m353.08,345.28c.57-.28,1.12-.54,1.67-.8-.47.39-.91.8-1.36,1.25l.46-.45c-.62.59-1.25,1.17-1.89,1.73-.76.18-1.5.45-2.23.74-1.25.51-2.44,1.21-3.61,1.92-.55.12-1.09.25-1.63.39-.24.07-.48.13-.73.2,3.14-1.58,6.21-3.29,9.32-4.97Z"/><path d="m370.02,333.79c3.07-2.63,5.93-5.45,8.52-8.49-1.03-1.34,1.01-2.6,1.68-3.64,1.3-1.39,2.42-2.93,3.43-4.55,1.39-1.99,2.52-4.23,4.2-5.98.7-1.37,2.48-2.34,3.75-1.08.31-.23.79-.27,1.14-.11-1.55,1.44-2.89,3.36-3.54,5.41-2.16.76-4.25,2.15-5.63,3.84-1.02,1.23-1.68,2.27-2.49,3.6.23-.38.46-.77.7-1.15-.75,1.24-1.58,2.44-2.34,3.69h0l.64-1.07c-.23.37-.46.74-.69,1.11-.25.2-.5.41-.75.64-.45.41-.89.81-1.33,1.22-1.21,1.12-2.41,2.26-3.59,3.41-1.21,1.18-2.33,2.44-3.26,3.84-.65.25-1.29.51-1.93.79-.05.02-.11.05-.16.07.55-.52,1.11-1.04,1.67-1.54Z"/><path d="m391.12,313.71c.25-.24.5-.48.74-.72-.38.38-.74.75-1.08,1.14.11-.14.23-.29.34-.43Z"/><path d="m292.39,363.12c-2.06-.18-4.11-.43-6.17-.52-1.93-.09-3.85-.15-5.78-.22-3.74-.14-7.5-.08-11.24-.28-1.32-.1-2.64-.2-3.95-.3-1.71-.46-3.38-1.09-5.02-1.8-.33.34-.81.34-1.27.34-.1,0-.2,0-.3,0,1.09.44,2.19.87,3.32,1.23-.36-.03-.72-.05-1.08-.07-.76-.09-1.52-.2-2.28-.34-3.05-.66-6.08-1.37-9.13-2.04-1.34-.29-2.67-.55-4-.78-.02-.12,0-.24.02-.36-.51-.64-.42-1.63.26-2.11.92-.7,2.11-.17,3.12.02,2.6.77,5.32.69,7.98,1.06,2.98.3,5.66,1.74,8.43,2.77,2.3.78,4.71.73,7.1.77,2.04,0,4.08.11,6.11.22,2.33.13,4.67.26,7.01.21,1.42.05,2.86-.03,4.31-.11,2.24-.12,4.48-.25,6.65.12.55.28.77.95.54,1.5-.07.09-.14.17-.22.25-.33.02-.67.04-1,.07-.86.08-1.7.23-2.54.4-.29,0-.59-.02-.88-.04Z"/><path d="m292.39,363.12c-1.02-.09-2.04-.2-3.06-.29.06,0,.12,0,.19,0,7-.37,13.66-2.62,20.34-4.54,3.6-1.04,7.16-2.16,10.69-3.32,0,0,0,0,0,0,.02,0,.03-.01.05-.02,0,0-.02,0-.03,0,6.46-2.32,13.15-3.97,19.73-5.92-.21-.53.02-1.19.54-1.44,2.41-1.14,4.89-2.24,7.55-2.58.85-.11,1.77-.11,2.59.18.76.27,1.12,1.05,1.03,1.77-.02.02-.04.04-.06.05-.76.18-1.5.45-2.23.74-1.25.51-2.44,1.21-3.61,1.92-.54.12-1.08.25-1.62.39-2.55.67-4.93,1.45-7.33,2.46-1.56.36-3.12.72-4.68,1.09-11.49,2.74-22.73,6.84-34.34,9.01-.78.02-1.55.05-2.32.13-.86.08-1.7.23-2.54.4-.29,0-.59-.02-.88-.04Z"/><path d="m320.56,354.95s0,0,0,0c0,0,0,0,0,0Z"/><path d="m320.56,354.95s0,0,0,0c0,0,0,0,0,0h0Z"/><path d="m320.57,354.94s.01,0,.02,0c0,0-.02,0-.03,0,0,0,0,0,.01,0Z"/><path d="m299.42,361.98c-.8-1.31,1.53-2.15,2.24-2.97-.68.25-1.41.66-2.16.51-1.17.68-5.94,3.73-5.3.46,1.7-1.98,3.88-3.58,5.83-5.34-2.57,1.34-5.2,2.58-7.61,4.21.17.11.34.21.52.32.27.17,0,.57-.25.41-.23-.15-.48-.29-.71-.45-1.25.75-2.43,1.7-3.86,2.08-.22.07-.46.04-.62-.15-.29-.34.05-.71.3-.95-.64-.16-1.14-.75-1.2-1.41-.55.35-1.14.63-1.77.82-.11.04-.25.01-.32-.1-.2-.24-.04-.49.19-.62.85-.71,1.78-1.3,2.71-1.89.86-.88,1.61-1.72,2.55-2.49-4.87,2.62-9.69,5.33-14.64,7.78-.04.02-.08.04-.12.06-.96-.01-1.91-.03-2.87-.05-.15-.24-.21-.54-.13-.85-2.66,1.78-4.08-.96-1.77-2.66-1.39.53-2.78,1.13-4.23,1.48-1.01.14-2.13-.75-1.94-1.81.69-2.43,2.95-4.02,4.49-5.93-1.26-.17-3.64.11-3.52-1.75.11-.75.88-1.26,1.61-1.15,1.85.31,4.86-.25,5.5,2.09-.05,2.18-2.42,3.5-3.63,5.11,5.62-2.1,11.01-4.72,16.42-7.3,2.36-1.27,4.72-2.55,7.19-3.61.83-.38,1.94.36,1.75,1.29,1.66-.87,3.53-1.86,5.16-2.59,1-.59,2.39.47,1.81,1.57,1.4-.71,2.81-1.39,4.26-2,.55-.24,1.25-.02,1.56.49.33.5.16,1.17-.32,1.52-2.73,1.89-5.68,3.49-8.42,5.38.57-.18,1.3-1.06,1.8-.35.11.13.09.32-.03.43-.77.78-1.57,1.52-2.45,2.18,2.66-1.35,5.33-2.71,7.85-4.32,1.13-.54,2.21-1.74,3.49-1.72,7.18-4.1,14.88-7.39,22-11.5.59-.41,1.31-1.08,2.05-.66l.15-.06c.22-.09.46-.11.69-.06.04-.03.09-.05.13-.07.48-.27.96-.55,1.44-.82-.02-.89.94-1.21,1.55-1.66,7.11-4.75,14.19-9.55,21.28-14.32,6.66-4.43,13.28-8.96,20.2-12.92,1.57-.78,3.15-2.36,5.04-1.78.79.17,1.23,1.16.73,1.82.51.13,1.07.37,1.32.87,1.28-.47,2.8-1.27,4.14-.57,1.69,1,.71,2.61-.3,3.69,1.59.89,1.25,2.74.12,3.87-.55.84-1.12,1.68-1.71,2.5-1.56.79-3,1.89-4.04,3.16-1.02,1.23-1.68,2.27-2.49,3.6.23-.39.46-.77.7-1.16-.75,1.25-1.58,2.44-2.34,3.69.21-.36.43-.71.64-1.07-.22.37-.45.74-.69,1.11-.25.2-.5.42-.75.64-.45.41-.89.81-1.33,1.22-1,.92-1.98,1.86-2.96,2.8-2.43,1.91-4.91,3.75-7.21,5.77-.11.1-.23.2-.34.3-2.09,1.06-4.09,2.33-5.89,3.81-.94.77-1.77,1.62-2.56,2.52-.88.28-1.73.68-2.49,1.23-.99.71-1.77,1.45-2.64,2.29.22-.21.44-.43.66-.64-.61.6-1.25,1.17-1.89,1.73-.76.18-1.5.45-2.23.74-1.25.51-2.44,1.21-3.61,1.92-.55.12-1.09.25-1.63.39-2.91.77-5.58,1.67-8.33,2.9-1.2.54-2.32,1.21-3.47,1.83-.04-.33.07-.68.38-.95.75-.71,1.5-1.44,2.25-2.14-2.85,1.93-5.91,4.09-8.75,5.87,0,0-.02.02-.03.02-.59.24-1.18.48-1.77.72.2-.09.41-.17.61-.25-.88.36-1.77.67-2.68.96-.14-.04-.28-.09-.42-.16-.21.12-.47.3-.75.52-.29.08-.58.17-.87.25-1.84.45-3.7.82-5.57,1.11.16-.13.32-.25.46-.35,1.4-1.16,2.79-2.34,4.16-3.54-2.06,1.36-4.12,2.72-6.23,4.01-.76.03-1.52.05-2.29.07-1.71.07-3.43.27-5.13.51.4-.49.91-.97,1.28-1.38,3.07-3.04,6.14-6.08,9.24-9.1-5.67,3.18-10.38,7.83-15.9,11.25-.14.09-.3.13-.46.13-.3,0-.6-.13-.78-.36Zm29.18-17.4c-2.7,1.74-5.96,2.71-8.12,5.16-3.54,3.51-7.1,6.99-10.61,10.54,8.79-5.57,17.29-11.6,25.29-18.23,1.37-.89,2.42-2.75,4.17-2.68.31-.3.62-.61.93-.91.5-.5,1.01-.99,1.52-1.48-4.42,2.5-8.8,5.04-13.18,7.61Zm-42.92,14.07c.34-.18.68-.38,1.01-.59.02-.05.04-.1.05-.15-.36.24-.71.48-1.06.73Zm12.1-.12c.25-.15.5-.3.74-.45h0s0,0,0,0h0c.02-.12.06-.24.12-.35-.29.27-.57.53-.86.8Zm-1.77-5.32c-.54.29-1.09.56-1.62.86.07.48-.66.64-1.04.71-.87.67-1.53,1.2-2.27,1.84-.01.07-.02.14-.03.2,2.8-1.02,5.15-2.94,7.39-4.83-.82.39-1.63.79-2.43,1.22Zm8.33-.4c-.53.44-1.05.88-1.57,1.33,2.18-1.54,4.35-3.08,6.6-4.52-1.76.95-3.58,1.78-5.02,3.19Zm77.03-41.37c-.33.17-.66.34-.99.51.46,1.62-1.79,2.09-2.77,2.88-2.57,1.51-5.13,3.02-7.71,4.5,1.12,1.95-2.02,2.48-3.17,3.3.12.56-.13,1.2-.67,1.46-5.36,2.64-10.64,5.42-15.9,8.25.03.08.05.16.07.25-.14,1.66-2.11,2.96-3.06,4.28-3.09,3.45-6.36,6.73-9.81,9.82,6.76-4.75,12.89-10.29,18.84-16,1-.79,2.07-2.62,3.5-1.66,1.84,1.62-1.86,3.67-2.78,4.91-2.98,2.82-5.88,5.72-8.74,8.65,4.63-3.74,8.6-8.24,12.95-12.3,0-.36.13-.72.41-.96,1.19-1.03,2.45-1.98,3.66-2.98,2.06-1.74,3.87-4.26,6.4-5.22.18-.15.36-.29.54-.44,4.39-3.86,9.35-7.02,13.34-11.33-1.39.66-2.74,1.37-4.1,2.07Zm-30.95,33.15c.26-.19.53-.38.79-.56.09-.07.18-.13.26-.19-.03-.03-.05-.06-.08-.09-.35.26-.68.53-.97.85Zm18.2-15.12c-1.68,1.54-3.37,3.07-5.05,4.62,3.03-1.98,5.58-4.58,8.02-7.25-1,.87-1.99,1.73-2.97,2.63Zm-20.05-1.93c.36-.19.72-.38,1.08-.56-.05-.03-.09-.05-.14-.09-.31.21-.63.43-.94.64Zm31.54-8.99c.23.18.43.43.49.71.03.13.06.27.09.4,1.69-1.93,3.3-3.94,4.81-6.01-1.87,1.54-3.53,3.34-5.39,4.9Z"/><path d="m335.16,342.06s-.02.01-.02.02c0,0,.02-.01.02-.02Z"/><path d="m335.18,342.04s0,0,0,0c0,0,0,0-.01,0,0,0,.01-.01.02-.02Z"/><path d="m335.19,342.03s0,0-.01,0c0,0,0,0,.01,0Z"/><path d="m372.14,320.71s-.01,0-.02.02c0,0,0-.01.02-.02Z"/><path d="m262.22,361.58c-2.64-.67-5.24-1.6-7.88-2.27-2.36-.31-4.71-.42-7.05-.64-1.73-.34-3.47-.61-5.21-.83-3.3-.73-6.64-1.65-9.9-2.23-3.67-.58-7.31-1.32-10.9-2.28-1.65-.37-3.4-.55-4.86-1.48-2.36-1.93-5.34-2.53-8.14-3.55-2.04-.79-3.89-1.92-5.95-2.6-1.96-.47-3.36-1.75-4.82-3.05-3.68-1.99-7.23-4.46-11.08-6.12-2.89-1.37-5.5-3.2-8.07-5.1-.82-.75-1.63-1.51-2.44-2.27-.66-.63-1.31-1.27-1.97-1.89-.34-.32-.68-.64-1.03-.95-.5-.43-1.04-.78-1.66-1-.32-.38-.65-.75-.98-1.12-.69-.77-1.37-1.57-2.09-2.31-.65-.68-1.33-1.48-2.14-2.01-.32-.4-.65-.8-.97-1.2-.52-.97-1.04-1.95-1.56-2.92l.21.2c1.32,1.29,2.28,2.89,3.59,4.18,2.6,2.24,5.38,4.15,7.7,6.7,2.42,2.12,5.21,3.77,7.68,5.83,2.63,1.93,5.66,3.02,8.48,4.61,2.47,1.63,4.98,2.88,7.46,4.42.88.66,1.59,1.58,2.61,2.04,4.13,1.49,7.99,3.62,12.26,4.74,2.39.82,4.18,2.87,6.8,3.05,8.21,1.86,16.56,3.17,24.71,5.28,3.08.61,6.23.81,9.29,1.49,3.3,1.14,6.62,2.22,9.94,3.23,1.04.13,2.09.06,3.12-.11.54.25.34.41-.15.51-1.67-.12-3.34-.25-5.02-.37Z"/><path d="m245.26,358.3c.02-.16.09-.3.25-.42,1.67-1.29,3.39-2.51,5.13-3.71-1.28.5-5.35,3.29-7.74,3.78-.49-.07-.98-.13-1.47-.19-.06-.06-.12-.12-.16-.21-.32-.5.08-1.14.5-1.35,1.91-1.59,4.01-2.94,6.02-4.4-3.6,1.63-6.91,4.19-10.79,5.09-.6.16-.9-.53-.69-1.01.89-.96,2.15-1.61,3.2-2.41-1.47.69-2.89,1.64-4.46,2.09-.32.05-.61-.09-.84-.31-.64-.71,1.42-1.82,1.83-2.39-1.04.23-7.81,4.6-7.18,1.97,1.6-1.6,3.57-2.84,5.23-4.4-2.81.94-5.57,2.98-8.62,2.76-1.42-.58.1-1.95.72-2.57-1.13.5-2.26,1.16-3.51,1.3-1.94-.14-.89-1.54.03-2.3-1.2.39-4.75,2.6-5.26.59.24-1.19,1.54-1.95,2.27-2.88-1.38.3-5.77,2.73-6.11.36.48-1.52,2.12-2.44,3.09-3.67-1.35.18-7.1,3.64-7.41,1.74-.05-.82,1.01-1.23,1.37-1.9-1.34.16-4.97,1.83-4.8-.63-1.64.06-3.86-.07-2.27-2.18-1.38.35-2.62,1-4.04,1.16-.38.04-.84,0-1.07-.35-.29-.55.55-1.84-.34-1.99-1.08-.04-2.21,0-3.25-.36-.44-.17-.46-.69-.78-.98-.55-.44-1.52-.23-1.83-.97-.2-.7-.04-1.85-.89-2.09-1.38-.2-2.84.09-4.17-.38-.7-.62-1.29-1.03-2.15-1.4-1.29-1.3-3.11-1.8-4.27-3.27-1.55-1.02-3.55-1.4-5.34-1.86-.07,0-.13-.02-.19-.04-.43-.42-.86-.83-1.3-1.24-.34-.32-.68-.64-1.03-.95-.02-.02-.04-.03-.05-.04.04-.15.23-.26.39-.14.73.42,1.21,1.14,1.76,1.73,1.81.64,3.78.96,5.52,1.79.7.38,1.16,1.04,1.75,1.54.73.61,1.69.88,2.41,1.5.46.58,1.12.82,1.75,1.15.48.22.72.79,1.25.91,1,.16,1.98.14,2.98.18.67-.04,1.43.14,1.71.82.37.81.09,1.96,1.3,1.96.38.09.77.27,1.02.57.23.25.25.59.58.68,2.03.59,4.46-.79,3.9,2.47.55.05,1.52-.3,2.49-.66,2-.73,3.99-1.46,2.34,1.38.31.08.69.07,1.07.07.94-.01,1.89-.02,1.85,1.25.76.04,1.49-.16,2.21-.36s1.45-.41,2.19-.36c1.05.32.48,1.51-.06,2.05,2.12-.85,4.19-1.91,6.43-2.43.22-.03.46.05.65.18,1.41,1.27-2.2,3.61-2.87,4.7,2.05-.38,3.91-1.67,5.98-1.68,1.72,1.15-1.51,3.02-2.14,4.05,1.88-.46,3.61-1.8,5.52-1.93,1.61.64-1.2,2.29-1.66,2.99.97-.04,5.8-3.32,5.55-1.44-.52,1.21-1.88,1.88-2.61,2.98,3.05-.46,5.74-2.3,8.69-3.09,3.08.3-3.11,4.28-3.78,5.02,2.09-.94,4.09-2.09,6.25-2.84,2.04.15-.64,2.2-1.19,2.76,2.99-1.41,5.85-3.12,8.89-4.41.41-.16.81.24.66.65-.09.23-.28.43-.5.56-2.17,1.28-4.25,2.73-6.29,4.2,4.4-2.04,8.53-5.09,13.17-6.42,1.97.55-1.2,2.36-1.82,2.88-2.16,1.54-4.35,3.03-6.45,4.64,4.4-2.08,8.5-4.8,13-6.64.55-.24,1.18.37.86.91-1.24,1.66-3.39,2.48-4.98,3.79,2.96-1.48,5.92-3.55,9.19-4.13,2.62.68-2.8,4.11-3.53,4.88,1.26-.52,16.58-9.58,15.41-6-.26.41-.59.74-1,1,1.82-.8,3.72-1.57,5.64-2.02,2.21.06.3,2.09-.57,2.69,2.93-1.57,5.87-3.25,9-4.34.73-.16,1.5.8.79,1.32-1.4,1.12-2.9,2.12-4.4,3.11,2.38-1,13.67-7.25,15.29-5.91.7,1.27-1.38,2.2-2.23,2.79-2.46,1.58-4.91,3.16-7.36,4.76,4.09-2,8.04-4.27,12.04-6.44,1.05-.35,5.65-3.82,5.49-1.25-.11.4-.56.56-.87.77-.01,0-.02.02-2.83,1.9,1.91-.88,13.84-7.77,14.78-5.94,2.29-1.31,4.63-2.58,6.87-3.95.49-.26,1.07-.71,1.61-.36,2.8-1.52,5.61-3.05,8.46-4.48.84-.43,1.62-.77,2.41-1.2.37-.2.86-.09,1.08.27.32.48-.11.98-.52,1.16-9.54,5.54-19.5,10.19-29.07,15.66-.69.44-2.23.57-2.02-.64.93-1.14,2.63-1.59,3.82-2.48-3.02,1.46-5.96,3.06-8.93,4.61-.93.5-6.57,3.78-5.62.83-1.46.61-11.88,7.05-11.5,3.42.23-.69.96-.96,1.48-1.39,2.36-1.68,4.82-3.21,7.23-4.81-3.67,1.61-7.17,3.36-10.77,5.07-1.35.48-2.68,1.54-4.16,1.37-2.54-1.16,1.27-2.52,2.3-3.4-3.25,1.78-6.52,3.55-9.78,5.3-.39.18-.87.26-1.27.07-.95-.62-.36-1.34.43-1.71,2.47-1.61,4.97-3.21,7.32-5-4.21,1.34-7.99,3.85-12.11,5.25-.64.18-1.2-.73-.62-1.14,1.45-.89,2.95-1.7,4.38-2.61-4.4,1.87-8.41,4.77-12.87,6.39-.67.08-1.46-.81-.88-1.38,1.43-1.34,3.01-2.53,4.5-3.8-3.16,1.45-6.2,3.17-9.22,4.88-.83.37-1.62.96-2.46,1.38-.78-.15-1.56-.29-2.33-.43Z"/><path d="m387.99,315.75c.42-.19.84-.38,1.25-.58-.02.06-.04.12-.06.18-.45.16-.9.35-1.34.55.02-.07.07-.12.14-.16Z"/><path d="m215.08,282.33c-2.11-.92-4.42-1.09-6.62-1.7-2.78-.72-5.15-2.46-7.51-4.03-2.72-2.15-5.64-4.04-8.41-6.12-2.21-2.12-4.03-4.69-6.37-6.65-1.59-1.36-3.53-2.27-5.21-3.51-2.87-1.96-5.19-4.53-7.59-7-1.98-1.99-4.43-3.42-6.32-5.52-1.67-1.77-3.78-3.01-5.43-4.8-3.34-3.12-5.59-7.14-7.97-11-.9-1.5-2.17-2.64-3.12-4.09-1.61-3.43-2.83-7.02-4.18-10.55-2.95-6.44-3.22-13.56-4.55-20.41-1.83-10.25.24-20.66,1.36-30.89,1.56-6.72,4.07-13.23,6.46-19.68,1.73-5.44,4.67-10.36,6.82-15.64,2.3-4.68,5.32-8.93,8.44-13.08,3.85-5.68,8.51-10.75,14.23-14.59,3.65-3.27,8.06-5.25,12.61-6.91.48-.18,1.09-.73,1.5-.24.57.9-4.61,2.35-5.39,2.77-4.07,1.52-7.25,4.45-10.73,6.93-4.48,3.18-7.95,7.42-11.09,11.87-3.72,4.93-7.36,9.96-9.78,15.68-1.34,3.62-3.41,6.97-4.77,10.57-2.61,7.41-5.64,14.74-7.38,22.4-.96,8.17-2.22,16.36-1.98,24.61.12,5.11,1.6,10.04,1.99,15.12,1.16,7.48,4.22,14.49,6.97,21.48,3.05,3.75,5.34,8.03,8.12,11.98,2.2,3.02,5.19,5.24,7.92,7.72,2.28,2.53,5.24,4.3,7.52,6.83,2.02,2.19,4.1,4.32,6.54,6.04,2.04,1.51,4.4,2.55,6.2,4.38,1.89,1.77,3.46,3.83,5.27,5.66,3.4,2.54,6.91,5.05,10.39,7.5,2.49,1.72,5.19,2.9,8.18,3.34,2.32.3,4.41,1.32,6.57,2.14,1.47.45,2.66,1.52,4.02,2.18,1.61.69,3.34,1.26,5.06,1.46.15.06.34.04.52.03.3-.02.59-.05.69.25,0,.13-.12.24-.25.23-.03,0-.06,0-.08,0-4.72,0-8.36-3.26-12.65-4.72Z"/><path d="m148.21,146.15c-.11-.06-.16-.2-.09-.32.83-1.43,1.81-2.77,2.68-4.19,1.8-3.19,3.72-6.29,6.04-9.14,2.75-3.52,5.03-7.46,8.35-10.49,4.69-4.17,10.17-7.21,15.48-10.48,5.67-4.08,11.49-7.94,17.69-11.18,1.35-.63,2.72-1.21,4.09-1.81.12-.05.27,0,.33.12.05.12-.02.25-.13.31-1.41.61-2.87,1.24-4.25,1.88-6.36,3.36-12.28,7.4-18.15,11.54-5.17,3.06-10.38,6.1-14.88,10.12-4.36,4.42-7.63,9.82-11.4,14.73-1.73,2.98-3.54,5.92-5.41,8.82-.05.07-.13.11-.22.11-.04,0-.09-.01-.13-.03Z"/><path d="m178.12,103.66c-.11-.08-.13-.23-.05-.33,1.71-2.2,3.79-4.08,6.2-5.48,5.27-2.82,11.14-4.3,16.75-6.34,6.77-2.46,13.61-4.7,20.75-5.74,7.2-2.04,14.71-2.65,21.98-4.36,1.28-.33,2.57-.66,3.85-1,.28-.09.46.37.13.45-1.54.39-3.09.82-4.63,1.18-4.86,1.11-9.84,1.75-14.75,2.59-4.3,1.13-8.63,2.06-13.01,2.8-6.3,1.54-12.33,3.99-18.49,5.96-5.12,1.94-10.71,3.17-15.02,6.72-1.25,1-2.34,2.23-3.35,3.48-.05.06-.13.09-.2.09-.05,0-.11-.02-.15-.05Z"/><path d="m198.79,95.91c0-.13.12-.23.25-.23s.25.1.25.23-.12.23-.25.23-.25-.1-.25-.23Z"/><path d="m181.5,101.21c3.25-5.03,9.91-7.29,15.08-10.23,7.45-3.91,15.52-6.29,23.58-8.56,6.15-1.66,12.18-3.87,18.48-4.92,7.32-1.18,14.51-3.11,21.92-3.6,6.74-.71,13.46-1.55,20.26-1.18,5.2,1.01,10.51,1.32,15.59,2.92,4.32.82,8.77.8,13.05,1.85,2.79.46,5.17,2.12,7.94,2.64,5.63.95,10.5,2.92,15.88,4.6,5.35,1.3,10.65,2.88,15.39,5.76,3.64,1.67,6.9,4.1,9.06,7.52.1.13.08.31-.06.41-.13.09-.34.08-.44-.05-.77-1.01-1.52-2.03-2.37-2.97-1.79-1.83-4.07-3.12-6.33-4.27-6.01-3.82-13.01-4.96-19.64-7.19-4.26-1.9-8.86-2.52-13.32-3.73-1.31-.36-2.52-1.03-3.76-1.53-1.44-.48-2.95-.77-4.39-1.08-4.96-.83-10.08-.81-14.88-2.46-3.72-.82-7.55-.94-11.27-1.82-5.24-.22-10.5-.16-15.69.62-8.07.57-16.04,1.89-23.95,3.53-9.09,1.34-17.77,4.5-26.6,6.96-9.49,2.44-18.31,6.74-26.8,11.54-1.75.98-3.43,2.11-4.77,3.59-.52.56-1.06,1.11-1.61,1.65-.05.05-.11.07-.17.07s-.13-.02-.18-.07Z"/><path d="m408.28,170.87c-.2-.05-.35-.25-.28-.46.28-.85.56-1.71.78-2.57.79-4.02-.12-8.18-1.55-11.96-.93-3.83-2.55-7.41-3.79-11.13-1.57-2.69-3.21-5.41-4.61-8.19-2.46-3.53-5-7.01-7.36-10.6-1.42-1.99-2.46-4.27-4.27-5.96-3.3-3.53-7.04-6.57-10.71-9.69-3.21-3.34-6.87-6.25-10.38-9.24-2.14-1.61-3.91-3.66-6.12-5.16-2.43-1.37-4.82-3.04-7.53-3.76-1.66-.43-3.32-.41-4.99-.4-.5,0-1,0-1.5,0-.13,0-.25-.1-.25-.23s.12-.23.25-.23c.52,0,1.04,0,1.57,0,1.52-.01,3.04-.03,4.54.3,4.27,1.17,8.29,3.68,11.52,6.7,4.4,3.95,9.16,7.36,13.26,11.63,3.9,3.28,7.79,6.47,11.28,10.19,1.48,1.49,2.41,3.39,3.6,5.1,2.55,3.91,5.41,7.65,7.96,11.52,1.28,2.67,2.87,5.15,4.36,7.71,1.04,3.18,2.5,6.23,3.39,9.46,1.39,4.44,3.1,9,2.21,13.73-.2,1.03-.55,2.01-.88,3-.06.17-.22.28-.39.28-.03,0-.07,0-.1-.01Z"/><path d="m297.39,297.87c-10.83-.42-21.71.09-32.5-1.1-6.22-.73-12.43-1.65-18.55-2.83-3.47-.12-6.9-.04-10.28-.78-1.01-.35-1.81-1.18-2.4-2.02-.41-.33-.91-.62-1.4-.78-1.65-.08-3.3,0-4.95.05-1.3-.61,2.18-.57,3.98-.54.54.01.93.02.98.02.59.12,1.12.47,1.62.8.35.33.55.82.96,1.11,1,1.14,2.61,1.16,4,1.33,2.98.24,5.96.07,8.92.38,3.24.77,6.53,1.23,9.84,1.6,11.73,2.01,23.61,1.83,35.46,1.78,9.73,1.04,19.33-1.67,28.79-3.57,5.41-1.5,11.02-2.38,16.26-4.4,6.59-2.61,12.56-6.27,18.5-10.05,2.56-1.5,5.26-2.75,7.62-4.57,2.29-1.68,5.11-2.63,7.36-4.33.88-.52,1.59-2.23,2.71-1.55.27.26.26.67,0,.93-1.62,2.16-3.93,3.47-6.32,4.64-2.64,1.39-4.96,3.3-7.66,4.58-6.57,3.61-12.68,7.97-19.63,10.8-7.06,3.05-14.99,4.18-22.48,5.84-6.53.92-12.95,2.68-19.54,2.68-.43,0-.85,0-1.28-.02Z"/><path d="m377.5,267.12c-.08-.1-.07-.26.04-.33.35-.23.65-.51.98-.77.47-.27.77-.68,1.14-1.04.62-.47,1.17-.98,1.68-1.56.19-.19.55.04.4.29-.41.7-1.12,1.07-1.71,1.59-.41.45-.82.86-1.32,1.19-.29.17-.64.7-1,.7-.07,0-.14-.02-.21-.07Z"/><path d="m377.41,266.88c-.18-.08-.22-.27-.22-.45,0-.33.54-.29.5.04.04,0,.1-.03.11-.03,9.16-7.05,17.02-16.1,22.71-26.16,1.46-4.21,3.63-8.1,5.42-12.17,1.13-2.78,1.86-5.7,2.68-8.58.37-.97,1-2.46,2.29-1.97.79.3.9,1.19.5,1.86-1.51,5.54-3.98,10.86-6.98,15.72-1.16,1.84-1.74,3.95-2.8,5.83-1.16,1.75-2.24,3.57-3.37,5.34-4.16,5.41-8.8,10.43-13.77,15.11-2,1.8-3.98,3.69-6.17,5.29-.19.11-.41.23-.64.23-.09,0-.17-.02-.26-.06Z"/><path d="m381.87,263.5c-.18-.29-.09-.62.14-.84l-.06-.02c-.85.28-4.65,2.36-4.13.2.06-.1.12-.19.2-.27-.44-.27-.39-.95.06-1.18,1.55-.86,3.18-1.55,4.77-2.34,1.77-.81,3.45-1.79,5.13-2.76.28-.16.64-.11.87.12.78-.25,1.57-.7,2.41-.48-.7-.76.25-1.64.7-2.27,2.17-2.73,4.55-5.29,6.9-7.86-.68-.3.36-1.39.52-1.85,2-3.21,4-6.51,6.54-9.31.28-.23.52-.03.55.18.03.15-.06.31-.34.27-2.64,3.16-4.97,6.65-6.93,10.26,3.12-3.32,6.45-6.48,9.64-9.71,1.32-.34-.86,1.64-1.28,2.2.46.17.68.81.41,1.23-2.24,3.66-5.17,6.81-7.96,10.05.79-.66,1.57-1.31,2.43-1.87.26-.18.62-.21.9-.05.44.22.46.74.31,1.16-1.01,1.57-2.43,2.89-3.64,4.33.16.73-.75.97-1.21,1.32-.2.22-.41.44-.61.65-1.78,1.64-6.31,7.43-8.85,6.12-.92.59-2.88,2.97-3.66,1.16-.04,0-.08,0-.12-.01-.68.45-1.38.9-2.05,1.36-.28.24-.69.53-1.07.53-.21,0-.4-.09-.56-.33Z"/><path d="m389.34,265.37c-.67-.71.41-1.34.86-1.82.75-.72,1.5-1.46,2.28-2.14-.29.08-.62.05-.84-.16-1.04-1.2,2.33-2.79,3.07-3.57-.52-.39-.2-1.14.25-1.46-.02-.37.11-.73.41-.96,1.92-1.54,3.85-3.05,5.81-4.54-1.57-1.57,4.82-7.67,6-9.14-1.46-.22-1.57-1.77-1-2.88-.38.27-.67.86-1.2.8-.18-.02-.29-.23-.16-.38.45-.57,1.1-.92,1.66-1.36-2.01,0,.77-2.14,1.22-2.67,1.05-.99,2.19-1.88,3.29-2.82.12-.1.32-.11.45-.03,1.37.77-3.21,3.93-3.48,5.08.48-.07.97-.11,1.45-.15.13-.01.26.06.28.2.02.13-.09.25-.21.27-.6.06-1.21.1-1.8.21-.32.79-1.46,2.82.19,2.64,1.01-.22,1.52-1.42,2.34-2.01.82-.64,1.49-1.64,2.53-1.91,2.75.13-1.13,3.21-1.92,3.82-1.01.64-2.05,1.09-2.77,2.09-1.98,2.25-4.12,4.54-5.54,7.19,1.72-1.16,3.25-2.64,5.07-3.68.24-.15.58-.12.81.05.74.62-.18,1.42-.68,1.85.48-.13,1.02.33.85.83-.07.3-.23.56-.48.75-1.12.85-2.25,1.7-3.44,2.48,0,.22-.13.43-.34.53-1.53.95-2.98,2.03-4.45,3.07.44-.19,1.02.1,1.02.61,0,.2-.11.36-.22.51-1.21,1.59-2.98,2.69-4.46,4.02-1.7,1.4-3.56,2.84-5.21,4.21-.31.28-.73.67-1.15.67-.16,0-.33-.06-.48-.21Zm17.79-28.97c-.12.15-.25.31-.37.47.03-.02.07-.04.1-.07,0,0-.01,0-.02.01.18-.12.34-.25.51-.38.23-.35.47-.7.72-1.03-.16.15-.31.3-.46.46l.02-.02c-.17.19-.34.37-.5.56Z"/><path d="m387.3,303.48c-1.08-.71-.96-2.16-.71-3.27-.49-.45-.25-1.2.14-1.65,1.05-1.2,1.2-2.94,1.92-4.36-1.39-.64-1.66-2.28-1.41-3.65-3.41.04-5.05-1.6-2.91-4.7-.59.31-1.27.87-1.95.5-.25-.11-.33-.42-.13-.62,2.58-2.54,5.34-4.89,8.02-7.33-2.59,1.68-5.13,3.43-7.79,5.01-1.46.74-3.23,1.91-4.86,1.64-.08-.1-.1-.25-.02-.35,1.32-1.98,3.04-3.65,4.59-5.44-2.76,1.17-.98-.88-.08-1.88,2.41-2.77,4.89-5.48,7.44-8.13.87-1.18,1.75-2.41,2.62-3.57.62-.84,1.22-1.96,2.35-2.12.82.03.08,1.88-.06,2.36.05.07.06.16.01.25-.43.62-.59,1.38-.94,2.05,2.14-1.56,3.87-3.93,6.45-4.68.54-.05.31.51.13.78-1.74,2.12-3.93,3.91-5.93,5.78-2.99,1.87-4.13,5.11-5.93,7.98-.38.52-1.44,2.42-2.11,1.72-.21-1.34.58-2.68.99-3.94-3.38,2.26-6.04,5.38-8.54,8.54,3.46-.95,6.25-3.36,9.27-5.2,2.02-1.43,4.26-2.59,6.09-4.25,1.41-1.48,3.28-2.29,4.84-3.6.48-.33.96-.66,1.45-.98.19-.13.45-.05.53.16.11.23.01.49-.18.65-1.02.82-2.09,1.57-3.16,2.34.05.37-.24.65-.47.89-2.09,2.45-4.33,4.79-6.75,6.91-2.36,2.06-5.22,3.76-5.94,7.03.02.07.04.14.06.21.02.05.04.09.04.09.51.98,2.03.96,3,.96.37-2.81,5.68-13.05,9.16-11.42.89.45.87,1.67.76,2.53-.41,3.05-2.01,5.98-4.49,7.84.41,1.23-1.5,5.75-2.99,5.86-.22.52-.43,1.05-.61,1.56,0,.02-.01.03-.02.05,1.59-1.23,4.09-3.74,6.21-2.56.11-1.61.08-3.24-.04-4.84-.04-.31.45-.4.53-.1.39,2.04,1.95,3.38,3.04,5.03,1.18,2.39-3.41,4.14-5.02,5.07-1.29,1.78-3.14,5.06-5.59,5.06-.33,0-.67-.06-1.02-.19Zm.45-2.96c-.1.66-.41,2.07.58,2.05.19-.02.48-.09.61-.16,1.2-.75,2.12-1.77,2.92-2.91-1.32.5-2.68.98-4.11,1.02Zm4.94-5.69c-1.79,1.15-4.07,2.48-4.67,4.61,1.75-.17,3.33-.86,4.91-1.54.71-1.05,1.29-2.17,1.72-3.35,0-.08,0-.19-.02-.27h0s0,0-.01,0h0c-.13-.06-.26-.08-.39-.08-.55,0-1.06.39-1.54.63Zm3.25-.59c.03.1-.02.2-.1.26,0,.19-.04.38-.09.57-.26.64-.53,1.29-.86,1.9,5.12-2.95,3.49-2.22,1.09-6.38.1,1.21-.16,2.45-.04,3.64Zm-5.62-4.28c-.65.21-1.31.38-1.98.5-.14.96-.25,2.23.75,2.77.55-1.19,1.25-2.31,1.83-3.49-.2.09-.39.16-.59.23Zm-1.83-.5c3.98-.68,6.89-4.29,7.73-8.07.09-.79.47-1.88-.16-2.41-.1-.03-.19-.04-.3-.04-2.59,0-7.03,8.39-7.27,10.53Zm-1.94-6.77c-.9.82-1.8,1.64-2.67,2.49.05-.03.1-.06.16-.09h-.02c1.29-.71,2.23-1.8,3.13-2.95l-.6.55Zm3.94-3.02c-.41.45-.83.89-1.23,1.34,2.15-1.85,4.16-3.91,6.05-6-1.79,1.33-3.29,3.04-4.82,4.66Zm-2.55-4.43c-.54,1.36-1.17,2.72-1.35,4.17,1.7-1.77,2.68-4.14,3.91-6.24-.86.68-1.71,1.38-2.57,2.07Zm-3.05-.18c-1.12,1.26-2.22,2.52-3.29,3.82.56-.18,1.08-.48,1.57-.8.94-1.93,2.64-3.59,3.86-5.4-.72.79-1.43,1.59-2.14,2.38Zm3.77-3.71c-1.05,1.4-2.12,2.79-3.18,4.2,1.77-1.73,3.44-3.52,4.97-5.45,1.27-1.21,2.6-2.45,3.45-4-2.16,1.13-3.8,3.3-5.25,5.25Zm-1.52,3.79c.17-.17.44-.28.52-.52-.18.17-.35.34-.52.52Zm1.3-1.05c1.28-1.12,2.87-1.91,3.46-3.57-1.11,1.21-2.63,2.15-3.46,3.57Zm4.4-5.71c-.4.66-1.14,1.22-1.62,1.88-.15.17-.3.33-.46.5-.2.21-.39.42-.58.63,1-1.08,2.41-1.87,2.9-3.3-.08.1-.16.2-.24.29Zm3.64-1.91c-1.43,1.38-3.4,2.36-4.13,4.29-.04.09-.09.17-.13.26,2.56-2.13,5.09-4.39,7.35-6.82-1.17.55-2.09,1.49-3.08,2.27Zm-4.56.43c.64-.46,1.29-1.36,2.14-1.25.16-.53.38-1.03.36-1.57-1.18.49-1.69,1.89-2.5,2.82Z"/><path d="m376.53,308.98c-.22-.16-.27-.47-.1-.68,2.55-2.9,5.02-5.88,7.17-9.09-1.02.68-6.62,7.23-7.25,5.83-.1-.16-.07-.34.03-.49,1.48-1.6,2.93-3.21,4.38-4.84-.56.21-1.21.56-1.8.29-.57-.23-.57-.8-.3-1.26,1.26-3.04,3.37-5.67,5.09-8.47-.71.56-1.73,1.47-2.63.77-.27-.17-.33-.47-.29-.77.35-2.07,1.24-4.03,1.97-5.99.46-1.26,5.23-13.74,6.75-9.49.44-1.14.95-2.24,1.49-3.34.15-.33.57-.52.92-.39.42-2.34.75-4.76,1.58-6.99.26-.52,1.07-.63,1.4-.12.41.75.07,1.63,0,2.43.12-.47.57-.77,1.05-.71s.88.5.81,1c-.26,2.01-.52,4.02-.78,6.03.84-2.38,1.64-4.78,2.61-7.06.52-.81.56-2.51,1.8-2.4,1.26.21.89,1.78.49,2.6-.39,1.83-.77,3.66-1.1,5.5-1.14,4.31-2.19,21.82-7.25,22.08-.07.09-.15.16-.23.21-.35.23-.77.27-1.14.08-.33,1.03-.7,2.05-.93,3.1-.08.32-.43.53-.75.53-1.46-.18-.48-2.27-.55-3.23-.09.03-.19.04-.28.04-.16,0-.31-.04-.45-.12-.96,1.86-1.23,4.83-3.49,5.54-2.43,3.19-4.71,6.53-7.55,9.38-.1.09-.24.14-.37.14-.11,0-.22-.03-.32-.1Zm2.86-9.47c1.39-.29,2.63-1.09,3.48-2.19-.21-1.98.17-3.98.71-5.89-.51,1.01-5.51,7.79-4.19,8.08Zm3.36-.89c-.16.18-.31.36-.47.54.28-.27.55-.53.82-.79,0-.02-.01-.04-.02-.06-.13.09-.24.2-.34.32Zm3.29-10.25c-.73,2.37-1.64,4.86-1.74,7.33,1.07-1.3,2.34-2.49,3.38-3.79.42-1.93.88-4.01.64-5.98-.71.86-1.46,1.67-2.27,2.44Zm-2.28-5.16c-.26,1.16-3.52,7.55-1.94,7.64.98-.18,1.61-1.02,2.41-1.54,1.42-4.57,3.07-9.05,4.9-13.48-.01-.98-.19-1.39-.48-1.39-1.27,0-4.63,7.93-4.89,8.77Zm11.69.48c-.64,2.23-1.29,4.45-1.93,6.68-.05.15-.09.3-.13.46,1.02-1.84,1.59-3.88,2.04-5.93h0c.21-1.09.46-2.2.68-3.3.04-.2.08-.41.11-.62-.26.9-.51,1.81-.77,2.71Zm-4.07,2.79c-.1.87-.2,1.74-.3,2.62,1.09-3.12,1.74-6.33,2.05-9.62-.6,2.32-1.52,4.6-1.75,7Zm-5,.82s-.02.05-.03.08c.14-.14.27-.28.41-.42,0,0,0,0,0,.01.5-.53.96-1.08,1.43-1.64-.05-.17-.09-.34-.15-.51-.58.8-1.2,1.61-1.66,2.48Zm.71-2.03c.07-.09.13-.18.2-.27.18-.24.37-.48.55-.73-.07-.17-.14-.34-.21-.52-.18.51-.36,1.01-.54,1.52Zm1.69-1.45s.04.09.06.14c.03.07.05.14.08.21.04-.23.08-.46.11-.68-.08.11-.16.22-.25.33Zm-.66-1.46c.09.21.2.43.3.63.05.1.09.21.14.31,1.21-1.36.91-3.43,1.4-5.12-.91,1.24-1.23,2.79-1.84,4.18Z"/><path d="m393.99,298.87c-.09-.08-.15-.18-.2-.29-.42.1-.74-.46-.36-.73.74-.4,1.68-.3,2.47-.64,3.7-.86,7.26-2.11,10.8-3.45-3.68.99-7.42,1.76-11.23,1.82-.41-.02-.85-.01-1.29,0-1.71.02-3.56.03-4.89-.96-.38.11-.81-.27-.6-.65,1.66-1.28,3.97-1.46,6-1.73,2.9-.27,5.62-1.97,8.64-1.34.5.11,1.14.46.47.92-2.97.85-6.14,1.03-9.21,1.42-1.41.5-2.84.98-4.32,1.23,3.87.93,8.02.41,11.89-.3.4.02,1.8-.4,3.32-.82,2.32-.64,4.93-1.29,4.63-.35-.07.2-.2.36-.39.43-1.29.52-2.59,1-3.9,1.5,5.51-1.64,11.09-3.32,16.28-5.82,6.2-2.69,12.34-5.7,18.78-7.72,1.59.16.21,1.66-.51,2.08-1.66,1.16-3.29,2.35-4.88,3.6.32.04,1.27-.24,2.31-.52,1.83-.49,3.96-.98,3.59.28-.11.15-.25.3-.42.37-2.54.76-5.14,1.39-7.7,2.09-1.68.29-2.96,1.39-4.44,2.16-1.84,1.02-3.75,1.89-5.7,2.67-1.68.64-12.01,4.72-12.07,1.79-2.13.62-4.28,1.04-6.46,1.41-.34.05-.74-.05-.94-.35-3.09.67-6.14,1.85-9.28,2.13-.15-.05-.29-.09-.41-.2Zm29.76-6.16c-3.8,1.26-7.8,1.67-11.61,2.89-.41.61.44.6.84.56,6.08-.57,11.94-3.04,17.21-6.06-2.25.57-4.2,1.96-6.45,2.61Zm-25.4-.82c1.56-.16,3.12-.24,4.66-.49-.4-.05-.8-.08-1.2-.08-1.17,0-2.34.21-3.46.57Zm35.58-6.44c-1.97.83-3.93,1.68-5.88,2.55-.26.12-.51.23-.77.34,1.68-.41,3.35-.79,5.05-1.09,1.68-.96,3.23-1.92,4.81-2.97-1.14.16-2.14.76-3.21,1.17Z"/><path d="m457.72,258.37c-.11-1.11.3-2.15.88-3.08.15-.26.59-.04.43.23-.34.62-.72,1.27-.8,1.96-.1.34.21,1.03-.26,1.12-.13,0-.25-.1-.25-.23Z"/><path d="m429.05,296.92c-2.12-2.38,2.97-3.2,4.41-3.8,3.69-1.25,7.02-3.44,9.81-6.15.37-1.99,1.72-3.68,2.9-5.28,2.81-9.63,4.7-19.75,8.96-28.82-1.41-1.01-1.77-2.98-2.32-4.54-.36-1.31-1.15-3.78.81-4.09.16-1.48.34-4.34,2.41-4.08,1.87.62,1.81,5.47,1.97,7.2.19-.34.4-.66.66-.94.07-.07.16-.12.25-.14.13.29.26.57.39.85,0,.02.01.03.02.05,0,.28-.02.56-.05.84-.08.86-.13,1.71-.13,2.56-.05.34-.09.69-.13,1.04-.03.24-.36.25-.46.08-.68,2.49-.65,5.11-.38,7.64.05.42.12.84.18,1.25.18-1.46.23-3.07.34-4.38,0-1.57.23-3.11.48-4.65.01.28.03.55.05.83.07.96.14,1.93.24,2.88-.05.32-.08.65-.1.95-.02.39-.04.77-.04,1.16.01.83.05,1.65.18,2.46-.27.71-.4,1.49-.54,2.2-.23,1.15-.39,2.41,0,3.54.02.04.03.07.05.11-.03.11-.06.21-.09.32.02-.1.04-.2.07-.29-.05.21-.1.41-.14.62.03-.11.05-.22.08-.32-.12.59-.2,1.18-.22,1.77v.08c0,.25,0,.5.02.75-.02.03-.05.06-.07.09-.69,1.04-.88,2.38-.86,3.61,0,.21.02.42.05.63-.23.86-.48,1.71-.8,2.53-.3.74-.61,1.49-.89,2.24-.27.64-.57,1.28-.73,1.96-.1,0-.21,0-.32-.04-1.68,2.56-3.9,4.7-6.14,6.78-1.31,2.2-4.75,9.49-7.86,6.45-.71.58-2.07,2.88-2.96,1.52-.57.17-1.49.52-1.89-.12-1.66.86-3.3,1.79-5.01,2.54-.41.18-.9.36-1.38.36-.29,0-.57-.07-.82-.25Zm10.12-4.18c-.02.08-.05.16-.06.24.54-.27,1.03-.54,1.39-1.02-.44.27-.88.54-1.32.79Zm13.09-16.9c.81-1.64,1.72-3.28,2.46-4.98.02-2.22.04-4.45.12-6.67-1.06,3.83-1.84,7.74-2.58,11.64Zm3.37-12.81c-.08,2.04-.11,4.06-.11,6.1.62-1.32,1.11-2.69,1.66-4.03.19-2.36-.11-4.5-.52-6.78-.44,1.56-1.12,3.06-1.03,4.71Z"/><path d="m167.51,316.77c-.14-.06-.26-.2-.26-.36,0-.12.09-.21.2-.23.03-.37-.04-.75-.24-1.06-.07-.11-.02-.26.09-.32.33-.15.59.41.65.98.06.5-.03,1.01-.33,1.01-.03,0-.07,0-.11-.02Z"/><path d="m164.67,316.85c-1.06-.33-1.7-1.51-1.97-2.52-.49-1.68-.97-3.37-1.69-4.97-2.14-4.89-4.94-9.58-6.44-14.71-.76-2.12-2.25-3.88-2.61-6.15-.96-.16-.55-2.42.54-1.72.52.45.51,1.24.71,1.86.31,1.9,1.43,3.48,2.04,5.27,1.95,7.38,6.22,13.87,8.26,21.21.27.43.58.9,1.02,1.18.08.05.12.07.21.09.3.03.26.47-.02.47-.02,0-.03,0-.05,0Z"/><path d="m159.72,317.32c-1.93-2.34-2.4-5.58-3.54-8.34-2.16-5.19-4.28-10.39-6.66-15.48-1.41-3.58-2.79-7.18-3.29-10.93-2.12-6.76-4.48-13.48-5.07-20.6-.58-7.33-1.52-13.73-1.57-21.28-.7-7.14-1.7-14.34-.71-21.51.26-1.85,3.28-1.7,3.29.21-.3,5.63.24,11.21.6,16.82.61,5.46.43,10.95.63,16.44.86,5.74.52,11.59,1.8,17.28.76,3.66,1.55,6.99,2.72,10.48.79,3.16.87,6.46,2.07,9.54.86,3.07,2.07,5.92,3.2,8.87,1.96,5.71,3.83,11.45,6.1,17.04.24.36.43.93.83,1.13.42.02.8-.16,1.12-.34.25-.18.57.19.3.37-.35.22-.84.45-1.29.45-.19,0-.37-.04-.53-.14Z"/><path d="m141.26,235.11c-.56-.19-.68-.93-.83-1.44-.5-2.21-.45-4.48-.45-6.74.17-7.36.66-14.7.78-22.06-.54,4.77-1.61,9.52-1.66,14.32.36-.14.42.23.34.61-.08.33-.28.67-.49.63-.11,0-.2-.06-.24-.17-.24-1.3-.07-2.67.02-3.98.61-4.85,1.21-9.7,2.06-14.51.07-3.05-.18-6.15.3-9.18.12-.38.09-.95.49-1.13.18-.04.38.07.38.27-.4,12.12-1.06,24.26-1.31,36.41.08,2.14-.1,4.47.86,6.43.29.14.13.56-.15.56-.03,0-.06,0-.09-.02Z"/><path d="m138.08,234.07c-.04-10.96,1.43-21.86,1.59-32.81-.15.05-.34-.05-.34-.22,0-.98,0-1.97,0-2.96.2-1.98-.18-4.44.53-6.25,1.06-.66.4,3.49.51,4.08-.27,10.66-1,21.3-1.7,31.94-.08,2.07-.12,4.15-.09,6.22,0,.15-.13.23-.26.23s-.24-.07-.24-.23Z"/><path d="m138.52,215.54c-.12-.19-.16-.39-.16-.61.05-2.08.51-4.12.81-6.17.68-3.97,1.14-7.98,1.52-12,.48-4.77.34-9.57,1.27-14.29.4-2.11.3-4.49,1.46-6.34.25-.39.91-.17.59.3-.55,1.91-.72,3.95-1.23,5.88-1.82,8.93-1.25,18.17-1.32,27.24,0,.3-.5.31-.5,0,.02-3.07-.02-6.13-.05-9.2-.32,5-1.86,10.02-1.9,14.98.08.2-.09.34-.26.34-.09,0-.19-.04-.23-.15Z"/><path d="m139.1,235.08c.1-2.33-1.29-4.32-1.78-6.54-1.41-6.11-.43-12.55-.03-18.74,1.33-11.84,2.65-23.72,3.54-35.59-.09.91-.16,1.83-.23,2.75-.04.31-.54.23-.5-.07.17-1.35.07-2.82.52-4.11.77-.36.7,1.08.72,1.54-.31,6.45-1.36,12.86-1.78,19.31-.87,10.38-2.68,20.74-2.17,31.19.15,2.79,1.22,5.29,2.09,7.89.22.77.27,1.57.21,2.36,0,.16-.14.27-.29.27s-.29-.12-.29-.27Z"/><path d="m174.14,332.62c-2.01-1.1-3.3-3.07-4.66-4.85-2.05-2.64-4.2-5.22-6.08-8-3.86-6.14-8.04-12.3-10.37-19.22-1.3-4.22-1.71-8.62-2.62-12.93-1.14-6.46-3.18-12.66-4.87-18.98-.18-.78-.18-3.68.56-2.61-.2.58-.15,1.22-.14,1.81,1.52,6.91,4.21,13.61,5.41,20.64,1.17,6.13,2.09,12.48,5.32,17.94,4.92,8.78,10.56,17.23,17.35,24.65.39.4,1.32.64.95,1.34-.11.19-.33.29-.54.29-.11,0-.22-.03-.31-.08Z"/><path d="m182.74,337.31c-.79-.5-1.72-.9-2.22-1.74-.35-.75-.81-1.49-.96-2.3-1.56-.83-2.62-2.27-3.84-3.48-2.75-2.51-5.58-4.94-7.93-7.86-2.84-3.35-4.8-7.32-7.07-11.06-2.62-4.11-4.34-8.68-5.99-13.24-1.79-5.32-4.73-10.17-6.66-15.41-.06-.29-.11-.67.16-.86.3-.2.67.21.3.41h0c1.31,4.65,4.21,8.77,5.76,13.37,1.92,4.81,3.55,9.78,6.33,14.18,2.52,3.95,4.62,8.21,7.66,11.8,2.48,3.08,5.52,5.54,8.37,8.23,1.09,1.09,1.97,2.39,3.3,3.21.39.2.3.66.43,1,.26.59.45,1.16.7,1.74.43.75,1.2,1.17,1.91,1.61.23.13.09.45-.12.45-.04,0-.08-.01-.13-.04Z"/><path d="m196.97,342.09c-1.75-1.14-3.51-2.29-5.01-3.74-.07-.08-.07-.21,0-.29.2-.22.43.03.64.08.2,0,.48-.02.65-.11-.05-.22-.1-.52-.21-.7-.66-.92-1.55-1.62-2.71-1.64-3-1.95-5.23-5-8.11-7.18-3.01-2.47-6.15-4.79-8.73-7.75-2.93-3.14-6.33-5.83-8.98-9.22-3.25-4.32-5.38-9.32-7.7-14.16-.77-1.47-1.95-2.71-2.17-4.45-.53-1.69-1.33-3.38-.94-5.2.14-.33.57-.12.54.21.39,3.75,1.56,7.81,4.63,10.2.1.09.09.25,0,.33-.48.22-.84-.56-1.23-.78,2.54,5.09,4.88,10.41,8.74,14.67,3.63,3.62,7.55,6.95,11.17,10.6,4.19,3.33,8.41,6.64,12.12,10.51.38.36.7.75,1.11,1.02.72.07,1.43.36,1.98.85,1.05.77,2.19,3.23.21,3.27,1.34,1.16,2.82,2.14,4.31,3.1.21.15.04.42-.16.42-.05,0-.1-.01-.14-.05Z"/><path d="m164.67,316.38c-3.59-6.05-4.82-13.09-7.44-19.54-.71-1.61-1.33-3.25-2.78-4.3-3.1-3.16-3.82-7.92-3.8-12.18-4.16,5.61-2.83-14.65-3.04-16.31-.05.93-.03,9.26-1.84,7.08-.39-2.09-.14-4.3-.21-6.43.27-3.78-.52-7.41-.84-11.15-.47-8.7-1.33-17.39-1.74-26.09-.17,1.69,0,3.37.21,5.05.04.3-.45.36-.5.06-.19-2.16-.67-4.56.16-6.61.95-.75.61,4.18.8,4.8.61,8.71,1.12,17.43,1.91,26.13-.07-2.95.21-5.93-.16-8.86-.21-2.45-.27-4.91-.28-7.37.16-.6.73-.07.75.34.55,4.91,0,9.87,1.23,14.71.08-.48-.09-1.07.24-1.46.16-.2.5-.12.54.13.82,7.6.06,15.3.62,22.93.45,4.58,1.64,4,2.17-.1.05-2.04.12-4.08.42-6.09.02-.17.18-.28.34-.28.18,0,.34.14.35.32,0,1.96-.14,3.92-.37,5.87-.27,5.63,0,12.13,4.64,16.02,3.3,5.24,4.18,11.62,6.47,17.31.77,1.97,1.68,3.89,2.7,5.75.11.22-.11.41-.32.41-.1,0-.19-.04-.24-.15Zm-18.42-54.25c.04,2.78-.07,5.56.1,8.34.69-3.18.62-6.46.66-9.69-.08.3-.45.58-.76.46v.89Zm.23-1.48v.02c.66-2.3.14-4.73-.25-7.04.16,2.31-.33,4.79.25,7.02Z"/><path d="m184.61,336.23c-.09-.04-.17-.07-.23-.15-.34-.91-.42-1.99-.91-2.84-.65-1.42-1.85-1.33-3.09-1.24-.61.05-1.24.09-1.81-.04-3.04-.75-3.11-5.2-4.5-7.54-1.7-3.63-4.89-6.2-7.09-9.5-3.98-5.51-7.16-11.53-10.13-17.63-.05.23-.42.24-.48,0-.57-1.91-1.26-3.75-2.16-5.53-1.54-3.38-3.07-6.79-4.08-10.36-.04-.2-.06-.47.15-.59.52-.2.78.58,1.04.9,1.11,1.76,1.88,3.71,2.48,5.69,1.16,4.5,2.84,8.76,5.07,12.84,3.38,6.68,7.12,13.31,12.2,18.87,1.59,1.72,3.07,3.57,3.96,5.77.89,1.87,1.29,4.06,2.55,5.7.81.85,2.06.68,3.12.59,2.14-.52,3.77,1.21,4.16,3.19.54-.04.4.59.4.94,0,.35-.06.95-.46.95-.06,0-.12-.01-.19-.04Zm-31.46-48.05c.27.62.54,1.25.81,1.87.1.22.2.45.3.67-.93-3.11-1.75-6.32-3.57-9.06.69,2.22,1.55,4.39,2.46,6.52Z"/><path d="m186.44,337.27c-8.5-3.23-19-4.43-20.12-15.46-.07-.58-.11-2.72.82-1.55.93,1.34,1.82,2.68,2.92,3.89.65.73,1.32,1.45,1.99,2.17.09.1.06.25-.04.33-.11.08-.26.05-.35-.04-1.78-1.84-3.43-3.79-4.83-5.94.12,11.4,10.87,12.99,19.5,15.79.04-.21.06-.43.1-.66.05-.41.73-.37.72.05-.04.51.03,1.43-.69,1.43h0Z"/><path d="m203.26,347.02c-6.2-1-15.34-11.25-20.24-15.59-.3-.14-.41-.65.05-.6.16.04.31.04.46.03.06,0,.12,0,.18,0,.41.04.26.55-.1.47,4.3,4.11,8.54,8.3,13.28,11.89,2.55,1.84,5.94,4.71,9.07,2.52.13-.08.32-.03.4.1.09.14.03.3-.11.38-.8.49-1.72.82-2.66.82-.11,0-.22,0-.33-.01Z"/><path d="m205.09,351.94c-2.73-1.05-4.89-3.04-7.2-4.76-3.57-2.63-7.14-5.23-10.68-7.89-2.51-1.62-4.84-4.27-7.9-4.66-.22.09-.36-.07-.36-.22,0-.12.09-.25.3-.24,1.72-.04,3.18,1.15,4.55,2.04,2.71,1.91,5.34,3.95,8.02,5.91,4.54,3.02,8.54,7.04,13.5,9.34.29.11.16.51-.1.51-.04,0-.08,0-.12-.03Z"/><path d="m185.53,122.82c3.72-3.12,8.14-5.74,12.49-8.06.28-.11.5.31.2.43-1.18.46-2.19,1.22-3.29,1.84-2.91,1.79-5.95,3.45-8.51,5.71-.15.1-.44.31-.65.31-.11,0-.21-.06-.24-.23Z"/><path d="m183.61,135.42c-.09-.09-.1-.25,0-.33,3.39-2.95,6.73-5.98,10.54-8.41,3.82-2.56,7.61-5.16,11.88-6.93,6.75-3.21,14.1-4.86,21.16-7.24,5.19-1.56,10.6-2.22,15.78-3.82,3.73-.99,7.44-2.05,11.23-2.73,3.65-.49,7.34-.53,11.03-.59.1.02.2.04.3.04,2.12.09,4.23.17,6.35.27-.51.02-1.01.03-1.52.05-1.91.06-3.81.12-5.71.11-3.22.07-6.48.14-9.67.48-5.21.83-10.23,2.45-15.34,3.75-6.06,1.36-12.14,2.61-18.01,4.68-5.57,1.68-11.2,3.31-16.42,5.9-5.79,2.69-11.04,6.44-16.1,10.31-1.72,1.45-3.43,2.98-5.16,4.46-.05.04-.12.07-.18.07s-.12-.02-.18-.07Z"/><path d="m353.47,273.12c-.04-.15.06-.27.2-.32.96-.29,1.89-.68,2.77-1.18,3.2-1.73,5.02-5,7.06-7.89,1.83-3.02,4.33-5.48,6.64-8.1,1.86-2.32,3.43-4.83,5.39-7.07,3.84-4.05,6.43-9.16,8.74-14.19,1.43-3.66,1.93-7.52,2.96-11.28,1.22-4.7,4.18-8.87,4.5-13.8.41-4.22-.83-8.36-1.08-12.53-.45-6.55.22-13.1.09-19.64.09-3.1-1.23-5.61-2.72-8.2-.85-1.85-1.33-3.82-2.25-5.63-1.57-2.61-3.51-5.01-5.03-7.64-1.48-2.25-3.64-3.84-5.63-5.61.07-.1.14-.21.21-.32.02-.04.04-.07.06-.11.73.68,1.48,1.34,2.28,1.96,2.38,1.88,4.01,4.42,5.55,6.98,1,1.52,2.21,2.88,3.06,4.5.98,1.89,1.46,4,2.39,5.91.74,1.48,1.75,2.8,2.14,4.43.86,3.39.57,6.98.45,10.45-.16,3.66-.11,7.32-.09,10.98.96,12.22,3.16,13.96-2.61,26.05-1.61,4.59-2.03,9.54-3.89,14.06-1.71,3.88-3.91,7.56-6.23,11.11-1.68,2.12-3.63,4-5.14,6.25-2.16,3.43-5.21,6.16-7.65,9.34-3.11,4.25-5.61,9.65-10.97,11.4-.26.05-.61.27-.89.27-.13,0-.24-.05-.32-.18Z"/><path d="m287.87,111.6c-.12,0-.23-.11-.23-.23,0-.14.12-.23.25-.23.78-.03,1.55-.08,2.33-.12.72.14,1.44.27,2.16.41-1.5,0-3,.12-4.5.17h-.02Z"/><path d="m169.8,238.27c-1.48-.69-2.54-1.9-3.14-3.41-.88-1.73-1.92-3.38-3.23-4.8-2.55-2.53-5.63-5.01-6.87-8.48-1.58-8.02.5-16.3-.91-24.37-.25-3.9-.46-7.83.02-11.71.49-4.53,1.85-8.87,2.92-13.26.38-3.11-.21-6.34,1.02-9.31,1.02-2.39,1.93-4.84,3.16-7.12,2.22-3.62,4.99-6.89,7.56-10.26,4.19-4.98,8.53-10.09,14.04-13.64,5.88-3.34,19.63-13.54,25.9-10.29-.14.25-.47.16-.76.07-.16-.05-.3-.09-.41-.09-1.8-.29-3.6-.12-5.3.45-7.39,2.52-13.92,7.02-20.48,11.16-2.17,1.46-4.13,3.21-5.84,5.18-2.99,2.99-5.84,6.08-8.35,9.5-1.95,2.61-4.06,5.12-5.77,7.91-1.4,2.59-2.53,5.38-3.55,8.14-1.07,3.93,0,8.14-1.65,11.99-2.49,8.04-2.69,16.55-1.57,24.84.89,7.23-1.38,14.91,1.08,21.89,2.12,3.56,5.75,5.84,8.05,9.23,1.25,1.55,1.68,3.69,3.16,5.04.43.34.82.56,1.26.82.14.09.21.27.12.42-.06.1-.17.15-.28.15-.06,0-.11-.01-.16-.04Z"/><path d="m187.67,137.03c-.84.02-1.63-.61-1.32-1.5-.09.09-.23.11-.33.03-.1-.07-.14-.23-.05-.33.64-.72,1.48-1.23,2.35-1.64.26-.16.54.25.25.4-.11.05-.23.11-.34.16,1.79.3,1.15,2.88-.42,2.88-.05,0-.1,0-.15,0Zm.51-2.41c-.71-.2-1.17.35-1.34.98-.25.65.32.97.9.96h-.04c1.06.11,1.64-1.7.47-1.95Z"/><path d="m175.71,145.74c-.13-.04-.2-.16-.18-.29.12-.81.71-1.46,1.4-1.87.49-1.04,1.54-1.57,2.48-2.11.26-.16.54.25.25.41-.69.41-1.42.74-1.91,1.35,1.43-.46,2.66.72.95,1.57-.61.31-1.81.39-1.97-.48-.39.33-.62.76-.71,1.25-.02.11-.14.17-.24.17-.02,0-.04,0-.06,0Zm1.62-1.83c-.3.49.16.68.59.63.44-.05.92-.25,1.12-.65-.06-.22-.29-.29-.56-.29-.41,0-.94.18-1.15.31Z"/><path d="m174.92,156.25c-1.54-.2-1.09-2.11-.17-2.8.8-.64,2.16-.43,2.85.29.61.61.39,1.72-.38,2.07-.76.32-2.04.3-2.53-.45-.2-.39.39-.66.47-.21-.01.1.1.14.17.18.59.22,1.38.34,1.88-.09.03-.03.05-.06.07-.09.02-.03.04-.06.04-.06.6-1.1-.91-1.71-1.78-1.52-.73.15-1.61,1.57-.88,2.1.14.06.25.09.39.12.29.08.19.46-.06.46-.02,0-.05,0-.07-.01Z"/><path d="m180.8,151.72c-2.28-.34-.05-4.35,1.54-3.99.66.11.74.82.79,1.36.02.13-.09.25-.21.27-.44,0-.26-.63-.39-.89-.84-1.16-2.4,1.6-2.19,2.4.73,1.15,3.2-.22,3.73-1.09-.7-.07-1.35.32-1.96.59-.12.06-.27.04-.34-.08-.16-.38.45-.43.67-.59.61-.23,1.63-.75,2.12-.11.09.14.02.36-.07.45-.73.99-2.02,1.71-3.27,1.71-.13,0-.27,0-.4-.03Z"/><path d="m169.98,168.51c-1.38-.65-1.34-1.88-.49-2.98-1.09.47-3.22.82-3.55-.73-.11-1.52.76-2.96,2.03-3.75.11-.08.27-.06.35.04.09.1.06.25-.05.33-.42.32-.85.61-1.14,1.03-.52.8-1.35,2.7.07,2.96,1.05.2,2.05-.24,2.95-.72.3-.25.69-.94,1.13-.61.1.08.14.23.04.33-.87.71-1.99,1.59-1.94,2.83.12.41.5.66.85.86.24.13.09.44-.13.44-.04,0-.08-.01-.12-.04Z"/><path d="m179.5,162.08c.69-1.11,1.93-1.42,3.15-1.11.13.02.23.13.21.27-.12.28-.46.21-.78.14-.18-.04-.36-.07-.48-.05-.91-.05-1.55.74-1.95,1.43-.12.32-.47.88-.1,1.13,1.05.72,5.21-2.82,3.15-3.35-2.15-.31-4.1,1.38-5.11,3.11-.2.24-.19.86-.62.75-.12-.05-.18-.19-.13-.31.62-1.52,1.81-2.77,3.27-3.52,1.03-.65,3.87-1.08,3.65.8-.62,1.51-2.22,2.95-3.88,3.08-1.48-.07-.99-1.58-.38-2.37Z"/><path d="m170.24,184.64c-1.25.01-2.81-.61-2.76-2.08-.02-1.98.94-4.31,3.28-3.96.13,0,.25.1.25.23-.07.29-.46.27-.83.26-.23,0-.45-.01-.59.05-1.34.5-1.84,2.79-1.48,4.04.52,1.16,3.07,1.27,3.96.6-.18-.29.32-.52.45-.21.3.94-1.29,1.07-2.07,1.07-.07,0-.14,0-.2,0Z"/><path d="m171.07,202.85c-1.81-.36-4.2-1.91-3.19-4.02.3-.62.89-1.06,1.48-1.39.13-.07.31-.03.39.09.08.13.03.3-.1.37-.53.3-1.11.7-1.32,1.28-.74,2.04,2,3.14,3.62,3.25.63.03,1.23-.08,1.82-.25.15-.04.32.04.36.2.04.15-.06.3-.21.34-.57.16-1.16.26-1.75.26-.37,0-.74-.04-1.11-.12Z"/><path d="m179.33,191.53c-1.2-.08-2.56-.69-2.61-2.05-.04-1.42.8-3.97,2.44-4.12.55.02.75.59.72,1.06,0,.23.11.63-.23.64-.48-.08-.14-.81-.34-1.11-.18-.25-.55-.03-.72.12-.98,1.04-1.86,2.9-1.05,4.24.45.57,1.2.68,1.87.77.31.04.26.47-.02.47-.02,0-.03,0-.05,0Z"/><path d="m182.69,182.98c-.26-.34.39-.6.52-.83.6-.61.96-1.36,1.12-2.18.23-1.73.18-4.66-2.09-4.79-.15-.05-.37-.03-.6,0-.39.03-.81.07-.9-.24,0-.14.12-.23.25-.23,1.49-.15,3.22.22,3.62,1.88.66,2.22.38,4.91-1.57,6.4-.05.04-.11.07-.18.07s-.13-.02-.18-.07Z"/><path d="m168.41,211.94c-1.39-.48-1.64-2.21-1.37-3.48.09-.61.41-1.16.77-1.66.08-.11.25-.12.35-.04.13.09.11.28.02.37-1.08,1.23-1.18,4.64,1.08,4.39.86-.22,1.41-.99,1.92-1.66.07-.11.24-.12.35-.06.11.06.18.23.09.34-.39.55-.83,1.08-1.38,1.47-.37.27-.81.43-1.26.43-.19,0-.38-.03-.57-.09Z"/><path d="m162.21,194.84c-2.6-.43-.88-1.28.25-2.22.1-.08.27-.06.35.04.09.11.06.25-.04.33-.47.38-.95.75-1.4,1.14.31.23,1.11.08,1.13.52-.02.11-.13.2-.24.2-.01,0-.03,0-.04,0Z"/><path d="m213.77,125.32c-.7-.7,1.97-2.47,2.43-3.1.47-.55.92-1.34,1.75-1.38.17-.33.34-1.26.79-1.16.42.29-.26.84-.29,1.21,1.16.34-.54,1.57-.6.43-.25.07-.43.2-.61.37-.82,1.13-1.96,1.97-2.91,2.98-.22.16-.17.65-.47.65-.03,0-.07,0-.11-.02Z"/><path d="m207.68,132.5c-.12-.05-.19-.19-.13-.31.2-.43.39-.87.64-1.28,0-.16.09-.3.26-.3.51.07.11.66-.03.89-.24.28-.25,1.01-.67,1.01-.02,0-.04,0-.07,0Z"/><path d="m205.6,135.89c0-.15.14-.26.28-.26s.28.11.28.26-.14.26-.28.26-.28-.11-.28-.26Z"/><path d="m204.65,138.6c-.36-.18.08-.75.16-1.03.24-.28.4-1.03.86-.9.37.33-.33.79-.41,1.13-.18.23-.16.81-.5.81-.03,0-.06,0-.1-.01Z"/><path d="m198.4,146.24c-.11-.07-.13-.23-.05-.33.37-.44.75-.9,1.07-1.36.36-.54.77-1.05,1.19-1.54.09-.11.24-.12.35-.04.32.39-.55.88-.7,1.23-.48.68-.97,1.37-1.52,2-.05.06-.12.09-.2.09-.05,0-.11-.02-.15-.05Z"/><path d="m192.78,157.5c-.12-.03-.21-.16-.17-.29.25-1.11.73-2.14,1.21-3.17.84-2.43,2.37-4.48,3.62-6.7.07-.16.2-.39.42-.3.11.05.2.19.13.31-.68,1.41-1.67,2.68-2.45,4.02-.85,1.97-1.89,3.89-2.45,5.97-.03.11-.13.17-.24.17-.02,0-.05,0-.07,0Z"/><path d="m189.42,166.88c-.47-.22.2-.99.29-1.33.12-.27.59-.11.46.18-.27.32-.27,1.14-.74,1.14h0Z"/><path d="m185.9,177.17c-.13-.03-.2-.16-.18-.29.12-.52.2-1.04.34-1.55.16-.59.32-1.17.5-1.75.04-.13.18-.2.31-.16.12.03.21.16.17.29-.21.71-.42,1.41-.59,2.1-.18.38,0,1.36-.54,1.36,0,0,0,0-.01,0Z"/><path d="m182.21,197.36c-.13-.02-.23-.13-.21-.26.29-2.32.71-4.64.93-6.97.03-1.2-.35-2.33-.21-3.53-.09-.41,1.11-4.73,1.43-3.16-.36,1.05-.85,2.05-.93,3.16-.12,1.41.35,2.79.19,4.2-.38,2.11-.58,4.25-.91,6.36-.01.12-.13.2-.24.2-.01,0-.02,0-.04,0Z"/><path d="m176.93,219.61c-.24-1.09.04-2.17.31-3.23.05-.19.27-.29.45-.24.19.05.3.23.26.42-.26.99-.53,1.98-.45,3.01,0,.18-.14.27-.29.27-.13,0-.26-.07-.28-.23Z"/><path d="m179.8,230.88c-.44-1.55-.7-3.14-1.38-4.61-.06-.43-.74-1.21-.34-1.53.12-.05.28,0,.33.12.59,1.63,1.39,3.19,1.59,4.92,0,.37.51,1.01.14,1.21-.03.01-.06.02-.1.02-.1,0-.2-.05-.23-.14Z"/><path d="m191.86,254.2c-.74-.65-1.25-1.53-1.95-2.23-.2-.25.21-.52.39-.29.69.68,1.18,1.55,1.91,2.19.18.17,0,.4-.19.4-.06,0-.12-.02-.17-.07Z"/><path d="m195.85,257.26c0-.13.12-.23.25-.23s.25.1.25.23-.12.23-.25.23-.25-.1-.25-.23Z"/><path d="m201.32,261.69c-1.3-.76-2.66-1.57-3.6-2.75-.09-.1-.06-.25.04-.33.11-.08.27-.06.35.04.91,1.14,2.22,1.9,3.45,2.63.24.13.09.44-.13.44-.04,0-.08-.01-.12-.03Z"/><path d="m376.76,180.99c-.1,0-.21,0-.31,0-3.79-1.25-5.75-4.97-8.72-7.36-8.9-8.62-15.69-19.37-25.63-26.91-2.62-2.07-5.17-4.26-7.97-6.09-2.27-1.36-4.63-2.35-6.99-3.48-3.3-1.88-6.55-3.89-9.81-5.85-6.4-3.78-13.15-6.98-19.97-9.91-6.68-3.23-13.57-6.16-21-7.02-1.95-.49-3.75-.92-5.73-1.01-.25-.02-.45-.24-.45-.49.09-1.24,4.51.01,5.34.17,7.26,1.11,14.23,3.38,20.7,6.86,7.67,3.26,15.2,6.85,22.3,11.19,5.3,3.4,10.08,5.87,15.67,8.66,3.84,2.43,7.21,5.49,10.79,8.28,9.14,7.74,15.57,18.12,24.25,26.32,2.05,1.68,3.34,4.16,5.75,5.39.6.33,1.13.81,1.82.79-.05-1.48.05-3.04-.2-4.5-.07-.36-.36-.58-.52-.89-1.01-2.02-2.45-3.71-3.88-5.44-2.75-3.73-5.78-7.17-8.75-10.72-4.02-4.52-8.45-8.62-13.09-12.49-2.96-2.48-5.41-5.56-8.64-7.72-6.36-4.02-12.67-8.09-19.34-11.55-7.31-3.55-14.91-6.5-22.57-9.24-6.56-1.97-13.67-3.43-20.23-4.38,0-.13.12-.24.25-.23,2.27.02,4.52.42,6.73.88,4.5.96,9,1.97,13.41,3.29,7.29,2.63,14.56,5.41,21.59,8.69,7.05,3.43,13.61,7.76,20.27,11.86,2.95,1.9,5.25,4.57,7.83,6.9,4.4,3.71,8.7,7.51,12.65,11.71,4.98,5.66,10.04,11.37,14.19,17.66,1.42,1.8.66,3.89.8,6.02.26.05.53.39.21.57-.16.05-.32.06-.49.06-.1,0-.2,0-.3,0Z"/><path d="m379.04,156.39c-2.93-3.94-7.2-6.53-10.41-10.15-1.96-1.24-3.69-2.81-5.35-4.4-3.37-2.14-6.59-4.49-10-6.52-2.6-1.62-5.18-3.08-7.55-5-1.54-.95-3.3-1.42-4.88-2.3-1.43-.82-2.74-1.98-4.24-2.62-3.98-1.66-7.84-3.58-11.74-5.39-15.39-6.96-31.73-12.16-48.59-13.78-7.07-.07-14.19-.5-21.22.36-4.72.63-9.52.66-14.14,1.84-3.04.3-5.9,1.27-8.8,2.12-2.07.53-4.25.69-6.28,1.34-3.66,1.59-7.41,3.04-10.94,4.86-.59.34-1.2.65-1.85.85-.12.04-.27,0-.32-.12-.05-.12,0-.26.13-.3,4.4-2.05,8.79-4.18,13.34-5.88,2.09-.57,4.23-.72,6.3-1.35,2.09-.63,4.1-1.5,6.28-1.82,6.52-1.52,13.13-2.07,19.77-2.89,6.93-.18,13.94-.53,20.86.2,19.3,2.26,37.46,9.56,54.88,17.84,3.18,1.01,5.71,3.2,8.69,4.59,3.55,1.21,6.31,3.99,9.55,5.75,2.85,1.66,5.57,3.54,8.29,5.41,1.77,1.04,3.52,2.11,4.89,3.66,1.07,1.12,2.45,1.88,3.67,2.82.95.79,1.62,1.88,2.6,2.62,1.3.86,9.82,8.36,7.62,8.36-.14,0-.31-.03-.53-.09Z"/><path d="m184.35,234.63c-2.37-3.46-5.22-6.57-9.02-8.45-5-2.55,1.93-6.82,3.63-9.34.57-.58,3.38-3.98,1.05-3.41-4.22.91-8.55,3.93-12.95,2.5-1.05-.37-1.25-1.68-.64-2.53,2.8-4.13,7.02-7.09,10.42-10.7.52-.64,1.37-1.12,1.53-1.96-.78.25-20.59,11.39-15.78,6.07,2.83-2.81,5.82-5.45,8.64-8.28,1.27-1.3,2.73-2.46,3.3-4.23-.18-.13-.42-.11-.61-.05-2.65.68-5.18,2.07-7.91,2.32-2.41-.16,1.05-2.5,1.62-3.16,3.52-3.31,7.56-6.21,10.68-9.9.1-.22.1-.43.12-.66-3.3.18-6.39,1.86-9.68,2.26-.46.06-1.08.2-1.41-.24-.17-.22-.18-.53.02-.73,1.09-1.2,2.31-2.24,3.51-3.33,4.34-3.84,8.9-7.44,13.18-11.34,1.26-1.15,2.45-2.37,3.37-3.78.13-.23.27-.57.02-.76-.49-.46-1.16.14-1.7.21-4.79,1.75-9.17,4.4-13.8,6.5-1.36.46-2.93,1.48-4.35.72-.12-.04-.2-.19-.14-.3.69-1.46,2.19-2.31,3.3-3.43,2.36-2.03,4.81-3.95,7.27-5.85,4.31-3.32,8.76-6.48,13.08-9.79,1.01-.88,2.46-1.46,2.96-2.75-5.47,1.63-10.41,4.72-15.52,7.21-3.61,1.66-7.06,4.01-10.95,4.91-.9.19-1.1-.08-.48-.86,11.93-9.11,24.63-17.22,37.11-25.52-8.89,3.39-17.31,7.86-25.98,11.74-28.33,12.73,19.95-14.88,23.57-17.45-4.52,2.18-9.06,4.3-13.62,6.37-2.08.86-4.12,1.89-6.34,2.35-.22.04-.49.03-.68-.11-.15-.14-.35-.41-.14-.58,1.21-.92,2.57-1.62,3.86-2.43,6.74-4.05,13.6-7.92,20.66-11.39-3.48,1.44-6.99,2.83-10.39,4.44-.93.45-1.87.86-2.79,1.33-.11.05-.25.04-.32-.06-.09-.11-.05-.29.09-.35,2.5-1.28,5.03-2.53,7.59-3.69,4.88-2.2,9.75-4.4,14.71-6.39.27-.11.5.27.22.42-11.09,6.01-22.54,11.45-33.12,18.34,2.86-.45,5.48-1.97,8.14-3.07,5-2.18,9.83-4.76,14.83-6.89,1.07.19-.91,1.07-1.15,1.31-11.05,6.94-22.43,13.38-33.27,20.62,11.24-3.85,21.52-10.19,32.62-14.45.61-.14,2.9-1.46,2.12,0-12.42,8.6-25.46,16.55-37.41,25.85,2.96-.55,5.53-2.32,8.25-3.53,5.76-2.86,11.38-6.12,17.41-8.4.4-.07,1.69-.59,1.6.06-.17.52-.37,1.02-.79,1.39-4.18,3.37-8.59,6.45-12.88,9.69-4.39,3.51-9.31,6.67-12.99,10.91,1.38.49,3.16-.68,4.46-1.16,3.91-1.88,7.72-3.96,11.72-5.66,1.02-.32,2.06-.95,3.13-.9,1.27.47.67,1.59.02,2.33-5.75,6.73-13.58,11.44-19.63,17.87.2.31.69.22,1.14.12.22-.05.43-.09.59-.09,2.9-.61,5.7-1.75,8.62-2.2.29.06.88-.05.89.34.01.82-.39,1.5-.98,2.04-3.87,3.98-8.56,7.26-12.28,11.31.61.2,1.22-.01,1.81-.19,2.24-.62,4.39-1.56,6.64-2.11,4.53.15-10.89,12.46-11.79,14.06,5.29-1.49,10-4.57,14.88-7.05.42-.23.87-.42,1.33-.54.14-.04.32.07.32.23.02.45-.08.85-.36,1.2-1.79,2.07-3.86,3.85-5.83,5.73-1.33,1.48-6.91,5.82-5.96,7.76,2.53,1.9,6.75-.13,9.43-.93,1.35-.48,2.68-.96,4.07-1.28.25-.07.56-.07.78.09,1.91,1.5-4.13,6.54-5.15,7.93-4.05,4.06-.49,4.37,2.66,6.55,1.99,1.29,3.58,3.08,4.98,4.97.46.61.92,1.21,1.38,1.82.11.14.09.33-.06.44-.06.04-.13.07-.21.07-.1,0-.2-.04-.26-.12Z"/><path d="m355.96,23.02c-1.2-3.68-3.8-7.05-7.48-8.48-4.73-1.96-9.62-3.52-14.27-5.7-4.59-2.19-9.53-3.39-14.47-4.46-3.29-.77-6.55-1.81-9.95-2.03-5.04-.29-10.09-.05-15.15.2-3.69.18-7.38.36-11.06.33-2.34.08-4.69.05-7.05.02-4.02-.05-8.04-.11-12,.39-.72.13-1.43.28-2.14.43-.13.03-.27-.03-.31-.16-.04-.12.05-.26.18-.29,2.04-.46,4.1-.79,6.19-.8,4.39-.04,8.78-.01,13.17-.03,4.14.06,8.27-.14,12.41-.33,5.25-.25,10.51-.5,15.77-.22,2.73.2,5.4.86,8.04,1.55,5.85,1.36,11.77,2.59,17.2,5.25,3.44,1.55,6.97,2.9,10.53,4.17,4.14,1.33,8.04,3.63,9.93,7.72.41.73.67,1.54.95,2.32.04.18-.11.29-.25.29-.1,0-.19-.05-.23-.17Z"/><path d="m22.27,152.83c1.39-9.92,4.59-19.51,9.89-28.03,5.09-8.48,11.24-16.22,17.76-23.63,2.71-2.92,5.09-6.11,7.79-9.04,3.18-3.29,6.63-6.34,9.75-9.68,10.03-12.4,23.88-20.73,36.48-30.23,10.79-7.51,22.66-13.34,34.32-19.35,15.32-8.79,31.9-14.94,48.84-19.77,8.46-2.46,17-4.57,25.59-6.48,8.73-2.22,17.44-4.9,26.49-5.34,5.85-.27,11.68-.91,17.51-1.2,5.16-.26,10.32.34,15.46.5,2.13.02,4.27.02,6.4.02,9.12,0,18.28,0,27.24,1.9,6.93,1.17,13.62,3.26,20.34,5.21,5.01,1.2,10.21,1.97,14.71,4.63.12.06.16.21.09.32-.07.12-.23.15-.34.09-2.33-1.29-4.8-2.28-7.38-2.94-5.3-1.12-10.54-2.48-15.7-4.16-8.66-2.27-17.52-4.14-26.49-4.42-4.23-.15-8.47-.13-12.71-.12-2.32.01-4.64.02-6.96,0-5.11-.25-10.21-.68-15.32-.4-7.58.71-15.21.94-22.77,1.86-6.81,1.02-13.38,2.97-20.03,4.69-19.07,4.27-37.94,9.62-56.02,17.08-5.79,2.39-11.22,5.49-16.73,8.45-10.4,5.22-20.7,10.73-30.7,16.66-11.21,7.75-22.39,15.7-32.82,24.47-2.65,2.39-5.15,4.95-7.39,7.73-3.1,3.64-6.71,6.79-10.08,10.18-12.35,14.09-25.53,28.31-32.39,46.04-2.07,6.38-3.45,13.03-4.5,19.72-.19.47-.37.94-.54,1.41-.54,1.55-1.08,3.11-1.6,4.66.52-3.62,1.11-7.23,1.79-10.83Z"/><path d="m102.62,409.53c-.51-.16-.51-.86-1.01-1.02-1.12-.16-2.25-.09-3.38-.01-.94.06-1.88.12-2.81.05-2.53-.1-4.64-1.82-6.83-2.88-3.04-1.5-6.27-2.58-9.28-4.14-5.92-2.95-10.42-7.97-15.98-11.49-2.34-1.62-4.71-3.2-6.83-5.11-3.78-3.55-6.53-8.01-9.74-12.05-4.5-6.16-9.58-11.86-14-18.07-9.56-13.09-18.86-26.8-23.8-42.39-6.46-24.34-5.62-50.02-3.91-74.94.34-3.38.83-6.75,1.36-10.11-.17,2.84-.29,5.69-.4,8.54-.12,3.42-.17,6.84-.34,10.25-.1,1.92-.23,3.84-.28,5.77-.09,3.01-.28,6.09.31,9.06.32,1.65.86,3.31,1.7,4.79-.03,2.5-.04,5.01-.04,7.51.22,16.93,1.34,34.53,8.63,50.05,7.41,15.99,17.89,30.11,28.46,44.09,5.37,6.7,9.57,14.64,16.68,19.71,5.25,3.53,10.05,7.72,15.03,11.57,3.22,2.21,6.84,3.7,10.4,5.28,3.05,1.11,5.59,3.65,8.84,4.07.95.13,1.93.05,2.9-.03,1.28-.11,2.55-.21,3.74.18.29.15.43.5.59.76.53.28,1.18.18,1.83.09.39-.05.77-.11,1.12-.09.31-.02.39.44.07.47-.75.01-1.53.18-2.29.18-.26,0-.51-.02-.76-.07Z"/><path d="m16.31,178.42c-.35,1.36-.68,2.72-1.01,4.08-.79,3.28-1.53,6.57-2.2,9.88-.11.56-.23,1.12-.34,1.68-.48,1.31-.94,2.62-1.38,3.95-.23.71-.5,1.43-.7,2.16-.23.89-.47,1.79-.71,2.68,1.07-9.09,2.85-21.79,6.34-24.44Z"/><path d="m83.1,396.17c-1.61-1.8-3.28-3.55-5.02-5.23.14.03.29.04.43.04.22,0,.44-.03.64-.1,2.99,3.12,5.58,6.66,9.02,9.25,2.75,1.78,6.1,1.87,9.25,1.79.32,0,.32.47,0,.47-.66,0-1.32.01-1.98,0-.27.02-.53.02-.79.02-4.68,0-8.66-2.66-11.56-6.24Z"/><path d="m60.03,373.26c.27.1.54.17.83.21.14.02.28.03.42.03.11,0,.21,0,.32-.02.29.24.56.48.84.73,2.16,2.52,4.38,4.98,6.7,7.35.27.59.54,1.18.8,1.77-.03-.07-.06-.13-.09-.19.14.32.29.64.43.96-3.68-3.34-6.97-7.09-10.25-10.85Z"/><path d="m43.58,349.58c-.4-.59-.77-1.2-1.15-1.8,0-.01-.02-.02-.02-.03.61.93,1.21,1.87,1.82,2.8-.21-.32-.43-.64-.64-.96Z"/><path d="m25.66,326.57c-.35-.88-.7-1.76-1.05-2.64l.08.25c-.4-1.18-.79-2.36-1.19-3.54-.31-.92-.54-1.87-.8-2.8-.14-.52-.29-1.04-.42-1.55.81,1.54,1.63,3.07,2.48,4.57.09.34.18.69.27,1.03.59,2.22,1.36,4.4,2.23,6.52.2.48.41.97.61,1.46-.75-1.09-1.49-2.19-2.22-3.3Z"/><path d="m10.5,301.73c-2.93-5.57-3.59-11.93-5.22-17.93-1.12-4.16-2.72-8.22-3.43-12.5-.86-8.1-.96-16.28-1.53-24.41-.13-4.88-.1-9.74-.14-14.62-.05-6.21-.54-12.49.37-18.67,1.34-9.34,3.83-18.42,6.17-27.55,1.23-6.18,3.55-12.05,4.86-18.2,1.24-4.94,3.33-9.58,4.61-14.51,2.34-7.69,4.45-15.87,9.46-22.32,2.21-2.52,3.66-5.62,5.93-8.11,2.29-2.51,5.27-4.46,7.21-7.26,2.31-2.79,9.38-15.18,12.73-11.15.34.71-.08,1.59-.8,1.86-1,.4-1.75,1.18-2.5,1.94-2.94,3.4-5.14,7.38-8.03,10.83-1.96,2.43-4.68,4.12-6.57,6.59-1.34,1.66-2.41,3.5-3.59,5.27-1.21,1.75-2.7,3.29-3.7,5.19-3.83,7.29-5.81,15.32-8.24,23.14-1.58,4.42-3.03,8.87-3.95,13.48-1.7,5.89-3.3,11.81-4.58,17.8-2.08,7.52-3.77,15.13-4.96,22.84-.95,6.04-.42,12.18-.39,18.27.03,4.82-.05,9.66,0,14.48.43,8.34.45,16.73,1.16,25.05.78,4.62,2.51,9.02,3.48,13.59.98,4.41,1.6,8.98,3.13,13.23,1.11,3.04,2.95,5.7,4.7,8.39.16.25.33.5.49.75.02.27.05.54.07.81.08.96.26,1.92.39,2.87.1.74.2,1.47.34,2.21.04.21.08.43.12.64-2.3-4.14-5.26-7.89-7.59-12.01Z"/><path d="m209.85,243.17c-4.12-10.48-.9-11.31,6.9-13.34l1.73-.45c2.38-.5,4.8-1.4,6.28-3.49.34-.5.67-1.14.45-1.76-.37-.95-1.22-1.57-1.71-2.45-.87-1.52-1.31-3.29-2.25-4.77-.95-1.63-2.31-2.92-3.36-4.46-1.41-2.06-2.41-4.42-3.11-6.83-.81-2.29-.52-4.73-.64-7.1-.13-2.28-1.09-4.49-.85-6.79.8-3.83,4-6.48,6.7-8.87,2.04-1.8,4.67-2.95,6.21-5.31.17-.31.4-.59.39-.94-.15-.25-.38-.39-.52-.64-.74-1.07-.82-2.46-.69-3.71.45-4.51,3.22-8.12,6.22-11.06,1.4-1.38,2.67-3.13,4.75-3.27,2.53-.79,5.16-.94,7.81-.89,2.76-.02,5.74.16,8.03,2.1,1.93,1.76,4.31,2.72,6.45,4.1.65.52,1.42.61,2.18.56,1.37,0,2.71-.41,4.04-.83,1.72-.54,3.44-1.08,5.21-.68,1.2.47,2.34,1.32,3.64,1.35,2.3.23,4.1-.98,5.92-2.2,1.32-.88,2.64-1.77,4.18-2.11.57-.2,1.16-.32,1.77-.4.12-.02.25.08.27.21,0,.27-.27.3-.52.31-.11,0-.21.01-.27.04-1.88.24-3.49,1.28-5.09,2.32-2.11,1.37-4.19,2.73-6.83,2.24-1.32-.16-2.41-1.14-3.67-1.43-1.55-.06-3.03.39-4.53.83-1.7.51-3.41,1.02-5.2.79-1.24-.23-2.16-1.29-3.32-1.76-2.22-.92-3.96-2.74-6.01-3.93-1.99-1.03-4.22-1.02-6.35-1.03-3.1-.17-6.07.4-9.03,1.19-3.64,3.03-7.33,6.63-8.77,11.44-.52,2-.95,4.56.7,6.15.15.22.13.5.03.72-.45,1.12-1.3,1.98-2.15,2.76-3.29,2.51-6.8,4.82-9.31,8.27-1.59,1.93-2.21,4.2-1.55,6.75.78,2.67.62,5.43.73,8.16.38,3.11,1.67,6.14,3.27,8.79,1.2,1.84,2.83,3.33,3.88,5.28.95,1.6,1.34,3.54,2.46,5.02,2.74,2.61.89,4.58-1.46,6.22-1.94,1.07-4.09,1.6-6.25,2.12-1.63.4-3.27.79-4.81,1.43-2.88.83-3.9,3.27-3.07,6.3.4,1.69,1.05,3.28,1.55,4.93.04.15-.06.26-.18.29s-.25-.01-.28-.17Z"/><path d="m303.98,264.45c-.36-.26.34-.92.41-1.26,1.28-3.11.57-6.84-.8-9.81-1.58-3.47-7.13-4.94-6.58-9.28.84-3.7,7.02-6.89,10.44-7.89,3.43-.92,7.04-1.39,10.31-2.78,1.95-1.07,3.64-2.59,5.08-4.27,1.15-1.4,1.89-3.06,2.9-4.56.96-1.67,2.73-3.87,1.37-5.71-1.97-2.09-4.5-3.64-6.92-5.17-1.21-.77-2.76-1.38-3.34-2.79-.42-1.5.63-2.94,1.31-4.21,2.43-4.21,6.22-7.44,10.41-9.82,4.14-2.16,8.74-3.43,12.57-6.19.65-.45,1.4-.9,1.67-1.66.65-5.8-1.79-12.23-6.3-15.96-3.29-1.53-7.16-.17-10.51.56-1.28.25-2.77,1.05-4.02.38-.32-.39-.11-.98-.17-1.45.02-.12.14-.22.27-.21.21.02.25.23.22.4.07.3-.21.98.27,1,1.68.15,3.27-.68,4.91-.99,3.12-.56,6.9-1.73,9.74.22,2.51,2.18,4.15,5.33,5.3,8.41.63,1.98.84,4.05.9,6.12.02.71.05,1.46-.34,2.09-2.07,2.29-5.17,3.55-7.91,4.89-6.18,2.27-12.22,5.67-15.87,11.32-.85,1.5-2.36,3.17-1.98,4.98.75,1.49,2.5,2.01,3.8,2.92,1.67,1.02,3.24,2.18,4.77,3.38.86.67,1.77,1.38,2.1,2.46.48,2.18-1.24,4.12-2.25,5.91-1.75,3.31-4.15,6.29-7.43,8.17-4.89,2.4-10.84,1.98-15.45,5.1-2.12,1.4-4.84,2.8-5.4,5.5-.33,1.78,1.11,3.29,2.31,4.41,1.66,1.36,3.43,2.78,4.39,4.77,1.38,3.22,2.09,7.27.39,10.49-.13.21-.22.54-.46.54-.04,0-.08,0-.13-.03Z"/><path d="m240.07,249.39c-4.66.51-11.63-1.09-12.11-6.33-.13-2.54,1.19-4.92,2.47-7.11,1.41-2.23,2.78-4.67,5.01-6.25,2.9-1.71,3.39-.26,3.96,2.24.29,1.12.78,2.17,1.23,3.21.08.18-.04.4-.23.48s-.43.02-.51-.17c-.89-1.76-1.31-3.7-1.96-5.54-1.69-.96-3.83,1.98-4.75,3.15-2.26,3.54-6.1,8.21-3.64,12.27,2.46,2.79,6.79,3.76,10.55,3.32.46-.03.48.55.14.69-.05.02-.1.03-.16.03Z"/><path d="m238.74,217.21c-.2-3.53.5-6.8,1.44-9.85.58-1.95,1.11-4.27,2.33-5.17,3.43-1.97,8.48-3.43,10.88,2.63,2.37,6.86,3.23,12.31-2.54,12.29-.75-.03-1.48-.3-2.2-.66-.12-.06-.21-.29-.17-.52.04-.23.18-.35.3-.29.63.33,1.27.55,1.89.62,1.36-.04,3.65,0,4.06-2.82-.3-4.94-1.91-10.82-4.88-11.81-2.55-.4-5.48-.41-7.71,1.97-1.65,3.58-3.12,8.91-2.88,13.6,0,.27-.13.41-.25.41s-.25-.13-.25-.41Z"/><path d="m249.04,268.73c-.08-.15-.01-.32.12-.4,2.47-1.32,4.69-2.92,6.81-4.72,2.89-2.86,9.3-7.95,8.28-12.45-.72-1.21-2.22-1.44-3.36-2.13-1.71-.89-2.8-2.56-3.85-4.12-3.2-3.92-5.2-10.67.16-13.59,5.23-3.62,12.56-4.78,15.88-10.69,1.84-2.99,2.65-6.5,3.39-9.91.6-2.63,1-5.91-1.32-7.85-1.56-1.31-3.65-1.29-5.52-1.73-4.97-.7-8.64-3.63-9.18-8.87-.55-2.67.83-5.58,3.3-6.69,1.99-.71,4.1-1.7,6.25-1.48,2.06.75.72,4.89.27,6.45-.1.38-.69.21-.58-.15.42-1.53,1.01-3.06.72-4.66-.02-1.93-2.36-.85-3.47-.65-4.29.89-7.04,3.68-5.65,8.27.61,4.05,4.1,6.49,7.88,7.08,4.35.65,8.63,1.57,8.36,7.05-.52,4.74-1.66,9.63-4.12,13.73-3.67,6.15-11.51,7.13-16.86,11.28-3,2.22-2.38,6.74-.61,9.61,1.45,2.11,2.65,4.58,4.74,6.09,1.43,1.04,3.71,1.23,4.31,3.15.41,5.39-6.71,10.97-10.44,14.17-1.59,1.28-3.33,2.37-5.12,3.34-.14.05-.3,0-.38-.12Z"/><path d="m281.31,245.71c-.42-.17.04-.72.04-1.04.49-2.04-.21-4.24-1.38-5.91-1.07-1.67-3.46-3.1-2.95-5.34.49-1.72,2.22-2.56,3.7-3.29,2.57-1.32,5.4-2.11,7.77-3.77,8.07-5.04,2.86-16.1-2.55-21.18-.12.98-.01,2-.05,2.99,0,.14-.12.23-.25.23s-.25-.1-.25-.23c.14-.73-.5-4.14.82-3.39,3.56,3.51,6.56,8.15,6.88,13.26,1.03,11.39-13.55,10.09-15.62,15.64-.18,2.21,2.27,3.46,3.21,5.26,1.21,1.94,1.74,4.41.94,6.61-.03.11-.14.17-.25.17-.02,0-.04,0-.06,0Z"/><path d="m362.18,242.57c-.15-.1-.3-.19-.42-.25-5.51-3.34-16.01-14.47-15.53-18.98.29-1.4,1.41-1.41,3.25-.52,10.15,4.75,13.39,7.45,16.88-.29.67-1.37,1.96-2.48,2.3-4,.03-.4-.26-.89-.62-1.27-2.09-1.94-4.65-3.49-6.88-5.32-2.76-2.21-5.07-4.73-7.21-7.26-5.31-6.03-4.58-9.31,1.81-10.97,5.04-1.13,11.83-.19,17.63,3.3,2.67,1.64,3.25,1.84,1.97,3.62-.17.28-.85-.12-.71-.4.13-.5.87-.9.53-1.44-2.29-1.74-4.96-2.98-7.6-3.85-6.62-1.93-14.25-1.54-16.42,2.76-.57,2.43,2.24,5.4,4.24,7.87,3.16,3.86,7.41,7.14,11.73,10.25,2.03,1.43,2.88,3,1.77,4.28-1.81,2.24-2.59,5.15-4.78,7.11-3.93,2.84-10.83-2.63-16.01-4.37-.3-.08-.55-.09-.7.05-1.6,1.89,1.18,5.17,2.83,7.56,2.69,3.45,5.68,6.86,9.39,9.82,1.07.81,2.18,1.58,3.38,2.21.19.1.3.29.24.41-.16.16-.44.06-.73-.1-.11-.06-.23-.14-.34-.21Z"/><path d="m274.2,153.09c-5.37-.79-4.32-2.06-6.88-4.95-.66-.73-1.64-1.35-1.87-2.23-.31-1.63-.28-3.31-1.01-4.9-3.89-8.1-11.97-9.31-21.56-7.53-6.63.7-13.49,1.32-20.27.3-1.77-.26-8.29-1.29-7.94-2.9.03-.1.17-.14.3-.11.22.05.21.22.15.34.9,1.12,3.47,1.51,5.02,1.9,5.68,1.15,11.51,1.07,17.18.64,6.06-.33,11.99-2.14,18.18-.63,6.64,1.81,10.32,7.48,10.36,12.47.29,1.6,2.56,2.66,3.26,4.27.89,2.75,4.93,3,7.93,3.31,5.08.57,10.22.51,14.99-.65.87-.23.87-.87.76-1.5-.28-3.82.52-5.68,4.99-7.43,1.29-.55,2.81-.73,4.16-1.16.64-.29.85-.89.85-1.43-.67-1.13-2.23-1.84-3.65-2.34-.31-.21-5.2-1.28-3.54-1.45,2.35.81,5.04,1.23,6.86,2.77,1.22.82.98,2.15-.22,2.75-3.85.95-9.14,2.36-8.91,6.12-.27,1.1.29,2.58-.25,3.51-.45.49-1.32.62-2.05.76-5.02,1.01-10.32.9-15.55.23-.43-.05-.86-.11-1.29-.18Z"/><path d="m188.04,203.48c-.39.01-.79-.03-1.18-.08-.31-.09-.33-.61.02-.6,4.26.16,12.96-2.6,12.88-9.09-.05-5.03-4.54-12.85-1.82-16.93,2.39-3.5,4.36-.86,7.25.17,1.38.14,2.67-.47,3.93-.92,2.4-1.31,8.79-4.9,7.95-9.01-1.88-4.87-6.8-6.44-8.92-11.11-2.37-6.56,2.99-14.1,8.31-10.87,1.67,1.28,3.58.73,5.29,1.75,1,.63,1.87,1.61,2.75,2.5.11.11.13.31.04.43-.09.12-.25.13-.36.01-.77-.77-1.53-1.6-2.37-2.22-1.36-1-2.87-.67-4.29-1.25-5.31-3.91-10.55,1.5-9.2,8.61,1.77,5.35,7.55,6.77,9.27,12.23.69,4.49-5.54,7.98-8.18,9.45-1.47.54-3.04,1.34-4.65.9-1.91-.68-4.16-3.11-5.81-.96-3.18,2.89-.05,9.19.66,13.29,2.94,8.86-4.45,12.34-10.07,13.46-.52.1-1.01.19-1.49.25Z"/><path d="m413.8,312.11c-.02-.14.09-.24.21-.26,3.59-.59,7.16-1.24,10.75-1.79,7.52-1.43,15.26-1.7,22.58.82.31.07.18.54-.13.45-6.28-2.07-12.87-2.39-19.35-1.27-4.09.59-8.16,1.31-12.24,2-.52.09-1.05.18-1.57.26-.12,0-.23-.09-.24-.2Z"/><path d="m416.31,340.42c-.07-.11-.03-.26.09-.32.84-.43,1.7-.85,2.54-1.29,4.96-2.86,10.93-5.2,14.04-10.25,1.55-2.93.54-6.67-1.17-9.3-4.02-5.44-13.25-2.28-18.36-.09-1.41.68-7.1,3.36-4.91,5.21.57.44,1.23.68,1.86,1.02.11.06.16.21.09.32-.07.12-.23.14-.34.09-6.99-2.68,2.03-6.69,5.11-7.92,4.77-1.65,10.98-3.55,15.51-.44,3.41,2.91,4.83,8.88,1.89,12.56-2.69,3.43-6.7,5.43-10.4,7.58-1.84,1.02-3.71,1.98-5.6,2.92-.04.02-.09.03-.13.03-.08,0-.16-.04-.21-.11Z"/><path d="m383.71,354.3c-.13-.02-.23-.13-.21-.27.02-.13.16-.22.28-.2,1.78.32,3.61.4,5.4.47,6.11.07,12.76-.18,17.78-4.08,1.45-1,2.99-2.23,3.4-4.02.84-5.91-10.27-8.18-13.62-11.94-1.81-1.52-1.59-4.53,1.28-3.11.38.19.74.41,1.11.59.12.06.16.21.09.32-.07.12-.22.14-.34.08-.78-.34-1.59-1.06-2.47-.85-2.42,3.09,10.07,7.66,11.96,9.78,6.6,5.13-.97,10.32-6.09,12.19-3.85,1.36-7.96,1.49-12,1.51-2.19-.02-4.4-.1-6.57-.48Z"/><path d="m284.25,388.01c-.32-.01-.65-.02-.96-.02-13.82-1.03-26.91-6.04-40.06-10.05-.29-.11-.1-.55.2-.43,13.52,4.06,27,9.41,41.25,10.04-5.48-1.04-11.92-.8-16.33-4.62-2.3-3.07.62-5.24,3.18-6.7,4.4-2.66,9.17-5.15,14.45-5.15,5.56-.23,11.02,1.04,16.56,1.16,3.18-.13,6.01,1.62,9.1,1.9,3.04.1,6.03-.61,9.02-1.03,4.21-.16,8.44-.15,12.67-.14,3.15,0,6.3,0,9.46-.05.13.03.64.02,1.29.02,1.71-.02,4.4-.04,3.64.66-.58.23-1.25.27-1.77.61-.7.93,1.76,1.02,2.31,1.16,2.43.33,4.86.69,7.28,1.1,8.59,1.56,18.25,3.47,26.25-1.11,1.33-.74,2.77-2.45,1.4-3.82-2.46-1.49-5.5-1.77-7.82-3.57-2.05-1.34-3.89-2.96-5.72-4.58-1.18-1.05-2.34-2.24-2.82-3.78-.56-2.21,2.12-3.47,3.78-4.23,4.68-1.75,9.71-2.84,14.71-2.94.14.02.3,0,.47,0,.35-.03.7-.06.8.24,0,.13-.12.23-.25.23-1.52-.02-3.03,0-4.53.21-4.24.86-11.88,1.54-14.45,5.28-.59,2.75,3.34,5.05,5.04,6.74,2.84,2.62,6.3,4.22,9.94,5.38.54.26,1.14.51,1.5,1.02.41.61.51,1.41.27,2.1-.58,1.36-1.97,2.12-3.22,2.77-5.77,2.7-12.51,2.69-18.69,1.69-4.24-.72-8.46-1.5-12.72-2.08-1.16-.19-2.36-.23-3.46-.66-.34-.15-.71-.44-.74-.84-.02-.63.68-.89,1.18-1.04-5.32-.11-10.65-.06-15.98-.02-2.98.02-5.97.05-8.95.05-3.3.32-6.56,1.24-9.89,1.11-2.17-.04-4.09-1.19-6.18-1.58-2.24-.42-4.51-.33-6.77-.53-5.73-.59-11.64-1.72-17.33-.32-2.42.49-4.54,1.66-6.69,2.8-2.05,1.2-4.3,2.18-5.91,3.95-.91.84-.9,2.11-.35,3.13,2.64,3.93,11.84,4.14,16.29,5,.41.17,2.42.03,1.7.81-.43.1-.88.13-1.34.13-.26,0-.53,0-.79-.02Z"/><path d="m289.57,393c-2.36-.63-4.65-1.74-7.11-1.82-10.12-.37-20.29-.06-30.38-.87-9.15-.41-17.64-4-26.31-6.51-2.61-.78-10.24-2.2-5.06-5.57,2.5-1.39,5.38-1.75,8.11-2.42.31-.08.44.36.13.45-1.81.45-11.45,2.01-9.04,4.93,2.6,1.6,5.77,1.93,8.63,2.91,4.75,1.47,9.35,3.27,14.21,4.34,4.51,1.13,9.18,1.41,13.81,1.69,0,0,0,0,0,0,9.03.54,18.09.11,27.1.7,1.93.23,3.75,1.05,5.59,1.6,2.51.62,5.09.75,7.65.82,7.94.25,15.82-1.05,23.75-1.44,7.62-.51,15.58-.63,22.66-3.79,1.83-.88,3.64-1.77,5.43-2.71.12-.06.27-.03.34.09.07.11.03.26-.09.32-.89.46-1.77.91-2.67,1.37-7.05,3.94-15.2,4.62-23.11,5.04-7.64.33-15.19,1.39-22.82,1.63-3.62-.03-7.27,0-10.82-.76Z"/><path d="m256.54,390.13h0s0,0,0,0c0,0,0,0,0,0Z"/><path d="m377.12,372.21c-.02-.13.09-.25.21-.27,3.58-.29,7.19-.55,10.73-1.15,2.74-.52,5.5-.97,8.17-1.78.89-.27,1.77-.54,2.66-.82.12-.04.27.04.31.16.04.14-.05.25-.18.29-3.52,1.2-7.19,1.95-10.83,2.6-3.58.61-7.2.87-10.8,1.16,0,0-.02,0-.03,0-.12,0-.24-.07-.25-.2Z"/><path d="m418.67,350.22c-.12-.05-.19-.19-.13-.31.7-1.89,2.03-3.72,1.95-5.8-1.4-8.87,7.76-14.32,14.14-18.49,4.45-3.23,7.8-7.95,9.26-13.25.07-.13.23-.18.36-.11,1.43.89,3.14,1.02,4.75,1.36,1.79.34,3.92.11,3.11,2.7-.51,1.82-1.92,3.19-3.02,4.68-.7.89-1.4,1.78-2.1,2.66-.08.1-.24.12-.35.04-.11-.07-.13-.22-.05-.33.56-.7,1.11-1.4,1.66-2.1,1.31-1.95,3.77-3.88,3.43-6.39-.12-.19-.27-.34-.48-.43-2.33-.45-4.8-.56-6.95-1.62-1.5,5.37-5.02,10.1-9.55,13.32-3.11,2.11-6.46,3.86-8.99,6.68-3.09,2.86-5.57,6.73-4.74,11.09.2,2.23-1.24,4.17-1.98,6.18-.04.09-.14.14-.24.14-.03,0-.06,0-.09-.02Z"/><path d="m347.32,392.58c10.71-5.16,23.05-8.26,34.72-11.41.29-.08.46.37.13.45-6.9,1.91-13.89,3.55-20.66,5.89-4.67,1.6-9.25,3.44-13.86,5.18-.03.01-.07.02-.1.02-.09,0-.19-.05-.23-.14Z"/><path d="m260.94,387.31c-3.77-2.59-7.95-4.46-11.82-6.84-6.13-4.8-12.59-9.17-18.99-13.58-2.91-1.94-6.42-2.06-9.79-2.08-2.15-.04-4.3.02-6.45.09-1.86.05-3.72.11-5.58.1,2.53,1.99,4.79,4.2,7.63,5.78,3.38,1.27,7.2,1.4,10.71,2.33,3.68,1.05,7.56,1.96,10.94,3.68.39,1.53-4.77-.16-5.54-.32-4.75-1.47-9.72-2.28-14.29-4.27-2.87-1.28-6.17-1.2-9.21-1.96-3.97-.7-7.9-1.58-11.81-2.53-2.7-.89-5.91-1.42-7.96-3.52-1.05-1.76,2.05-2.54,3.3-2.17,4.81,1.41,9.83,2.56,14.88,2.52-9.6-8.35-15.04-5.03-10.61-20.13-2.16,1.05-3.86,3.34-5.82,4.84-2.15,2.04-4.7,3.64-6.87,5.63.11.2.33.27.52.39.29.16,0,.57-.25.4-.12-.07-.25-.14-.38-.22-1.05-.69.36-1.45.91-1.92,2.65-1.94,5.16-4.07,7.59-6.28,1.25-1.09,2.41-2.28,3.77-3.21.3-.19,1.01-.18,1.06.25-.83,4.25-3.69,10.54,1.07,13.41,3.45,2.01,6.7,4.32,9.79,6.85,1.98,0,3.97-.04,5.95-.1,2.68-.07,5.36-.15,8.04-.06,3.93-.12,7.74,1.04,10.77,3.57,6.1,4.07,12,8.43,17.88,12.79,3.68,1.93,7.34,3.88,10.82,6.18.23.13.09.44-.12.44-.04,0-.09-.01-.13-.04Zm-32.77-12.43c2.83.69,5.61,1.84,8.54,2.03.08,0,.17,0,.25,0-5.95-2.43-12.2-3.87-18.5-4.93,3.13,1.35,6.46,1.99,9.72,2.91Zm-38.29-10.32c6.98,3.62,15.09,4.32,22.69,5.91.57.1,1.14.19,1.72.29l.96.16c-2.84-1.67-5.14-3.93-7.71-5.93-5.52.19-10.91-1.3-16.19-2.62-.01,0-.03,0-.04,0-1.42,0-3.36.97-1.43,2.18Z"/><path d="m428.35,338.08c-.45-.59,12.36-3.76,10.3-2.3-3.41.52-6.73,1.33-9.99,2.46-.02,0-.04.01-.07.01-.11,0-.21-.07-.24-.17Z"/><path d="m247.96,469.64c.02-.31.13-.67.35-1.08.1-.11.19-.22.27-.34.02,0,.04,0,.06,0-.08.29-.11.59-.09.9.01.24.06.47.14.7-.24-.06-.49-.12-.73-.19Z"/><path d="m271.01,470.04c1.74-.18,3.47-.38,5.19-.71.82-.16,1.66-.33,2.48-.55,1.03.05,2.07.11,3.1.17-3.69.52-7.39,1.05-11.09,1.52.15-.12.25-.27.32-.43Z"/><path d="m328,464.14c-9.94-.1-19.87,1.75-29.77,2.7-1.28.13-2.55.28-3.83.43-.45-.06-.89-.12-1.34-.17-1.05-.13-2.1-.25-3.15-.37,9.06-1.13,18.14-2.12,27.23-3.1,2.32-.23,4.7-.44,7.02-.51.45,0,.92-.04,1.4-.09,1.45-.13,2.97-.26,4.03.8,6.58-1.29,13.22-2.44,19.91-2.97.29.03.74,0,1.24-.04,1.52-.11,3.41-.21,2.11,1.51,10.53-1.82,21.17-2.78,31.81-3.65-3.68.64-7.38,1.24-11.07,1.86-1.84.31-3.69.57-5.54.84-1.82.27-3.63.53-5.45.8-1.6.21-3.2.43-4.8.66-4.02.52-8.05,1.05-12.08,1.54-3,.36-6.01.71-9.02,1.07,4.44-.98,8.86-2.02,13.19-3.35-6.75.48-13.43,1.66-20.06,2.94-1.9.68-3.82,1.3-5.76,1.88-2.3.26-4.6.52-6.89.79.21-.05.42-.11.63-.16-.29.06-.57.12-.86.19-3.4.39-6.8.77-10.2,1.16,7.05-1.73,14.15-3.29,21.26-4.74Z"/><path d="m251.62,466.12c.94-.48,1.92-.88,2.93-1.24-.1.2-.17.4-.21.62-.03.14-.04.27-.05.4-.88.07-1.76.14-2.64.22,0,0-.02,0-.03,0Z"/><path d="m245.52,462.68c-.19,0-.38.01-.58.02.11-.01.22-.02.33-.03,5.69-.39,11.53-1.83,17.2-1.14.18.04.34.2.48.36-.63.08-1.26.19-1.89.27-.36.05-.71.12-1.06.19-.47.09-.94.17-1.4.28-3.55.16-7.1.52-10.64.94-.66-.58-1.52-.92-2.43-.89Z"/><path d="m204.2,458.9c.44-.33.83-.7,1.17-1.1.44-.03,1.05-.09,1.78-.17-.02.34-.01.68.02,1.01-.63.04-1.27.06-1.88.24-.51.16-1.01.34-1.51.52-.03.01-.06.02-.1.04-.11.01-.21.03-.32.04.3-.18.58-.38.84-.58Z"/><path d="m193.82,460.03c-.42-.2-.84-.39-1.27-.58.46.09.92.17,1.38.25,1.25.21,2.5.46,3.76.6-.94.21-1.87.44-2.81.66-.26-.39-.63-.71-1.07-.92Z"/><path d="m206.56,455.32c.07-.4.11-.8.09-1.2.05,0,.09,0,.14,0,.48.12.85.41,1.09.81-.31.59-.53,1.23-.64,1.89-.54.33-1.22.6-1.73.81.52-.66.89-1.42,1.05-2.31Z"/><path d="m142.74,429.48c-.03-1.33-.97-2.27-2.97-2.97-.51-.83-1.18-1.54-1.98-2.01-.38-.22-.76-.43-1.14-.61.69.13,1.37.28,2.04.46,2.77.57,6.5,2.41,5.93,5.7-.63-.19-1.26-.38-1.89-.58Z"/><path d="m123.8,424.34c-5.42-.36-10.84-1.21-13.84-6.3-1.12-1.64-2.76-3.09-4.51-3.91-2.33-1.15-4.9-1.68-7.34-2.53-.47-.16-.72-.71-.57-1.18.17-.52.78-.84,1.31-.68,2.98.93,6.11,1.64,8.79,3.31,3.46,1.83,4.64,6.25,8.18,7.86,4.62,1.65,9.54,1.8,14.43,2.19-1.09.19-2.1.5-3.13.99-.28.14-.57.3-.85.48-.82-.07-1.65-.15-2.47-.23Z"/><path d="m370.09,467.09c7.54-1.13,15.06-2.46,22.56-3.84.97-.16,1.94-.34,2.9-.53-.05,0-.1.02-.14.02,1.33-.25,2.65-.5,3.98-.74,1.02-.19,2.04-.39,3.06-.6-.1.04-.21.08-.31.12-2.49.73-4.96,1.52-7.44,2.29-1.06.33-2.11.66-3.17.99-2.87.36-7.24.99-11.97,1.61-5.88.77-12.31,1.55-17.12,1.83,2.55-.38,5.1-.76,7.65-1.14Z"/><path d="m419.59,458.84c-.59-.21-1.23-.22-1.86-.25-.63-.03-1.26-.05-1.89,0,1.17-.26,2.33-.53,3.5-.79,3.87-.53,7.75-1.01,11.61-1.55-.13.05-.26.11-.38.16-1.01.42-2.02.85-3.02,1.27-.26.11-.53.22-.79.33-1,.14-2.01.28-3.01.42.62.03,1.27.02,1.91.01.03,0,.06,0,.1,0-.51.22-1.02.45-1.53.67-.33.15-.65.29-.98.44-.2,0-.39,0-.59,0-.63,0-1.27,0-1.9.02-.32-.34-.73-.57-1.17-.73Z"/><path d="m426.77,456.11c2.9-.74,5.79-1.48,8.69-2.22,1.84-.47,3.68-.91,5.51-1.42.35-.1.71-.2,1.06-.3,1.46-.15,2.92-.3,4.38-.44-.69.31-1.39.61-2.08.92-.34.15-.69.31-1.03.47-.24-.31-.61-.51-1.04-.47-.57.05-1.16.06-1.71.19-.47.1-.94.21-1.41.36-.8.25-1.61.52-2.39.82-1.12.43-2.24.85-3.36,1.28-3.04.44-6.07.91-9.1,1.41.83-.19,1.66-.38,2.48-.59Z"/><path d="m443.4,454.6c.46-.21.93-.43,1.4-.64.06-.03.11-.05.17-.08.66-.14,1.31-.28,1.97-.43-.46.06-.93.12-1.39.18,1.51-.67,3.02-1.34,4.53-2,.22-.1.44-.19.66-.29.37-.03.73-.06,1.1-.08-.74.32-1.47.67-2.2,1-1.48.68-2.96,1.39-4.4,2.16-.24.13-.48.26-.72.39-.02,0-.04.01-.05.02-.55.2-1.1.39-1.65.59.26-.23.43-.54.59-.83Z"/><path d="m478.19,451.22c.26-.02.51-.03.77-.04-.27.14-.55.28-.82.42.02-.12.04-.25.05-.38Z"/><path d="m460.98,450.94s.03,0,.05,0c-.01,0-.03.02-.04.02,0,0,0-.01,0-.02Z"/><path d="m447.94,450.5c.64-.18,1.29-.36,1.93-.54.39-.11.77-.21,1.16-.32h.01c.07,0,.13,0,.2-.01-.53.22-1.05.44-1.57.67-.28.12-.56.25-.85.37-.3-.04-.59-.09-.89-.16Z"/><path d="m453.65,450.13c1.3-.54,2.59-1.09,3.91-1.59.08-.03.16-.06.23-.09.69-.07,1.38-.14,2.06-.21-.77.34-1.54.68-2.31,1.01-.14.02-.28.04-.41.07-.53.12-1.04.27-1.55.45-.66.23-1.31.47-1.95.73-.03,0-.06,0-.09,0-.35.03-.7.06-1.05.1.39-.16.77-.32,1.16-.48Z"/><path d="m459.96,449.6c1.28-.58,2.55-1.17,3.82-1.76,1.07-.11,2.14-.22,3.21-.33,0,0,0,0-.01,0-.44.27-.89.53-1.33.78-.45.1-.9.21-1.34.33-.92.24-1.84.49-2.77.73-.46.12-.91.25-1.37.38-.07-.05-.13-.1-.21-.15Z"/><path d="m477.76,449.25c-.14-.24-.31-.46-.5-.64.1-.06.2-.12.31-.18,1.93-.26,3.86-.5,5.79-.73-1.79.15-3.57.31-5.36.47.61-.36,1.22-.71,1.83-1.07.07-.04.14-.08.21-.12,2.81-.24,5.62-.47,8.43-.66-.82.42-1.63.84-2.45,1.26l-1.91.97c-1.04.13-2.07.26-3.1.4-1.06.13-2.12.27-3.18.41-.02-.04-.04-.08-.07-.12Z"/><path d="m462.63,446.62s-.05.02-.08.03c.78-.29,1.58-.56,2.37-.84.18-.02.36-.05.54-.08-.32.14-.64.29-.95.43-.78.36-1.57.71-2.36,1.06-.65.1-1.29.2-1.94.31.8-.3,1.61-.61,2.41-.91Z"/><path d="m469.64,445.11c4.11-.61,8.22-1.22,12.33-1.81-1.23.72-2.46,1.44-3.69,2.15-2.49.2-4.98.41-7.46.67-.62-.09-1.27-.04-1.86.2-.86.1-1.72.2-2.59.31,1.09-.51,2.18-1.01,3.26-1.52Z"/><path d="m473.43,447.59c.46-.04.91-.09,1.37-.13-.1.06-.2.11-.3.17-.34,0-.66.01-1,.05-.02-.03-.05-.06-.07-.09Z"/><path d="m472.7,446.9c1.28-.14,2.57-.29,3.85-.44-.54.31-1.09.63-1.63.94-.5.06-1,.12-1.49.18-.21-.25-.45-.48-.72-.68Z"/><path d="m482.08,445.78c2.66-.34,5.32-.71,7.97-1.11-2.27.14-4.54.28-6.82.43.58-.35,1.17-.69,1.75-1.04,1.46-.09,2.91-.17,4.36-.26.92,0,1.96-.06,2.65.61.02.01.04.03.05.05-.64.33-1.28.67-1.92,1-3.24.57-6.5.97-9.76,1.33.57-.34,1.15-.67,1.72-1.01Z"/><path d="m487.6,442.49c3.54-.51,7.09-1.02,10.63-1.53.24-.04.47-.08.71-.11-.68.35-1.36.71-2.03,1.06-3.68.53-7.37,1.08-11.05,1.62.58-.35,1.16-.7,1.73-1.05Z"/><path d="m512.3,438.95c.07.02.15.03.22.03-.35.19-.7.38-1.05.57-.2.05-.39.11-.59.16.47-.25.94-.5,1.42-.76Z"/><path d="m457.69,437.97c-.84-.95,2.32-1.07,2.86-1.34,5.81-1.24,11.68-2.21,17.58-2.97-.09-.01-.21,0-.32,0-.32.03-.67.06-.67-.32-.04-.6.72-.81,1.25-.89,5.73-1.2,11.49-2.22,17.27-3.12-.33.12-.65.25-.98.37-.49.19-.99.36-1.48.54-5.04.84-10.06,1.78-15.06,2.84,3.03-.16,6.06-.44,9.1-.78-1.17.41-2.35.82-3.52,1.22-8.27,1.05-16.5,2.34-24.62,4.23,4.62-.26,9.26-.51,13.9-.71-.99.32-1.99.64-2.98.96-2.26.1-4.51.2-6.75.3-1.05,0-2.32.35-3.48.35-.78,0-1.51-.16-2.09-.69Z"/><path d="m497.7,437.47c.08-.06.16-.11.24-.17.24-.17.47-.34.7-.51,2.44.08,4.88.2,7.32.36-.42.22-.83.44-1.25.66-2.33-.16-4.67-.27-7.01-.34Z"/><path d="m491.64,436.66c.37,0,.74,0,1.11,0-.13.11-.27.21-.4.32-.21.13-.43.27-.64.4-.71,0-1.43,0-2.14,0l2.07-.74Z"/><path d="m509.82,429.82c.85-.06,1.71-.11,2.56-.14.15.5-.64.58-.97.71-1.45.17-2.91.34-4.37.5.93-.36,1.86-.71,2.78-1.07Z"/><path d="m499.54,425.89c-.05-.14,0-.29.14-.36,2.39-1.26,5.04-1.85,7.59-2.67,1.33-.38,2.66-.75,3.99-1.12-.29.24-.57.47-.86.71-3.47.97-6.89,2.05-10.19,3.46.01.02.02.05.03.07.04.05.07.11.11.17,1.03.15,2.07.22,3.12.23-.39.14-.77.29-1.15.43-.15.05-.3.11-.45.17-.11,0-.21,0-.32,0-.86,0-1.8-.12-2.01-1.1Z"/><path d="m518.71,420.15s0,0,0,0c0,0,0,0,0,0,0,0,0,0,0,0,.18-.21.37-.42.56-.63.67-.19,1.34-.38,2.01-.57-.38.29-.77.57-1.15.85-.49.14-.99.28-1.48.41.02-.03.05-.05.07-.08Z"/><path d="m520.97,425.99c.48-.06.95-.11,1.43-.16-.18.19-.36.38-.54.57-.35.04-.71.08-1.06.12.09-.17.14-.34.17-.52Z"/><path d="m520.96,425.32c.23-.1.47-.19.7-.29.55-.05,1.09-.09,1.64-.14-.2.21-.39.41-.59.62-.57.05-1.14.1-1.7.15,0-.12-.02-.23-.04-.35Z"/><path d="m528.58,425.03c.11-.12.23-.24.35-.36.05-.05.1-.11.15-.17.05-.02.11-.04.16-.06.18-.01.35-.03.53-.03-.39.21-.77.42-1.16.62h-.03Z"/><path d="m512.28,419.53c-.15,0-.28-.15-.23-.3.03-.36.36-.51.68-.58,1.06-.25,2.11-.51,3.17-.77-.15.12-.29.24-.44.37-.12.1-.24.21-.37.31-.69.17-1.38.34-2.07.51.54-.03,1.07-.07,1.6-.12-.21.18-.42.35-.63.53-.55.04-1.1.06-1.66.06h-.05Z"/><path d="m520.68,418.01c.82-.15,1.64-.3,2.47-.45-.28.21-.55.42-.83.62-.73.13-1.46.27-2.19.41.18-.2.37-.39.56-.59Z"/><path d="m526.71,417.04c.09-.02.18-.04.27-.06-.15.06-.29.12-.44.18.06-.04.11-.09.17-.13Z"/><path d="m521.63,416.99c.17-.18.33-.36.5-.54,1.15-.25,2.3-.49,3.46-.73-.3.22-.59.45-.89.67-1.05.22-2.09.44-3.13.67.02-.02.04-.05.06-.07Z"/><path d="m529.48,414.95c.98-.19,1.96-.37,2.94-.55-.12.15-.24.31-.36.46-.12.05-.24.1-.36.15-1.03.19-2.07.39-3.1.6.29-.22.58-.44.87-.65Z"/><path d="m531.98,414.9c-.09.04-.18.07-.26.11,0,0,0,0-.01,0,.09-.04.18-.07.27-.11Z"/><path d="m525.91,409.31c-.14.12-.27.23-.41.35-.17.15-.34.3-.52.44-3.73.92-7.53,1.76-10.95,3.39,1.17.4,2.47.22,3.67.19,1.12-.06,2.24-.13,3.36-.21-.2.17-.39.34-.59.51-1.66.09-3.33.18-4.99.23-6.06-.43,2.22-2.82,10.43-4.9Z"/><path d="m525.36,413.19c1.31-.08,2.62-.17,3.94-.25-.23.17-.47.35-.7.52-1.25.08-2.51.16-3.76.24.17-.17.35-.35.52-.52Z"/><path d="m532.36,412.78c.46-.02.91-.04,1.37-.07-.12.16-.25.32-.38.49-.56.03-1.11.06-1.67.09.23-.17.45-.34.68-.51Z"/><path d="m530.54,408.15c4.06-1,7.32-1.78,7.64-2.02-2.34.1-4.66.35-6.98.63-.04-.16-.12-.32-.24-.44,2.64-.33,5.29-.63,7.94-.63,0,0,.02,0,.03,0-.49.38-.99.77-1.49,1.15-2.51.73-5.04,1.34-7.57,1.98.23-.22.45-.44.67-.67Z"/><path d="m522.01,407.21c4.91-1.12,9.89-2.05,14.91-2.57.54-.03,1.25-.2,1.71,0,.58.33-.77.98-.78.4-2.53.19-5.04.56-7.53.99-.16-.01-.32.02-.47.08-1.52.27-3.04.57-4.56.86,1.31-.11,2.62-.27,3.94-.43-.24.18-.47.36-.71.55-2.14.26-4.29.5-6.44.63-.29,0-.3-.37-.08-.5Z"/><path d="m530.11,404.23c4.26-1.39,8.63-2.86,13.04-4.34-.18.27-.36.54-.54.81-2.73.91-5.46,1.81-8.2,2.67,2.25-.26,4.5-.49,6.76-.67-.12.17-.24.33-.36.5-3.2.26-6.39.6-9.58,1.05-.12,0-.26.04-.4.07-.14.04-.28.08-.4.08s-.24-.04-.32-.17Z"/><path d="m557.86,403.7c-2.28-1.09-4.87-1.01-7.41-.93-1.04.03-2.07.06-3.07.02-.26.01-.51.02-.77.04.16-.16.32-.32.48-.48.27,0,.53-.02.8-.03.93.04,1.89.01,2.86-.02,2.54-.07,5.12-.14,7.38.99.23.14.08.44-.13.44-.04,0-.09-.01-.13-.04Z"/><path d="m551.87,396.99c.73-.24,1.46-.48,2.19-.72.02.03.04.07.05.1.08.14.17.29.26.42-.89.29-1.78.58-2.67.87.14-.2.21-.44.18-.67Z"/><path d="m562.01,395.83c.25-.32.49-.65.72-.98.31.26.62.5.96.72-.16.36-.33.72-.5,1.08-.41-.24-.8-.52-1.18-.82Z"/><path d="m539.17,395.77c-.03-.28.19-.48.45-.53.74-.11,1.52-.24,2.25-.37,1.79-.33,3.57-.66,5.36-.98-.33.48-.65.96-.98,1.44-2.2.29-4.39.58-6.59.86-.24,0-.46-.17-.48-.41Z"/><path d="m552.33,393c.33-.05.67-.11,1-.16,0,.34.01.68.06,1.01.03.19.06.38.09.57-.75.09-1.5.18-2.25.27.37-.56.73-1.12,1.09-1.69Z"/><path d="m557.62,393.51c-.03-.27-.05-.55-.06-.82,0-.15,0-.31,0-.46.49-.06.97-.12,1.46-.18-.44-.9-.78-1.83-1.07-2.78.03-.14.06-.28.09-.42.19-.76.41-1.5.63-2.25.36,1.58.76,3.15,1.4,4.63-.29.44-.58.88-.89,1.31-.01.02-.03.04-.04.06,0-.01.02-.03.03-.04-.01.01-.02.03-.03.04-.34.46-.68.92-1.07,1.35,0,0,0,0,0,0-.12.01-.23.02-.35.03-.04-.15-.07-.31-.1-.46Z"/><path d="m558.92,385.84c.16-.47.35-.93.52-1.4.03-.09.07-.18.1-.26.83.35,1.73.3,2.64.24.41-.02.82-.05,1.23-.04.15,0,.39,0,.67,0-.37.69-.74,1.38-1.11,2.07-1.35-.29-2.67-.74-4.05-.62Z"/><path d="m551.08,385.88c-.04-.36.25-.68.61-.72.43-.04.86-.08,1.29-.12-.26.41-.52.81-.78,1.22-.03.05-.07.11-.1.16-.09,0-.17.02-.26.02-.02,0-.05,0-.07,0-.33,0-.64-.22-.68-.56Z"/><path d="m306.76,477.62c-.54-.82-1.09-1.64-1.65-2.45.29-.03.59-.07.88-.1.6.91,1.19,1.83,1.78,2.75-.33-.07-.67-.14-1-.2Z"/><path d="m299.94,476.31c-.01-.18-.02-.36-.03-.54.26-.03.52-.06.78-.09.02.27.04.53.06.79-.27-.05-.54-.11-.81-.17Z"/><path d="m389.4,487.92c-.29-.31-.57-.62-.85-.93.41-.05.82-.09,1.22-.14.09.1.18.2.28.29.32.29.62.61.92.94-.52-.06-1.05-.11-1.57-.16Z"/><path d="m394.52,488.46c-.2-.7-.42-1.39-.65-2.08.34-.04.68-.08,1.03-.12.24.76.47,1.53.68,2.31-.35-.03-.71-.07-1.06-.1Z"/><path d="m360.21,484.26c-.14-.02-.29-.04-.43-.06-.1-.56-.2-1.13-.29-1.69.29-.04.57-.09.86-.13.1.65.22,1.31.35,1.96-.16-.02-.33-.05-.49-.07Z"/><path d="m365.34,485.05c-.56-1.06-1.09-2.14-1.65-3.2.32-.05.64-.1.96-.15.6,1.18,1.19,2.37,1.82,3.53-.38-.06-.75-.12-1.13-.18Z"/><path d="m366.91,485.3c.46-4.89,3.67-3.48,6.61-.74-.44.05-.89.11-1.33.17-2.38-2-3.98-2.71-4.34.59-.14.02-.28.04-.42.06-.17-.03-.35-.05-.52-.08Z"/><path d="m373.15,480.44c.06,0,.13-.02.19-.03.28-.04.55-.07.83-.11.11,1.06.22,2.04.21,2.77.02.48.1.9.14,1.35-.33.04-.66.08-.99.13-.03-1.05-.24-2.54-.39-4.11Z"/><path d="m381.81,479.29c.42-.06.84-.11,1.26-.16,1.11,1.26,2.19,2.54,3.28,3.83-.4.05-.81.1-1.21.15-1.1-1.28-2.2-2.56-3.33-3.81Z"/><path d="m390.95,478.66c.31-.14.61-.29.92-.43.54,1.27,1.06,2.55,1.56,3.84-.35.05-.7.09-1.04.13-.46-1.19-.94-2.37-1.43-3.54Z"/><path d="m342.56,474.42c.04-.77-.2-1.88.59-2.32.78-.39,1.49.3,1.83.94,1.5,1.99,2.9,4.05,4.23,6.15-.28.05-.56.09-.84.14-1.46-2.25-3-4.44-4.62-6.55-.05,0-.1-.02-.15-.02-.02,0-.04.01-.07.02-.38,2.4.02,4.86.58,7.27-.25.04-.51.09-.76.13-.36-1.9-.64-3.82-.78-5.76Z"/><path d="m361.1,475.95c.32.39.62.79.91,1.21-.1.01-.19.03-.29.04-.25.04-.49.08-.74.11-.16-.22-.32-.44-.49-.65-.04,0-.07-.02-.11-.02-.05.26-.1.52-.14.79-.36.06-.73.11-1.09.17.14-1.52.69-2.32,1.95-1.64Z"/><path d="m374.58,473c.11-.05.5-.27.75-.3.58-.02,1.14.21,1.55.46.68.52,1.34,1.08,1.98,1.65-.4.05-.81.1-1.21.16-.66-.55-1.38-1.01-2.2-1.28-.62.36-.99.97-1.21,1.72-.35.05-.7.09-1.06.14.21-1.09.64-2,1.4-2.54Z"/><path d="m387.73,471.31c.12-.01.25-.03.37-.05-.01.14-.02.28-.01.42.02.45.18.85.39,1.24.02.04.04.07.05.11.1.2.22.38.36.55-.05,0-.1.01-.14.02-.34-.76-.68-1.53-1.02-2.29Z"/><path d="m384.85,464.66c.34-.06.68-.12,1.02-.18.25.61.5,1.22.76,1.83-.24.08-.47.16-.7.26-.08.03-.15.07-.23.11-.29-.67-.57-1.34-.85-2.02Z"/><path d="m397.5,488.73c-.35-.88-.69-1.77-1.03-2.65.32-.04.64-.07.96-.11.36.95.73,1.9,1.11,2.84-.35-.02-.7-.05-1.05-.08Z"/><path d="m399.47,488.87c-.46-1-.94-1.99-1.43-2.97.33-.04.65-.07.98-.11.5,1.04,1.01,2.08,1.49,3.14-.35-.02-.69-.03-1.04-.05Z"/><path d="m393.52,477.84c.51-.06,1.01-.12,1.51-.18.66,1.31,1.33,2.62,1.99,3.93-.35.05-.7.09-1.05.14-.17-.36-.34-.73-.51-1.09.11.31.21.61.32.92.02.06.04.12.07.18-.31.04-.61.08-.92.12-.48-1.34-.95-2.69-1.42-4.03Z"/><path d="m386.72,464.33c.36-.07.71-.13,1.07-.2.29.52.58,1.03.87,1.55-.06.02-.13.04-.19.06-.27.08-.53.17-.8.25-.31-.56-.63-1.11-.95-1.67Z"/><path d="m389.41,463.84c.29-.05.58-.11.87-.16.1.47.21.93.33,1.4-.3.09-.59.18-.89.28-.11-.5-.22-1.01-.31-1.52Z"/><path d="m450.3,476.85c.11-.02.21-.05.32-.07-.1.03-.2.06-.3.09l-.02-.02Z"/><path d="m410.41,481c.31-.05.61-.1.92-.15.03.04.06.07.09.11-.31.04-.62.09-.93.13-.03-.03-.05-.06-.07-.09Z"/><path d="m406.59,476.32c.35-.04.71-.08,1.06-.12.82,1.04,1.74,2.21,2.74,3.46-.1.02-.19.03-.29.05-.23.04-.45.07-.68.11-.95-1.16-1.89-2.33-2.83-3.49Z"/><path d="m395.34,462.75c.32-.06.65-.12.97-.18.17.19.34.37.51.56-.3.09-.61.19-.91.28-.19-.22-.38-.45-.57-.67Z"/><path d="m200.47,460.34c.26-.02.52-.05.79-.09.17.22.33.44.49.67-.15.19-.29.39-.42.6-.29-.4-.57-.79-.86-1.17Z"/><path d="m178.38,441.18c-1.1-1.09-2.36-2.02-3.84-2.7-3.28-.12-5.05-3.05-7.46-4.81-.42-.46-1.66-.52-1.37-1.29.14-.21.42-.27.64-.15,2.78,1.06,4.2,4.34,7.07,5.11,2.68.32,4.67,2.07,6.32,4.12-.45-.1-.91-.19-1.36-.29Z"/><path d="m422.07,475.33c.16-.07.32-.14.47-.2.1-.04.19-.08.29-.13.18.78.37,1.57.58,2.38-.25.05-.5.09-.75.14-.19-.69-.39-1.43-.58-2.19Z"/><path d="m431.89,473.37c.35-.04.7-.08,1.04-.12.09.11.17.21.26.32-.27.13-.55.26-.82.39-.16-.19-.32-.39-.48-.58Z"/><path d="m420.77,467.36c.3-.14.61-.28.91-.42-.03.86.03,1.87.18,2.97-.3.03-.59.07-.89.1-.13-.93-.2-1.83-.19-2.65Z"/><path d="m424.84,465.5c.24-.11.48-.22.73-.33.7.61,1.47,1.36,2.29,2.22-.3.11-.6.22-.9.33-.71-.65-1.37-1.51-2.12-2.22Z"/><path d="m461.97,470.14c.26-.12.52-.25.78-.38.23.31.45.62.68.94-.3.07-.6.14-.9.2-.18-.25-.37-.51-.55-.76Z"/><path d="m465.75,469.35c.27-.03.54-.06.81-.1.13.22.27.44.4.65-.25.06-.5.11-.76.17-.15-.24-.3-.48-.45-.73Z"/><path d="m232.15,458.44c-.32-.67-.64-1.34-.96-2,.02.59.07,1.19.13,1.78-.26-.07-.52-.14-.79-.21-.05-.35-.09-.71-.13-1.06.07-.67,0-1.42,1.11-1.42.53,1.05,1.04,2.11,1.54,3.18-.3-.09-.6-.18-.9-.26Z"/><path d="m247.18,469.44c.2-.1.39-.22.57-.36.16.21.31.42.46.62-.35-.09-.69-.18-1.04-.27Z"/><path d="m469.7,468.87c.29-.04.59-.07.88-.11.07.09.15.18.22.27-.24.05-.49.11-.73.16-.03,0-.06.01-.08.02-.1-.12-.19-.23-.29-.35Z"/><path d="m271.04,470.69c.55-.62,1.34-.64,2.45.27-.81-.12-1.63-.21-2.45-.27Z"/><path d="m438.7,467.81s.04,0,.05,0c.31.05.62.08.93.09,0,.01,0,.03,0,.04l-.96.11c-.01-.08-.02-.16-.03-.24Z"/><path d="m477.57,462.56c.23-.11.47-.23.7-.34.22.49.44.97.67,1.46-.27.03-.55.06-.82.09-.19-.4-.37-.8-.55-1.2Z"/><path d="m453.6,450.16s.03-.01.05-.02c.39-.16.77-.32,1.16-.48.09.1.18.2.26.31-.43.16-.87.32-1.29.49-.06-.1-.12-.19-.18-.29Z"/><path d="m491.17,455.85c.25-.13.51-.26.77-.39,1.08,1.2,2.15,2.41,3.19,3.65-.27.11-.53.22-.8.33-1.04-1.21-2.09-2.41-3.16-3.59Z"/><path d="m383.61,458.19c.34.03.63.23.89.52-.46.08-.92.16-1.39.24.07-.3.22-.56.5-.76Z"/><path d="m494.29,454.27c.23-.12.46-.24.7-.36.18.24.35.49.52.73.79,1.11,1.59,2.22,2.39,3.33-.25.1-.5.2-.74.3-.96-1.33-1.92-2.67-2.87-4.01Z"/><path d="m390.5,457.51c.08.02.16.05.24.08-.23.04-.46.08-.69.13.13-.09.28-.16.45-.2Z"/><path d="m472.14,446.55c-.09-.91-.08-1.82.12-2.68.37-.18.73-.35,1.1-.53-.37,1.02-.42,2.36-.21,3.95-.3-.3-.64-.54-1.02-.74Z"/><path d="m501.75,450.48c.23-.12.46-.25.7-.37,1.06,1.03,2.12,2.06,3.16,3.11-.22.14-.43.28-.65.43-1.07-1.06-2.14-2.12-3.21-3.17Z"/><path d="m481.43,446.17c.25-.15.51-.3.76-.45,1.03.94,1.95,1.85,2.62,2.48-.27.14-.53.27-.8.41-.7-.66-1.6-1.54-2.58-2.44Z"/><path d="m475.53,442.16c.43-.14.86-.28,1.29-.42,1.17.55,2.43,1.46,3.63,2.46-.25.15-.51.3-.76.44-1.44-1.19-2.92-2.19-4.16-2.48Z"/><path d="m487.06,442.82c.23-.14.46-.28.69-.42.35,1.18,1.17,2.3,1.77,3.38-.24.12-.47.25-.71.37-.67-1.07-1.37-2.18-1.75-3.33Z"/><path d="m493.13,442.77c-.58-.39-1.14-.84-1.71-1.26.28-.11.57-.22.83-.36.83.63,1.63,1.32,2.45,1.92-.24.12-.48.25-.71.38-.29-.23-.57-.46-.86-.68Z"/><path d="m487.17,439.4c.05-.19.26-.29.45-.27.37.01.72.06,1.06.14-.61.37-1.21.74-1.82,1.11.06-.32.16-.65.31-.98Z"/><path d="m516.12,449.74s.01.02.02.03c-.16.1-.32.19-.48.29.16-.11.31-.21.46-.32Z"/><path d="m522.04,445.66c.21-.15.43-.29.64-.44.07.08.14.16.21.23-.21.15-.42.29-.64.44-.07-.08-.14-.15-.21-.23Z"/><path d="m512.61,444.76c.22-.12.45-.24.67-.36.44.89.91,1.81,1.43,2.77-.21.14-.42.29-.63.43-.53-.98-1.02-1.93-1.47-2.84Z"/><path d="m518.34,441.59c.23-.13.46-.26.69-.39.58.62,1.14,1.24,1.68,1.83-.22.15-.43.3-.65.44-.57-.63-1.14-1.27-1.72-1.89Z"/><path d="m510.55,439.89c.23-.12.46-.25.69-.37.01.04.03.09.04.13-.23.12-.46.24-.69.36-.01-.04-.03-.08-.04-.13Z"/><path d="m524.72,438.04c.23-.13.47-.26.7-.39.36.46.73.92,1.09,1.39-.21.15-.43.3-.64.45-.38-.48-.76-.97-1.15-1.45Z"/><path d="m528.17,436.08c.22-.13.44-.26.67-.39.29.35.59.7.88,1.05-.2.15-.41.3-.61.45-.31-.37-.62-.74-.94-1.1Z"/><path d="m521.5,433.99c.23-.13.47-.25.7-.38.02.02.03.04.05.06-.23.13-.46.25-.7.38-.02-.02-.03-.04-.05-.06Z"/><path d="m524.81,432.21c.24-.13.47-.26.71-.38,0,0,.02.02.02.03-.23.13-.46.27-.69.4-.01-.02-.03-.03-.04-.05Z"/><path d="m520.29,427.28c.13-.18.25-.37.38-.55.03-.04.06-.09.09-.13.15.15.29.31.43.46-.19.19-.39.37-.58.56-.11-.11-.22-.23-.32-.34Z"/><path d="m510.45,420.52c-.37-.8-.94-1.88-.31-2.67.22-.25.53-.64.88-.38.9.74,1.78,1.49,2.65,2.26-.21.17-.41.35-.62.52-.74-.66-1.49-1.31-2.25-1.96,0,0-.02.01-.02.02-.03.06-.07.11-.1.17.12,1.05.57,1.95,1.17,2.77-.2.16-.4.33-.59.49-.29-.39-.56-.8-.81-1.23Z"/><path d="m514.59,421.64c.18-.15.35-.3.53-.45-.15.17-.3.35-.44.52-.03-.03-.05-.05-.08-.08Z"/><path d="m531.93,433.88c.25-.15.5-.29.75-.44.19.24.39.48.58.73-.23.17-.47.34-.7.51-.21-.27-.42-.53-.63-.8Z"/><path d="m536.99,430.91c.25-.15.51-.29.76-.44.02.02.04.04.06.06-.18.21-.37.43-.55.64-.09-.09-.18-.18-.27-.26Z"/><path d="m529.98,424.1c.23-.12.45-.25.68-.37,0,0,.01,0,.02,0,.05.04.09.08.14.12-.23.12-.47.25-.71.38-.04-.04-.09-.08-.13-.12Z"/><path d="m520.98,418.32c.03-.17.03-.42.04-.67.21-.22.41-.44.61-.66.07-.08.14-.15.21-.23.48.22.94.47,1.39.73-.26.19-.52.39-.77.58-.18-.12-.37-.23-.55-.34-.04.26-.05.52-.02.77-.26.2-.53.39-.79.59-.06-.25-.11-.51-.12-.77Z"/><path d="m543.68,415.71c.47-.2.94-.4,1.41-.6.18.03.4.1.42.11.16.11.32.22.48.33-.31.17-.62.34-.93.51-.55-.13-.89.02-.95.52-.26.14-.52.29-.79.43-.04-.47.05-.92.35-1.29Z"/><path d="m553.78,404.55l.71-.64c.1-.06.63.09.73.14.31.19.62.39.93.59-.2.09-.4.17-.6.26-.3-.18-.61-.36-.92-.52-.27.34-.45.73-.56,1.16-.22.09-.44.19-.66.28.03-.44.14-.88.38-1.27Z"/><path d="m562.29,377.23c.02-.66-.28-1.31-.88-1.69-.04-.02-.07-.04-.11-.06-.18-.52-.31-1.07-.47-1.63.02-.8,1.3.33,1.64.45,1.57,1.33,3.11,2.69,4.62,4.08-.07.15-.14.3-.21.45-1.76-1.58-3.56-3.11-5.42-4.56.64,2.68,2.65,4.7,4.35,6.8-.08.16-.15.32-.23.47-1.12-1.42-2.22-2.85-3.29-4.31Z"/><path d="m569.98,371.03c-.09.4-.18.79-.26,1.19-.81-1.49-.53-1.67.26-1.19Z"/><path d="m561.03,360.62c-.3-.13-.08-.56.21-.43,3.5,1.55,7.01,3.09,10.52,4.62-.05.15-.1.3-.15.45-3.53-1.53-7.05-3.08-10.57-4.64Z"/><path d="m573.2,350.44c-.84-.75-1.75-1.42-2.5-2.25-.13-.14-.04-.38.16-.4.93-.14,1.66.81,2.41,1.25.08-.86,1.24-.56,2.85.29.01.2.03.4.04.6-.75-.39-1.52-.71-2.33-.97-.05.13-.1.27-.14.39h0c.88.72,1.74,1.45,2.6,2.18.02.23.04.46.06.7-.91-.78-1.82-1.55-2.75-2.32.02.1.05.2.07.3.52.47,1.48,1.28,2.7,2.32.01.11.02.21.03.32-.03.09-.06.19-.09.28-.97-.82-1.74-1.48-2.2-1.92.6.95,1.22,1.85,1.89,2.73,0,0,.01.01.02.02-.06.18-.13.37-.19.55-1.03-1.26-1.97-2.58-2.62-4.07Zm-1.38-1.82c.16.14.32.27.47.41.27.23.54.46.81.7.01-.07.02-.12.03-.17-.45-.33-.9-.65-1.35-.96.01.01.02.02.04.03Z"/><path d="m575.15,344.7c-1.2-1.37-2.46-2.68-3.48-4.2-.09-.13-.04-.29.11-.36.85-.59,2.02.44,2.77,1.06.44.31.88.63,1.31.96,0,.18,0,.36,0,.54-1.18-.95-2.39-1.81-3.63-2.24,1.17,1.48,2.4,2.9,3.67,4.3,0,.25.01.51.02.76-.26-.27-.52-.55-.78-.82Z"/></g></svg>