<?xml version="1.0" encoding="UTF-8"?><svg id="Layer_2" xmlns="http://www.w3.org/2000/svg" viewBox="0 0 1326.22 748.84"><defs><style>.cls-1{fill:#e7f3fe;}.cls-2{fill:#fff;}.cls-3{fill:#f39892;}.cls-4{fill:#f09959;}.cls-5{fill:#6791c9;}.cls-6{fill:#96cfe0;}.cls-7{fill:#9ec8ff;}.cls-8{fill:#9cd499;}.cls-9{fill:#e38540;}.cls-10{fill:#a2dff2;}.cls-11{fill:#95bef5;}.cls-12{fill:#2a2000;}.cls-13{fill:#2e5b9a;}.cls-14{fill:#74b570;}.cls-15{fill:#75a1de;}</style></defs><g id="_Слой_1"><path class="cls-1" d="m177.22,728.03S-99.23,230.16,107.7,113.99c165.09-92.68,309.91,69.51,486.6-43.45,227.94-145.73,400.74-48.17,524.25,133.23,92.68,136.13,141.77,224.19,188.27,330.19,72.41,165.09-81.1,202.75-81.1,202.75l-1048.5-8.69Z"/><path class="cls-15" d="m941.04,731.28l-126.03.23c-1.8,0-3.3-1.83-3.4-4.06-.1-2.24,1.23-4.2,3.02-4.36l125.53-11.27c10.19-.92,19.47,3.03,19.74,8.85.27,5.82-8.62,10.6-18.85,10.61Z"/><path class="cls-4" d="m777.86,713.43c4.34-1.09,12.31-24.86,12.31-24.86,0,0-91.01-30.69-129.61-50.69l-53.78,62.2c69.08,17.21,167.86,14.15,171.08,13.35Z"/><path class="cls-4" d="m763.86,679.16c22.4,5.79,58.03-8.69,64.69-7.24,6.66,1.45,34.5,15.93,41.16,23.17,6.66,7.24,30.27,29.69,26.03,31.14-4.24,1.45-33.9-20.27-37.53-21-3.63-.72-5.45,4.34-35.11,10.14-29.66,5.79-65.52-9.17-65.52-9.17l6.28-27.03Z"/><path class="cls-9" d="m799.49,701.61s34.5-8.69,38.74-7.24c4.24,1.45,29.96,7.24,47.82,27.52-16.95-5.07-41.16-6.52-47.82-6.52s-38.74-13.76-38.74-13.76Z"/><path class="cls-4" d="m807.74,687.12c14.74,18.83,52.14,24.62,57.81,31.14,5.67,6.52-13.63,3.75-23.8,2.9-25.91-2.17-44,8.33-64.97,1.81-20.97-6.52-25.71-22.09-25.71-22.09l56.67-13.76Z"/><path class="cls-10" d="m531.59,352.92c-66.46,32.66-96.87,56.55-117.51,145.61-20.64,89.06-21.72,173.78-10.86,236.77,73.77,2.14,207.73,10.11,207.73,10.11,0,0,16.32-97.38,8.52-201.27-7.48-99.62-6.63-166.17-31.61-183.54-24.98-17.38-56.27-7.68-56.27-7.68Z"/><path class="cls-6" d="m547.67,656.02c-23.82-23.89-17.38-185.72-56.48-258.49l-72.77,135.76-22,112.96c-.19,32.63,2.26,62.74,6.79,89.05.26,1.49,1.63,2.5,3.11,2.37,60.07-5.26,63.42-31.37,255.3-60.33,4.53-.68-97.75-5.07-113.97-21.33Z"/><path class="cls-2" d="m525.27,352.95c-8.42,19.65,8.69,45.38,35.72,65.65,27.03,20.28,43.45,9.17,42-6.76s-2.9-32.83-9.17-42.96c-6.28-10.14-56.48-18.83-56.48-18.83,0,0-10.62-.48-12.07,2.9Z"/><path class="cls-4" d="m557.37,254.47l-25.78,98.45c-2.53,6.59-1.84,13.98,1.88,19.98,10.5,16.95,33.08,49.53,49.24,45.22,21.72-5.79,7.24-46.34,7.24-46.34l28.96-102.11-61.55-15.21Z"/><path class="cls-9" d="m596.86,260.55l-25.73-10.42-7.73,20.1c3.55,85.57,14.45,120.5,31.18,130.23.9-13.2-4.63-28.68-4.63-28.68l21-76.04-14.09-35.19Z"/><path class="cls-4" d="m668.34,299.12c-5.02,33.98-18.41,63.1-42.68,59.52-24.27-3.59-65.95-32.03-60.93-66.01,5.02-33.98,59.51-74.68,83.78-71.09,24.27,3.58,24.85,43.6,19.83,77.59Z"/><path class="cls-4" d="m483.6,426.85c1.94-7.72-28.98-12.33-33.9-6.08-48.63,61.85-124.28,228.94-107.3,259.14,19.55,34.76,230.17-10.89,234.52-11.97,4.34-1.09-7.6-33.67-7.6-33.67,0,0-118.03,2.17-137.94-11.22,61.91-116.21,37.55-137.71,52.22-196.19Z"/><path class="cls-10" d="m471.65,392.09c-30.69,13.76-54.38,43.97-75.23,89.02-13.85,29.93-31.21,82.59-31.21,82.59,0,0,13.03,3.26,55.39,17.38,17.61,5.87,48.66,2.83,48.66,2.83,0,0,0-16.3,18.13-39.76,5.67-7.33,16.63-30.89,21.18-45.61,16.43-53.12-5.43-120.56-36.93-106.44Z"/><path class="cls-2" d="m370.69,549.74c47.78,6.16,76.33,22.8,90.84,34.16,2.18-3.03,4.82-6.78,7.74-11.06-10.05-9.42-31.92-26.21-63.72-30.66-12.91-1.8-22.74-2.97-30.21-3.72-1.76,4.19-3.32,7.98-4.66,11.27Z"/><path class="cls-2" d="m381.65,523.85c-.82,1.86-1.61,3.67-2.38,5.43,41.97-1.68,82.24,18.77,92.41,31.25,1.19,1.46,2.25,2.75,3.18,3.91,1.05-1.61,2.12-3.27,3.21-4.98-6.89-6.78-19.12-17.67-31.49-23.07-25.34-11.06-61.67-12.44-64.93-12.54Z"/><polygon class="cls-15" points="663.09 676.87 609.5 676.87 601.54 576.82 671.78 576.82 663.09 676.87"/><path class="cls-4" d="m562.8,634.63c14.84-.36,39.1-17.38,47.43-22.09,8.33-4.71,55.39-14.84,57.57-9.77,2.17,5.07-39.46,15.57-39.46,15.57l31.14,1.45s9.05,13.76,9.78,22.81c.72,9.05-2.9,22.08-2.9,22.08l-13.76-12.31s-11.22,6.15-25.34,14.48c-14.12,8.33-39.46,3.26-50.32,1.09-10.86-2.17-36.21-10.14-36.21-10.14l22.08-23.17Z"/><path class="cls-9" d="m368.74,629.92s24.02-13.88,48.15-10.5c13.83,1.94,15.33,4.19,14.48,3.62,2.99-5.61,5.77-11,8.37-16.18-12.57.58-44.81,3.98-71.01,23.06Z"/><path class="cls-5" d="m1126.81,459.4v246.56c0,8.2-7.73,14.84-17.26,14.84h-51.77c-8.83,0-15.99,6.16-15.99,13.76h74.5c16.04,0,29.04-11.18,29.04-24.98v-250.18h-18.52Z"/><path class="cls-11" d="m1088.95,670.55l-8.22-1.57c-5.42-1.03-8.88-5.7-7.68-10.36l64.42-250.27c1.2-4.67,6.62-7.64,12.05-6.61l8.22,1.57c5.42,1.03,8.88,5.7,7.68,10.36l-64.42,250.27c-1.2,4.67-6.62,7.64-12.05,6.61Z"/><path class="cls-15" d="m1091.19,670.98l-.97-.18c-4.19-.8-6.86-4.4-5.93-8l65.42-254.13c.93-3.6,5.11-5.9,9.3-5.1l.97.18c4.19.8,6.86,4.4,5.93,8l-65.42,254.13c-.93,3.6-5.11,5.9-9.3,5.1Z"/><path class="cls-13" d="m1262.7,748.84H156.08c-5.12,0-9.27-4.15-9.27-9.27s4.15-9.27,9.27-9.27h1106.62c5.12,0,9.27,4.15,9.27,9.27s-4.15,9.27-9.27,9.27Z"/><path class="cls-4" d="m568.53,212.01c-50.14,31.1-18.41,64.74-31.74,122.5,8.19,2.8,17.14-13.33,22.85-26.02,5.71-12.7,10.79-31.1,12.69-30.47,1.9.63,5.08,29.2,5.08,29.2l7.62,3.81s10.79-19.04,10.16-23.48c-.63-4.44-9.52-26.02,1.27-36.18,6.93-6.52,35.54,7.62,35.54,7.62l-27.93-39.99-35.54-6.98Z"/><path class="cls-12" d="m568.53,212.01c-50.14,31.1-18.41,64.74-31.74,122.5,8.19,2.8,17.14-13.33,22.85-26.02,5.71-12.7,10.79-31.1,12.69-30.47,1.9.63,5.08,29.2,5.08,29.2l7.62,3.81s10.79-19.04,10.16-23.48c-.63-4.44-9.52-26.02,1.27-36.18,6.93-6.52,19.44-15.44,19.44-15.44l-11.83-16.93-35.54-6.98Z"/><path class="cls-12" d="m684.18,233.82c29.99,5.95-22.39,23.85-42.92,12.74-49.79-26.95-64.05,9.5-84.71,0-26.47-12.17-4.53-76.43,65.92-63.1,52.86,10,39.31,45.92,61.7,50.37Z"/><path class="cls-4" d="m573.36,278.01c2.17,11.36-2.08,21.72-9.48,23.13-7.4,1.41-15.16-6.66-17.33-18.02s2.08-21.72,9.48-23.13c7.4-1.41,15.16,6.66,17.33,18.02Z"/><path class="cls-7" d="m862.29,193.33h245.08c2.8,0,5.07,2.27,5.07,5.07v141.91c0,2.8-2.27,5.07-5.07,5.07h-245.08c-2.8,0-5.07-2.27-5.07-5.07v-141.91c0-2.8,2.27-5.07,5.07-5.07Z"/><rect class="cls-2" x="865.03" y="217.78" width="239.59" height="122.94" rx="4.42" ry="4.42"/><rect class="cls-2" x="867.76" y="201.91" width="9.51" height="8.56" rx="2.06" ry="2.06"/><rect class="cls-2" x="885.05" y="201.91" width="9.51" height="8.56" rx="2.06" ry="2.06"/><rect class="cls-2" x="902.35" y="201.91" width="9.51" height="8.56" rx="2.06" ry="2.06"/><path class="cls-7" d="m1096.5,333.48h-223.34v-108.45h223.34v108.45Zm-222.54-.8h221.74v-106.85h-221.74v106.85Z"/><rect class="cls-7" x="873.56" y="311.15" width="222.54" height=".8"/><rect class="cls-7" x="873.56" y="289.61" width="222.54" height=".8"/><rect class="cls-7" x="873.56" y="268.08" width="222.54" height=".8"/><rect class="cls-7" x="873.56" y="246.56" width="222.54" height=".8"/><rect class="cls-7" x="1063.91" y="225.43" width=".8" height="107.65"/><rect class="cls-7" x="1032.12" y="225.43" width=".8" height="107.65"/><rect class="cls-7" x="1000.32" y="225.43" width=".8" height="107.65"/><rect class="cls-7" x="968.53" y="225.43" width=".8" height="107.65"/><rect class="cls-7" x="936.74" y="225.43" width=".8" height="107.65"/><rect class="cls-7" x="904.95" y="225.43" width=".8" height="107.65"/><path class="cls-3" d="m1087.77,239.02h-7.48c-2.85,0-5.19-2.33-5.19-5.19s2.34-5.19,5.19-5.19h7.48c2.85,0,5.19,2.34,5.19,5.19s-2.34,5.19-5.19,5.19Z"/><path class="cls-3" d="m1077.57,272.09h12.91c1.37,0,2.47,1.11,2.47,2.47v5.43c0,1.37-1.11,2.47-2.47,2.47h-12.91c-1.37,0-2.47-1.11-2.47-2.47v-5.43c0-1.37,1.11-2.47,2.47-2.47Z"/><path class="cls-7" d="m912.09,250h17.56c1.95,0,3.53,1.58,3.53,3.53v8.27c0,1.95-1.58,3.53-3.53,3.53h-17.56c-1.95,0-3.53-1.58-3.53-3.53v-8.27c0-1.95,1.58-3.53,3.53-3.53Z"/><rect class="cls-2" x="912.03" y="252.16" width="17.68" height="11.01" rx="2.54" ry="2.54"/><path class="cls-7" d="m1039.53,314.45h17.56c1.95,0,3.53,1.58,3.53,3.53v8.27c0,1.95-1.58,3.53-3.53,3.53h-17.56c-1.95,0-3.53-1.58-3.53-3.53v-8.27c0-1.95,1.58-3.53,3.53-3.53Z"/><path class="cls-2" d="m1042,316.61h12.61c1.4,0,2.54,1.14,2.54,2.54v5.94c0,1.4-1.14,2.54-2.54,2.54h-12.61c-1.4,0-2.54-1.14-2.54-2.54v-5.94c0-1.4,1.14-2.54,2.54-2.54Z"/><path class="cls-7" d="m995.45,254.47h-13.76c-.93,0-1.69-.76-1.69-1.69s.76-1.69,1.69-1.69h13.76c.93,0,1.69.76,1.69,1.69s-.76,1.69-1.69,1.69Z"/><path class="cls-7" d="m995.45,259.78h-13.76c-.93,0-1.69-.76-1.69-1.69s.76-1.69,1.69-1.69h13.76c.93,0,1.69.76,1.69,1.69s-.76,1.69-1.69,1.69Z"/><path class="cls-7" d="m965.04,318.55h-13.76c-.93,0-1.69-.76-1.69-1.69s.76-1.69,1.69-1.69h13.76c.93,0,1.69.76,1.69,1.69s-.76,1.69-1.69,1.69Z"/><path class="cls-7" d="m965.04,323.86h-13.76c-.93,0-1.69-.76-1.69-1.69s.76-1.69,1.69-1.69h13.76c.93,0,1.69.76,1.69,1.69s-.76,1.69-1.69,1.69Z"/><path class="cls-7" d="m893.71,278.36h-13.76c-.93,0-1.69-.76-1.69-1.69s.76-1.69,1.69-1.69h13.76c.93,0,1.69.76,1.69,1.69s-.76,1.69-1.69,1.69Z"/><path class="cls-7" d="m893.71,283.67h-13.76c-.93,0-1.69-.76-1.69-1.69s.76-1.69,1.69-1.69h13.76c.93,0,1.69.76,1.69,1.69s-.76,1.69-1.69,1.69Z"/><path class="cls-7" d="m1026.59,254.47h-13.76c-.93,0-1.69-.76-1.69-1.69s.76-1.69,1.69-1.69h13.76c.93,0,1.69.76,1.69,1.69s-.76,1.69-1.69,1.69Z"/><path class="cls-7" d="m1026.59,259.78h-13.76c-.93,0-1.69-.76-1.69-1.69s.76-1.69,1.69-1.69h13.76c.93,0,1.69.76,1.69,1.69s-.76,1.69-1.69,1.69Z"/><path class="cls-8" d="m911.4,293.57h20.38c1.77,0,3.21,1.44,3.21,3.21v9.15c0,1.77-1.44,3.21-3.21,3.21h-20.38c-1.77,0-3.21-1.44-3.21-3.21v-9.15c0-1.77,1.44-3.21,3.21-3.21Z"/><path class="cls-2" d="m920.15,306.57s-.04,0-.06,0c-.44-.02-.85-.21-1.14-.54l-3.81-4.33c-.58-.66-.52-1.67.14-2.26.66-.58,1.67-.52,2.26.14l2.7,3.07,6.94-6.79c.63-.62,1.64-.61,2.26.02.62.63.61,1.64-.02,2.26l-8.14,7.97c-.3.29-.7.46-1.12.46Z"/><path class="cls-8" d="m1006.62,228.04h20.38c1.77,0,3.21,1.44,3.21,3.21v9.15c0,1.77-1.44,3.21-3.21,3.21h-20.38c-1.77,0-3.21-1.44-3.21-3.21v-9.15c0-1.77,1.44-3.21,3.21-3.21Z"/><path class="cls-2" d="m1015.37,241.04s-.04,0-.06,0c-.44-.02-.85-.21-1.14-.54l-3.81-4.33c-.58-.66-.52-1.67.14-2.26.66-.58,1.67-.52,2.26.14l2.7,3.07,6.94-6.79c.63-.62,1.64-.61,2.26.02.62.63.61,1.64-.02,2.26l-8.14,7.97c-.3.29-.7.46-1.12.46Z"/><path class="cls-7" d="m1023.33,300.81c0,4-3.24,7.24-7.24,7.24s-7.24-3.24-7.24-7.24,3.24-7.24,7.24-7.24,7.24,3.24,7.24,7.24Z"/><path class="cls-7" d="m929.56,322.9c0,4-3.24,7.24-7.24,7.24s-7.24-3.24-7.24-7.24,3.24-7.24,7.24-7.24,7.24,3.24,7.24,7.24Z"/><path class="cls-7" d="m823.73,323.37h147.81c1.38,0,2.51,1.12,2.51,2.51v82.38c0,1.38-1.12,2.51-2.51,2.51h-147.81c-1.38,0-2.51-1.12-2.51-2.51v-82.38c0-1.38,1.12-2.51,2.51-2.51Z"/><path class="cls-2" d="m826.92,327.22h141.44c1.29,0,2.34,1.05,2.34,2.34v75.01c0,1.29-1.05,2.34-2.34,2.34h-141.44c-1.29,0-2.34-1.05-2.34-2.34v-75.01c0-1.29,1.05-2.34,2.34-2.34Z"/><rect class="cls-7" x="828.61" y="332.11" width="138.05" height="69.93" rx="2.63" ry="2.63"/><circle class="cls-2" cx="897.64" cy="367.07" r="24.26"/><path class="cls-7" d="m918.53,367.07c0,11.54-9.35,20.89-20.89,20.89s-20.89-9.35-20.89-20.89,9.35-20.89,20.89-20.89,20.89,9.35,20.89,20.89Z"/><polygon class="cls-2" points="907.94 365.95 900.3 370.36 892.66 374.77 892.66 365.95 892.66 357.14 900.3 361.55 907.94 365.95"/><path class="cls-7" d="m811.53,113.99h-95.58c-2.39,0-4.34-1.95-4.34-4.34s1.96-4.34,4.34-4.34h95.58c2.39,0,4.34,1.95,4.34,4.34s-1.95,4.34-4.34,4.34Z"/><path class="cls-7" d="m1061.34,481.11h-95.58c-2.39,0-4.34-1.96-4.34-4.35s1.96-4.34,4.34-4.34h95.58c2.39,0,4.34,1.96,4.34,4.34s-1.96,4.35-4.34,4.35Z"/><path class="cls-7" d="m1061.34,497.04h-95.58c-2.39,0-4.34-1.95-4.34-4.34s1.96-4.34,4.34-4.34h95.58c2.39,0,4.34,1.96,4.34,4.34s-1.96,4.34-4.34,4.34Z"/><path class="cls-7" d="m1061.34,514.42h-95.58c-2.39,0-4.34-1.96-4.34-4.34s1.96-4.35,4.34-4.35h95.58c2.39,0,4.34,1.96,4.34,4.35s-1.96,4.34-4.34,4.34Z"/><path class="cls-7" d="m873.08,130.65h-157.13c-2.39,0-4.34-1.96-4.34-4.34s1.96-4.34,4.34-4.34h157.13c2.39,0,4.34,1.96,4.34,4.34s-1.96,4.34-4.34,4.34Z"/><path class="cls-14" d="m194.69,371.45c-24.98,22.81-14.12,45.62,4.34,87.97,18.46,42.36,21.72,198.75,21.72,198.75l-15.21-2.17s2.17-160.74-18.46-204.19c-20.64-43.44-29.32-65.17-47.79-51.05-18.46,14.12,55.39-29.33,55.39-29.33Z"/><path class="cls-8" d="m208.42,341.92c-3.03-13.52-21.05-28.14-45.14-40.55,3.58,19.94,15.07,52.53,3.18,59.22-16.03,9.02-1.56-36.49-7.75-61.51-22.62-11.05-49.83-20.08-74.9-24.57.04.09.06.18.1.27,14.12,35.84,32.58,49.96,24.98,55.39-5.72,4.08-24.35-37.32-48.95-58.54-18.47-.98-34.09,1.52-43.33,8.84-14.28,11.31-23.87,21.34-9.5,55.78,8.21,5.86,18.84,10.07,31.19,11.3,32.58,3.26,47.79,4.34,24.98,15.21-11.17,5.32-29.89-.3-45.07-3.72,4.92,9.07,10.98,19.34,18.33,31.04,4.66,7.42,9.81,13.86,15.27,19.43,10.5,2.01,19.66,2.04,24.5-.04,15.21-6.52,54.3-27.15,64.08-18.46,9.57,8.5-72.41,13.89-66.73,35.5,39.74,22.89,85.21,12,93.24-9.02,10.79-28.23,50.65-34.87,41.52-75.56Z"/><path class="cls-14" d="m126.27,496.35c43.44-32.58,87.97-2.17,110.78,32.58,22.81,34.76,6.52,112.95,6.52,112.95,0,0-8.69,0-8.69-3.26s23.89-92.32-32.58-132.5c-35.33-25.14-60.82-13.03-64.08-1.09-3.26,11.95,14.12,33.67,14.12,33.67l-26.07-42.36Z"/><path class="cls-8" d="m226.19,429.37c-43.44,0-57.56,67.34-45.62,106.44,11.95,39.1,28.24,111.87,28.24,111.87l10.86-10.86s-41.27-102.09-31.5-147.71c9.77-45.62,33.67-53.22,38.01-53.22s0-6.52,0-6.52Z"/><path class="cls-14" d="m189.75,536.11c-3.06-4.05-6.83-7.39-11.44-9.61.6,3.24,1.35,6.35,2.26,9.31,5.44,17.82,11.79,42.62,17.08,64.34.48-2.78,1.22-7.07,2.37-13.68.27-1.56.48-3.26.63-5.05-4.25-14.47-8.27-30.24-10.9-45.3Z"/><path class="cls-8" d="m177.88,536.44c-82.54-34.76-39.05-82.45-111.82-50.95-5.13,2.22-11.37,7.81-17.63,15.53,6.48,1.84,14.33,3.16,23.06,1.85,21.72-3.26,14.12,14.12-21.72,18.46-6.76.82-12.24,1.95-16.8,3.54-17.07,32.79-24.77,75.95,11.36,90.95,7.12,2.95,15.92,4.65,25.72,5.28,11.15-8.86-2.72-60.14,14.47-53.07,16.5,6.8-5.17,43.96-2.2,53.33,16.29-.3,34.33-2.96,51.56-7.23,6.82-3.82,12.03-8.95,13.63-15.69,5.43-22.81-30.41-36.93-31.5-56.48-1-17.97,13.14,39.54,50.59,48,33.86-15.82,49.86-37.28,11.28-53.53Z"/><path class="cls-8" d="m236.69,474.99c-8.69-18.46,14.12-22.81,13.03-8.69-.96,12.51-1.07,42.92,11.76,51.2,22.13-2.4,52.24-11.31,75-24.91.29-1.84,0-3.73-.96-5.66-9.77-19.55-72.77-35.84-53.22-42.36,15.57-5.19,42.85,25.44,64.84,40.88,13.21-10.02,22.05-21.96,22.05-35.29,0-18.04-21.92-38.47-50.28-48.23-12.76,1.29-24.61,8.26-43.13,18.75-27.35,15.5-21.02-9.56,4.83-24.43-22.32,1.16-44.58,10.69-61,33.48,0,0,1.55,9.74-8.75,24.81-28.12,41.1,4.33,65.09,43.13,63.54-2.19-10.83-11.31-30.33-17.31-43.09Z"/><path class="cls-14" d="m128.88,494.51c-21.24,16.41-44.83,35.6-73.8,48.64-28.96,13.03-23.17,55.51-23.17,55.51,0,0-4.34-36.69,19.79-49.24,24.14-12.55,40.07-27.52,58.41-30.41,18.34-2.9,28.48-5.79,28.48-5.79,0,0-5.79-11.59-2.41-15.93,3.38-4.34-7.3-2.78-7.3-2.78Z"/><path class="cls-14" d="m24.19,301.78c77.72,20.76,134.68,70.48,145.3,82.55,10.62,12.07,10.62,15.45,10.62,15.45l-8.21,15.45-3.86-1.93s6.28-13.03-10.14-29.93c-28.3-29.14-62.76-52.14-86.41-62.27-23.65-10.14-47.31-19.31-47.31-19.31Z"/><path class="cls-3" d="m170.8,625.52h106.15v68.22c0,21.1-17.13,38.23-38.23,38.23h-29.69c-21.1,0-38.23-17.13-38.23-38.23v-68.22h0Z"/></g></svg>