<?xml version="1.0" encoding="UTF-8"?><svg id="_лой_1" xmlns="http://www.w3.org/2000/svg" viewBox="0 0 3200 2000"><defs><style>.cls-1{fill:#f99746;}.cls-2{fill:#f9ddbf;}.cls-3,.cls-4{fill:#f8fcff;}.cls-5{fill:#ebf3fa;}.cls-6{fill:#ed7d2b;}.cls-7{fill:#fff;}.cls-8{fill:#edc5a2;}.cls-9{fill:#ffb27d;}.cls-10{fill:#fca56b;}.cls-11,.cls-12,.cls-13{fill:#80b4ff;}.cls-14{fill:#af5919;}.cls-15{fill:#afcdfb;}.cls-16{fill:#d8a987;}.cls-17{fill:#bfe2a8;}.cls-18{fill:#daed8e;}.cls-19{fill:#163560;}.cls-20{fill:#1c468a;}.cls-21{fill:#a36f4b;}.cls-22{fill:#29589b;}.cls-23{fill:#2a2000;}.cls-24{fill:#82b378;}.cls-25{fill:#509b67;}.cls-12{opacity:.2;}.cls-4{opacity:.8;}.cls-13{opacity:.4;}</style></defs><path class="cls-5" d="m3023.9,1619.33c-15.66,98.71-100.71,171.41-200.64,171.36l-575.56-.26-504.33-.24h-15.14l-107.97-.04h-13.93l-103.04-.05h-17.62s-143.57-.07-143.57-.07l-25.31-.02-117.09-.06h-31.84s-201.8-.11-201.8-.11h-35.24s-155.89-.08-155.89-.08h-33.24s-240.38-.13-240.38-.13c-30.74-.01-60.5-6.75-87.49-19.14-40.89-18.77-75.41-50.52-97.37-91.6-15.57-29.14-32.35-63.27-48.62-101.4-26.04-61.05-50.76-132.38-67.06-210.05-13.04-62.09-20.68-128.24-19.32-196.43.23-12.25.76-24.57,1.61-36.94.74-10.73,1.71-21.5,2.92-32.3,3.9-34.75,10.39-69.84,19.89-105.01,11.53-42.66,27.51-85.44,48.74-127.92,25.24-50.49,57.94-100.53,99.43-149.35,22.41-26.37,47.39-52.4,75.15-77.93,497.43-457.51,979.95-265.05,1048.89-265.05,332.34,0,252.04-209.78,620.05-241.87,778.31-67.88,662.54,649.08,662.53,649.12,0,.02-11.5,39.43-15.04,54.1-4.79,19.72-8.46,38.39-11.11,56.1-.2,1.35-.41,2.7-.6,4.05-.74,5.13-1.38,10.17-1.92,15.14-4.01,35.37-3.77,66.75-.14,94.97,6.77,52.83,25.37,94.59,50.19,130.69,16.56,24.12,35.9,45.69,56.34,66.33,5.73,5.79,11.56,11.51,17.43,17.19,7.59,7.34,15.27,14.62,22.95,21.92,10.24,9.73,20.5,19.48,30.56,29.45,2.16,2.12,4.31,4.27,6.45,6.43,3.68,3.7,7.32,7.44,10.91,11.22,14.82,15.51,28.96,31.74,41.76,49.32,2.81,3.81,5.52,7.69,8.18,11.63,3.12,4.64,6.14,9.38,9.05,14.23,9.28,15.4,17.48,31.89,24.26,49.78,19.93,52.61,27.55,117.45,13.98,203.03Z"/><path class="cls-12" d="m1627.02,1360.08l-208.21,123.82-857.16-128.6-377.94-180.91c.23-12.25.76-24.57,1.61-36.94.74-10.73,1.71-21.5,2.92-32.3,3.9-34.75,10.39-69.84,19.89-105.01,11.53-42.66,27.51-85.44,48.74-127.92,0,0,254.63-105.71,304.77-73.96,50.14,31.76,193.4,225.15,257.86,215.6,64.47-9.55,112.22-94.65,198.17,27.89,85.96,122.53,133.71,166.2,212.5,119.3,78.79-46.91,119.38-113.76,186.24-73.17,66.85,40.59,210.6,272.19,210.6,272.19Z"/><path class="cls-13" d="m2840.64,1208.51c-189.05,63.49-789.51,262.34-931.07,274.36-168.63,14.33-192.3-125.18-192.3-125.18,0,0,188.62-272.19,212.5-267.42,23.88,4.78,89.02,111.72,114.09,93.81,25.07-17.91,130.03-382,170.11-385.82,37.6-3.58,92.65,82.86,108.25,68.54,8.68-7.96,47.8-89.73,88.15-160.74,32.2-56.69,65.19-106.54,84.07-106.45,18.95.08,44.78,41.13,72.02,93.17h0c45.97,87.83,95.95,206.94,123.66,213.42,13.67,3.2,29.68-1.77,46.65-8.86-.2,1.35-.41,2.7-.6,4.05-.74,5.13-1.38,10.17-1.92,15.14-4.01,35.37-3.77,66.75-.14,94.97,6.77,52.83,25.37,94.59,50.19,130.69,16.56,24.12,35.9,45.69,56.34,66.33Z"/><path class="cls-13" d="m1909.56,1362.78s68.04-123.17,78.79-103.48c10.74,19.7,41.18,29.49,55.51,8.48,14.33-21.01,188.42-209.62,192.69-162.77,4.28,46.85-67.35,163.38-38.7,168.68,28.65,5.3,186.23-152.27,241.74-120.04,55.51,32.23,118.18-26.86,177.27-25.07,59.09,1.79,57.33,138.06,57.33,138.06l-478.13,146.65-225.62,10.74-107.44-12.53,46.56-48.73Z"/><path class="cls-11" d="m2881.01,1247.62s-777.08,161.94-858.16,157.49c0,0,57.34-56.97,128.97-59.36s102.67-70,186.24-77.98c83.57-7.98,133.71,9.93,168.33-7.98,34.62-17.91,74.02-105.06,155.2-102.67,69.63,2.05,96.22.59,122.72-14.95,21.2,30.87,46.96,57.59,73.77,83.52,7.59,7.34,15.27,14.62,22.95,21.92Z"/><path class="cls-15" d="m1330.05,1332.9l-1144.72-195.36s0-.02-.01-.08c.74-10.73,1.71-21.5,2.92-32.3,3.9-34.75,10.39-69.84,19.89-105.01,0,0,122.08-24.58,181.17,0,59.09,24.58,53.72,63.98,100.28,69.35,46.55,5.37,88.77.88,123.79,28.75,35.03,27.85,87.55,47.75,140.87,44.57,53.33-3.19,167.13-15.91,211.71,19.9,44.56,35.81,132.91,113.81,209.31,112.61,76.4-1.19,118.77,19.14,131.32,37.01,12.15,17.31,22.81,20.4,23.46,20.57Z"/><path class="cls-17" d="m3032.64,1559c-.79,19.9-2.89,41.08-6.48,63.73-15.66,98.71-100.71,171.41-200.64,171.36l-575.56-.26-504.33-.24h-15.14l-107.97-.04h-13.93l-103.04-.05h-17.62s-143.57-.07-143.57-.07l-25.31-.02-117.09-.06h-31.84s-201.8-.11-201.8-.11h-35.24s-164.77-.08-164.77-.08h-24.35s-240.38-.13-240.38-.13c-30.74-.01-60.5-6.75-87.49-19.14-40.89-18.77-75.41-50.52-97.37-91.6-40.51-75.82-89.2-185.27-115.68-311.46-5.36-25.54-9.8-51.74-13.08-78.5-5.41-43.92-7.66-89.31-5.69-135.56.74-17.1,2.05-34.31,4-51.61,112.71-1.53,410.4,7.22,764.7,119.84,452.76,143.91,870.38,236.4,1174.82,161.18,253.23-62.56,567.73-140.02,753.24-138.54,10.24,9.73,20.5,19.48,30.56,29.45,2.16,2.12,4.31,4.27,6.45,6.43,3.68,3.7,7.32,7.44,10.91,11.22,14.82,15.51,28.96,31.74,41.76,49.32,2.81,3.81,5.52,7.69,8.18,11.63,3.12,4.64,6.14,9.38,9.05,14.23,9.28,15.4,17.48,31.89,24.26,49.78,14.65,38.69,22.66,84,20.46,139.31Z"/><path class="cls-4" d="m1536.99,643.62s34.98-64.41,118.62-57.26c0,0,121.43-107.36,250.93-14.31,0,0,137.65-23.05,239.59,19.96,67.97,28.68,90.42,58.77,90.42,58.77l-699.56-7.16Z"/><path class="cls-4" d="m1070.65,793.24s29.63-45.31,100.48-40.27c0,0,102.86-75.52,212.55-10.07,0,0,116.6-16.22,202.95,14.04,57.57,20.17,76.59,41.34,76.59,41.34l-592.56-5.03Z"/><path class="cls-4" d="m703.07,587.41s21.1-45.31,71.57-40.27c0,0,73.26-75.52,151.39-10.07,0,0,83.05-16.22,144.55,14.04,41.01,20.17,54.55,41.34,54.55,41.34l-422.05-5.03Z"/><path class="cls-18" d="m1411.12,1383.53s-444.37-50.48-624.24-115.75c-179.87-65.28-192.94-46.09-149.4-11.51,43.55,34.58,294.65,116.29,190.59,125.57-104.06,9.28-291.35-18.02-361.93,54.21-70.58,72.23-181.46,137.15,0,151.17,181.46,14.02,711.36-85.53,711.36-85.53l233.62-118.16Z"/><path class="cls-21" d="m1901.11,1305.17s64.47,155.2,71.63,159.97c7.16,4.78,33.51,10.83,35.3,17.99,1.79,7.16,42.98,102.07,42.98,102.07l-157.58,30.44-125.34-73.42,133.01-237.05Z"/><path class="cls-16" d="m2825.51,1794.08l-475.45-.21-100.11-.05-504.33-.24h-15.14l-107.97-.04h-13.93l-103.04-.05h-17.62s-143.57-.07-143.57-.07l-25.31-.02-117.09-.06h-31.84s-201.8-.11-201.8-.11h-35.24s-164.77-.08-164.77-.08h-24.35s-240.38-.13-240.38-.13c-30.74-.01-60.5-6.75-87.49-19.14,128.59-59.88,520.18-239.23,830.83-349.34,377.25-133.71,592.13-205.34,654.21-119.38,62.08,85.96-164.75,267.42-40.59,272.19,124.16,4.77,422.61-33.43,534.83-11.94,111.99,21.44,100.33,64.3,131.14,66.84.12.01.18.01.18.01,31.04,2.39,269.8-14.33,298.46,28.65,28.65,42.98.38,133.16.38,133.16Z"/><path class="cls-4" d="m2566.46,692.78h0s-41.38-32.28-50.93-42.01c-9.55-9.72-21.49,13.71-28.65,23.73-7.16,10.02-7.96-21.17-7.96-30.72s-68.56,62.31-68.56,62.31v-.02c32.21-56.69,65.21-106.54,84.08-106.45,18.95.08,44.78,41.13,72.02,93.17Z"/><path class="cls-3" d="m2152.23,909.45s48.93-129.57,74.4-125.59c25.47,3.98,60.28,62.75,60.28,62.75,0,0-35.41-30.32-41.97-20.17-6.57,10.15-7.76,30.19-19.1,20.17-11.34-10.02-18.5-11.47-24.47,0-5.97,11.47-49.13,62.84-49.13,62.84Z"/><path class="cls-25" d="m894.72,1651.37c-31.04,38.2-222.05,50.14-216.08,77.6,4.79,22,93.08,37.87,98.54,64.18h-33.24s-240.38-.13-240.38-.13c-30.74-.01-60.5-6.75-87.49-19.14-40.89-18.77-75.41-50.52-97.37-91.6-15.57-29.14-32.35-63.27-48.62-101.4,0,0,81.45-82.05,282.02-49.95,200.56,32.1,228.37-51.14,322.33-25.2,93.97,25.94,118.19,3.84,152.81,25.2,34.62,21.36-131.32,57.17-149.23,73.88-17.91,16.71,47.75,8.36,16.71,46.56Z"/><path class="cls-25" d="m374.58,1539.41s-40.98-98.11-2.22-119.48-4.35,84.23,12.21,123.42c8.2,19.4-9.99-3.94-9.99-3.94Z"/><path class="cls-25" d="m355.68,1563.48s-50.52-62-26.96-86.12c23.55-24.12,14.72,62.04,35.04,86.75,10.06,12.24-8.07-.63-8.07-.63Z"/><path class="cls-25" d="m392.88,1557.84s-4.78-97.38,35.78-104.04c40.56-6.66-30.39,71.54-28.31,110.49,1.03,19.29-7.47-6.45-7.47-6.45Z"/><path class="cls-24" d="m534.5,1656.09s-5.58-58.75,15.75-63.81c21.33-5.06-4.69,61.19-4.69,61.19l-11.06,2.62Z"/><path class="cls-24" d="m550.42,1657.57s22.85-46.21,43.35-39.78c20.5,6.44-32.72,43.11-32.72,43.11l-10.63-3.34Z"/><path class="cls-24" d="m506.34,1659.33s23.08-12.73,42.98-9.55c19.9,3.18,23.08,6.37,31.84,9.55,8.75,3.18,19.5,9.55,14.72,12.34-4.78,2.79-44.57-2.39-54.12,0-9.55,2.39-59.52-3.61-35.42-12.34Z"/><path class="cls-24" d="m958.67,1738.97s26.78-124.72,64.09-95.48c37.31,29.24-42.23,58.04-64.09,95.48Z"/><path class="cls-24" d="m947.71,1745.83s-12.24-90.63,12.52-95.06c24.76-4.43-12.2,67.63-12.52,95.06Z"/><path class="cls-24" d="m922.48,1738.69s21.39-10.38,36.96-9.42c15.57.96,57.47,5.92,53.63,14.21-3.84,8.29-45.75,1.12-56.37,2.47-10.62,1.35-45.68.58-34.21-7.25Z"/><path class="cls-25" d="m2367.47,1650.67s-.8-42.98,19.1-50.54c19.9-7.56-17.11,39.4-19.1,50.54Z"/><path class="cls-25" d="m2383.45,1644.55s15.19-54.37,43.07-56.39c27.88-2.02-36.37,43.12-43.07,56.39Z"/><path class="cls-25" d="m521.15,1458.61c8.01,3.24,36.61.62,37.53-1.67.93-2.29-17.78-24.08-25.79-27.32-8-3.24-17.12.62-20.37,8.62-3.24,8,.62,17.12,8.62,20.37Z"/><path class="cls-25" d="m593.3,1472.26c-4.49,7.38-6.52,36.03-4.42,37.31,2.1,1.28,26.63-13.66,31.13-21.03,4.49-7.38,2.16-17-5.22-21.49-7.38-4.49-17-2.16-21.49,5.22Z"/><path class="cls-25" d="m554.75,1528.33c8.23,2.63,36.55-2.17,37.3-4.52.75-2.35-19.56-22.66-27.79-25.28-8.23-2.63-17.03,1.92-19.65,10.14-2.63,8.23,1.92,17.03,10.15,19.65Z"/><path class="cls-25" d="m596.41,1556.06c-.03-.65-3.19-65.49-38.7-98.97l.75-.8c35.83,33.79,39.01,99.07,39.04,99.73l-1.1.05Z"/><path class="cls-25" d="m823.34,1405.25c-7.77,5.16-38.61,8.55-40.08,6.33-1.47-2.22,13.62-29.32,21.4-34.48,7.77-5.16,18.26-3.04,23.42,4.73,5.16,7.77,3.04,18.26-4.73,23.42Z"/><path class="cls-25" d="m749.93,1435.27c6.35,6.84,14.68,36.72,12.72,38.53-1.95,1.81-31.14-8.71-37.48-15.55-6.35-6.84-5.95-17.53.89-23.87,6.84-6.35,17.52-5.95,23.87.89Z"/><path class="cls-25" d="m802.82,1486.29c-8.14,4.55-39.15,5.59-40.45,3.27s15.81-28.2,23.96-32.75c8.14-4.55,18.43-1.64,22.99,6.5,4.55,8.14,1.64,18.43-6.5,22.99Z"/><path class="cls-25" d="m764.71,1524.62c-.11-.7-10.75-70,19.6-113.09l-.97-.68c-30.63,43.49-19.92,113.27-19.8,113.97l1.17-.19Z"/><path class="cls-25" d="m669.77,1561.61l-2.28-.36c-8.97-116.08-44.42-199.37-44.91-200.5l2.07-.89c.5,1.15,36.2,84.99,45.12,201.76Z"/><path class="cls-7" d="m598.53,1349.06c4.37,4.95,24.84,12.92,26.25,11.67,1.41-1.25-3.95-22.55-8.32-27.5-4.37-4.95-11.93-5.42-16.88-1.05-4.95,4.37-5.42,11.93-1.05,16.88Z"/><path class="cls-7" d="m629.9,1331.8c-3.95,5.3-7.53,26.96-6.02,28.09,1.51,1.13,21.25-8.5,25.2-13.8,3.95-5.3,2.85-12.79-2.44-16.74-5.3-3.95-12.79-2.85-16.74,2.44Z"/><path class="cls-7" d="m653.44,1354.84c-6.37-1.74-27.85,2.85-28.35,4.67-.5,1.82,15.69,16.67,22.06,18.41,6.37,1.74,12.95-2.02,14.68-8.39,1.74-6.37-2.02-12.95-8.39-14.68Z"/><path class="cls-7" d="m638.93,1383.57c-.64-6.57-12.54-25.03-14.42-24.85-1.88.18-10.03,20.58-9.39,27.15.64,6.57,6.48,11.39,13.05,10.75,6.57-.64,11.39-6.48,10.75-13.05Z"/><path class="cls-7" d="m606.35,1382.16c5.85-3.07,18.45-21.06,17.57-22.73-.88-1.67-22.84-1.52-28.69,1.55-5.85,3.07-8.1,10.3-5.03,16.15,3.07,5.85,10.3,8.1,16.15,5.03Z"/><path class="cls-1" d="m620.03,1358.8c.34-2.15,2.36-3.61,4.51-3.27,2.15.34,3.61,2.36,3.27,4.51-.34,2.15-2.36,3.61-4.51,3.27-2.15-.34-3.61-2.36-3.27-4.51Z"/><path class="cls-25" d="m669.12,1442.93c-6.5,7.99-13.51,41.52-11.23,43.38,2.28,1.86,33.67-11.85,40.17-19.84,6.5-7.99,5.29-19.74-2.7-26.24-7.99-6.5-19.74-5.29-26.24,2.7Z"/><path class="cls-25" d="m878.29,1569.25l2.28-.36c8.97-116.07,44.42-199.37,44.91-200.5l-2.07-.89c-.49,1.15-36.2,84.99-45.12,201.76Z"/><path class="cls-7" d="m949.53,1356.7c-4.37,4.95-24.84,12.92-26.25,11.67-1.41-1.25,3.95-22.55,8.32-27.5,4.37-4.95,11.93-5.42,16.88-1.05,4.95,4.37,5.42,11.93,1.05,16.88Z"/><path class="cls-7" d="m918.17,1339.44c3.95,5.3,7.53,26.96,6.02,28.09-1.51,1.13-21.25-8.5-25.2-13.8-3.95-5.3-2.85-12.79,2.44-16.74,5.3-3.95,12.79-2.85,16.74,2.44Z"/><path class="cls-7" d="m894.62,1362.48c6.37-1.74,27.85,2.85,28.35,4.67.5,1.82-15.69,16.67-22.06,18.41-6.37,1.74-12.95-2.02-14.68-8.39-1.74-6.37,2.02-12.95,8.39-14.68Z"/><path class="cls-7" d="m909.13,1391.2c.64-6.57,12.54-25.03,14.42-24.85,1.88.18,10.03,20.58,9.39,27.15-.64,6.57-6.48,11.39-13.05,10.75-6.57-.63-11.39-6.48-10.75-13.05Z"/><path class="cls-7" d="m941.71,1389.79c-5.85-3.07-18.45-21.06-17.57-22.73.88-1.67,22.84-1.52,28.69,1.55,5.85,3.07,8.1,10.3,5.03,16.15-3.07,5.85-10.3,8.1-16.15,5.03Z"/><path class="cls-1" d="m928.03,1366.44c-.34-2.15-2.36-3.61-4.51-3.27-2.15.34-3.61,2.36-3.27,4.51.34,2.15,2.36,3.61,4.51,3.27,2.15-.34,3.61-2.36,3.27-4.51Z"/><path class="cls-25" d="m878.94,1450.57c6.5,7.99,13.51,41.52,11.23,43.38-2.28,1.85-33.67-11.85-40.17-19.84-6.5-7.99-5.29-19.74,2.7-26.24,7.99-6.5,19.74-5.29,26.24,2.7Z"/><path class="cls-25" d="m2183.37,1533.73c10.48,4.62,48.51,2.31,49.83-.69,1.32-2.99-22.6-32.65-33.08-37.28-10.48-4.63-22.73.12-27.36,10.61-4.63,10.48.12,22.73,10.61,27.36Z"/><path class="cls-25" d="m2278.49,1554.75c-6.26,9.6-10.11,47.5-7.37,49.29,2.74,1.79,35.87-17.03,42.13-26.63,6.26-9.6,3.55-22.45-6.05-28.71-9.6-6.26-22.45-3.55-28.71,6.05Z"/><path class="cls-25" d="m2225.1,1627.53c10.8,3.81,48.55-1.39,49.64-4.48,1.09-3.08-25.02-30.84-35.82-34.65-10.8-3.81-22.66,1.85-26.47,12.66-3.81,10.8,1.85,22.66,12.66,26.47Z"/><path class="cls-25" d="m2279.21,1665.99c-.01-.87-1.58-86.97-47.3-132.8l1.03-1.03c46.14,46.25,47.71,132.95,47.72,133.82l-1.46.02Z"/><path class="cls-25" d="m2349.71,1668.55l-1.99-.32c-7.85-101.59-38.87-174.48-39.31-175.47l1.82-.78c.43,1,31.68,74.38,39.49,176.58Z"/><path class="cls-7" d="m2287.36,1482.54c3.83,4.33,21.74,11.31,22.98,10.21,1.24-1.09-3.46-19.73-7.28-24.07s-10.44-4.75-14.77-.92c-4.33,3.83-4.75,10.44-.92,14.77Z"/><path class="cls-7" d="m2314.81,1467.43c-3.45,4.63-6.59,23.6-5.27,24.58,1.32.99,18.6-7.44,22.05-12.08,3.45-4.63,2.5-11.19-2.14-14.65-4.63-3.45-11.19-2.5-14.65,2.14Z"/><path class="cls-7" d="m2335.42,1487.59c-5.58-1.52-24.38,2.5-24.81,4.09-.43,1.59,13.73,14.59,19.3,16.11,5.58,1.52,11.33-1.77,12.85-7.35,1.52-5.58-1.77-11.33-7.35-12.85Z"/><path class="cls-7" d="m2322.72,1512.74c-.56-5.75-10.98-21.91-12.62-21.75-1.64.16-8.77,18.01-8.22,23.76.56,5.75,5.67,9.97,11.42,9.41,5.75-.56,9.97-5.67,9.41-11.42Z"/><path class="cls-7" d="m2294.21,1511.5c5.12-2.69,16.14-18.43,15.38-19.89-.77-1.46-19.99-1.33-25.11,1.36-5.12,2.69-7.09,9.01-4.4,14.13,2.69,5.12,9.01,7.09,14.13,4.4Z"/><path class="cls-1" d="m2306.18,1491.06c.3-1.88,2.07-3.16,3.95-2.86,1.88.3,3.16,2.07,2.86,3.95-.3,1.88-2.07,3.16-3.95,2.86-1.88-.3-3.16-2.07-2.86-3.95Z"/><path class="cls-25" d="m2349.14,1564.69c-5.69,7-11.83,36.34-9.83,37.96,2,1.62,29.47-10.37,35.16-17.36,5.69-6.99,4.63-17.28-2.37-22.96-6.99-5.69-17.28-4.63-22.96,2.37Z"/><path class="cls-25" d="m2825.51,1794.08l-475.45-.21c2.4-22.66,45.44-34.11,41.45-56.47-5.12-28.65-216.93-39.4-131.93-75.95,83.48-35.9,260.58-29.43,266.91-29.19.12.01.18.01.18.01,31.04,2.39,269.8-14.33,298.46,28.65,28.65,42.98.38,133.16.38,133.16Z"/><path class="cls-14" d="m1415.99,1533.74s2.92,45.58,11.75,46.21c1.17.08,44.73,0,44.73,0l55.6-.44s-.39-13.4-16.65-16.19c-16.26-2.8-43.49-14.16-53.38-35.62-10.41-22.57-42.04,6.05-42.04,6.05Z"/><path class="cls-14" d="m1698.93,1495.11s8.49,44.88,17.32,44.42c1.17-.06,44.39-5.49,44.39-5.49l55.13-7.25s-2.03-13.25-18.51-14.03c-16.48-.78-44.89-8.73-57.34-28.81-13.09-21.13-40.99,11.16-40.99,11.16Z"/><path class="cls-19" d="m1600.34,1043.45s-14.34,93.04-68.23,258.25c-53.89,165.22-61.12,236.72-61.12,236.72l-58.2-1.51s-.89-180.43,23.93-263.51c24.82-83.08,4.75-299.31,4.75-299.31l158.88,69.35Z"/><path class="cls-20" d="m1616.13,959s79.23,160,99.38,286.66c20.15,126.66,36.02,242.55,36.02,242.55,0,0-19.47,7.16-55.96,10.32,0,0-61.74-183.9-68.29-229.7-6.55-45.8-190.54-228.9-176.18-274.09,14.37-45.19,165.02-35.74,165.02-35.74Z"/><path class="cls-6" d="m1501.33,650.36s-81.82,78.55-85.74,110.89c-3.92,32.34,39.7,82.82,39.7,82.82l46.04-193.72Z"/><path class="cls-9" d="m1515.38,651.06l30.99,20.22,44.7-8.43c-.63-3.61-3.61-18.56-6.33-32.11-.16-.8-.33-1.6-.48-2.38-2.33-11.53-4.34-21.43-4.34-21.43l-41.81-18.34-15.59-6.84c.04.24,1.23,12.8,1.4,14.63,2.99,32.54-8.54,54.68-8.54,54.68Z"/><path class="cls-6" d="m1579.56,640.68c-.87-.36-53.89-15.88-59.64-13.97-5.75,1.91-9.14,13.06-9.14,13.06l86.71,19.4s-6.85-13.85-17.93-18.49Z"/><path class="cls-1" d="m1437.66,996.5c9.07,40.95,158.55,45.49,197,8.21,4.37-4.25,4.55-23.97,2.84-50.56-3.35-51.95-13.9-130.08-14.39-170.01-.24-19.28-2.93-39-6.5-56.9-7.59-38.15-19.11-68.08-19.11-68.08,0,0-73.06-23.44-86.71-19.4-65.77,19.48-82.2,315.78-73.13,356.73Z"/><path class="cls-6" d="m1637.5,954.16c-3.35-51.95-5.16-137.72-5.65-177.65-.24-19.28-11.68-31.35-15.24-49.25l-43.93-7.65s-42.56,175.47,64.82,234.56Z"/><path class="cls-19" d="m1558.65,892.7s49.76-43.48,68.37-70.98l14.06,9.5s-39.23,65.66-76.73,82.97c-37.5,17.31-5.7-21.49-5.7-21.49Z"/><path class="cls-10" d="m1527.06,596.95c9.21,15.52,43.41,28.88,57.68,33.79-.16-.8-.33-1.6-.48-2.38-2.33-11.53-4.34-21.43-4.34-21.43l-41.81-18.34c-9.23-.11-14.85,1.97-11.05,8.36Z"/><path class="cls-9" d="m1594.11,602.44s-63.46,30.66-81.95-9.15c-18.49-39.81-39.13-62.67.61-83.93,39.74-21.26,54.72-9.75,64.12,2.04,9.4,11.79,33.25,82.04,17.22,91.04Z"/><path class="cls-23" d="m1573.69,507.77s-16.97,12.33-8.34,44.43c2.69,10-26.1-10.89-15.04,17.61,5.37,13.84,6.05,23.42-24.45,30.6-16.35,3.85-13.69-7.14-29.53-11.83-2.21-.66-2.44-14.56-10.87-15.35-4.14-.39-7.92-11.61-11.55-12.72-3.96-1.22.92-11.09-2.77-12.4-8.57-3.06-5.69-7.36-5.69-10.9,0-7.35-7.36-9.97-6.11-13.23,1.9-4.96,11.1-8.31,8.9-14.16-1.49-3.97,18.08-8.06,12.36-15.76-4.69-6.31,16.12-5.7,22.27-10.9,21.49-18.18,45.17-8.8,52.42-3.53,4.31,3.14,8.6,4.83,14.25.88,7-4.9.26,15.04,1.27,14.92,14.89-1.86,3.25,2.06,1.01,4.98-1.68,2.19,4.78,2.84,1.86,7.36Z"/><path class="cls-19" d="m1471.5,822.1s-7.59.91-8.29,8.05c-.7,7.14-5.49,94.07-1.14,96.36,4.35,2.3,22.42,1.37,23.47,0,1.05-1.37,4.96-96.76,2.33-102.51,0,0-8.81-3.42-16.37-1.91Z"/><path class="cls-9" d="m1637.93,921.26s10.48,7.77,12.68,16.21c3.57,13.66,1.29,26.44-12.11,31.57-4.95,1.89-5.62-9.84-9.28-14.88-3.66-5.04-16.73-7.83-13.74-15.51,2.99-7.68,8.83-22.69,8.83-22.69l13.61,5.3Z"/><path class="cls-9" d="m1620.49,925.79s-8.29,9.11-9.14,14.98c-.85,5.87-1.19,14.93-1.38,18.8-.19,3.87,1.75,7.07,5.34.76,3.58-6.3,6.66-14.68,9.1-14.67s-3.9-19.87-3.9-19.87Z"/><path class="cls-1" d="m1563.07,648.81s52.03,9.2,92.18,68.09c40.15,58.89,55.02,96.55,47.69,117.82-7.33,21.27-43.89,87.22-51.28,96.15-6.32,7.64-24.63,7.09-36.62,1.93,0,0,23.22-98.12,13.88-108.72-3.99-4.53-55.49-48.02-63.64-26.94-13.49,34.88-2.21-148.32-2.21-148.32Z"/><path class="cls-19" d="m1607.52,668.85s-8.53-15.06-28.73-18.07c-20.2-3.01-32.42,20.5-32.42,20.5l15.11,5.74s9.72-17.84,18.5-17.84c11.09,0,20.06,3.77,27.54,9.68Z"/><path class="cls-19" d="m1574.77,741.05s-21.05-.28-48.01-.91c-47.42-1.09-113.16-3.22-114.85-6.66-2.64-5.41.87-65.58,17.08-69.93,1.41-.38,3.43-.7,5.95-.93,26.17-2.51,106.2,2.24,124.66,8.18,20.21,6.52,15.18,70.25,15.18,70.25Z"/><path class="cls-20" d="m1526.76,740.14c-47.42-1.09-113.16-3.22-114.85-6.66-2.64-5.41.87-65.58,17.08-69.93,1.41-.38,3.43-.7,5.95-.93,30.96,1.35,65.3,4.54,76.58,8.18,18.8,6.06,15.77,61.54,15.24,69.34Z"/><path class="cls-20" d="m1574.77,741.05s-162.43-16.14-190.56-6.75c-28.13,9.39-28.13,201.03-19.34,214.21,8.79,13.19,168.36,25.43,190.99,18.43,22.63-7,18.91-225.89,18.91-225.89Z"/><path class="cls-19" d="m1526.79,736.82s-22.25,2.03-24.28,17.85c-2.04,15.82-16.08,208.48-3.35,213.57,12.73,5.1,65.7,3.04,68.78,0,3.08-3.03,14.54-214.45,6.83-227.2,0,0-25.83-7.57-47.98-4.23Z"/><path class="cls-19" d="m1426.07,684.31s-5.18,26.73,1.51,30.8c6.69,4.07,22.93,5.23,26.97.46,4.04-4.77,3.16-30.72,3.16-30.72l-31.64-.54Z"/><path class="cls-22" d="m1426.07,684.31s2.27,10.81,14.94,11.03c12.67.22,16.7-10.48,16.7-10.48,0,0-17.2-7.78-31.64-.54Z"/><path class="cls-1" d="m1438.72,691.12c.02-1.3,1.1-2.34,2.4-2.32,1.3.02,2.34,1.1,2.32,2.4-.02,1.3-1.1,2.34-2.4,2.32-1.3-.02-2.34-1.1-2.32-2.4Z"/><path class="cls-19" d="m1473.91,687.56s-6.88,26.34-.47,30.83c6.41,4.49,22.55,6.69,26.89,2.19,4.33-4.5,5.12-30.45,5.12-30.45l-31.54-2.57Z"/><path class="cls-22" d="m1473.91,687.56s1.57,10.93,14.2,11.96,17.34-9.39,17.34-9.39c0,0-16.66-8.87-31.54-2.57Z"/><path class="cls-1" d="m1486.1,695.17c.11-1.3,1.25-2.27,2.55-2.16,1.3.11,2.27,1.25,2.16,2.55-.11,1.3-1.25,2.27-2.55,2.16-1.3-.11-2.27-1.25-2.16-2.55Z"/><path class="cls-19" d="m1381.13,756.87s-7.03,24.83-3.08,31.32,93.18,10.88,98.9,5.6,6.59-33.84,6.59-33.84l-102.41-3.08Z"/><path class="cls-22" d="m1381.13,756.87s12.2,15.38,43.02,15.82c30.82.44,59.39-12.75,59.39-12.75,0,0-72.08-12.75-102.41-3.08Z"/><circle class="cls-1" cx="1422.01" cy="766.87" r="2.64"/><path class="cls-22" d="m1459.12,821.08s-73.7-3.15-77.98,0c-4.29,3.15-5.93,104.68-2.64,109.62,3.3,4.94,77.8,7.25,77.8,7.25l2.82-116.88Z"/><path class="cls-18" d="m3032.64,1559c-45.16-2.2-113.13-5.68-171.7-9.49-97.89-6.38-54.92-36.61-9.55-79.6,45.37-43-140.87-19.09-279.35-9.5-138.48,9.59-346.21,4.74-272.21-55.19,73.98-59.94,611.75-128.13,611.75-128.13,2.16,2.12,4.31,4.27,6.45,6.43,3.68,3.7,7.32,7.44,10.91,11.22,14.82,15.51,28.96,31.74,41.76,49.32,2.81,3.81,5.52,7.69,8.18,11.63,3.12,4.64,6.14,9.38,9.05,14.23,9.28,15.4,17.48,31.89,24.26,49.78,14.65,38.69,22.66,84,20.46,139.31Z"/><path class="cls-24" d="m441.2,1231.15c-45.5,0-119.01,2.39-96.58,16.71,22.43,14.33,41.53,35.81-34.87,38.2-75.53,2.36-118.83,6.17-119.81,6.26-5.41-43.92-7.66-89.31-5.69-135.56,0,0,70.76-20.16,113.74,0,42.98,20.16,73.85,3.95,107.28,25.44,33.43,21.49,103.86,23.88,118.19,35.81,14.33,11.94-36.76,13.13-82.24,13.13Z"/><path class="cls-8" d="m2198.78,1722.12l3.35-56.94s-28.65-23.84-32.75-25.48c-4.1-1.64-65.95-11.1-65.95-11.1l2.67,53.48,19.37,38.86,73.3,1.18Z"/><path class="cls-2" d="m2057.91,1720.24s-4-41.46-1.87-45.99c2.13-4.53,40.95-46.96,47.4-45.65,6.44,1.31,41.99,14.58,48.21,19.6,6.22,5.02,20.68,44.26,20.44,48.34-.24,4.08-1.48,25.12-1.48,25.12l-112.7-1.42Z"/><path class="cls-8" d="m2102.99,1735.45l.44-24.44c.07-3.83-1.69-7.46-4.75-9.77-6.61-4.98-17.85-13.31-19.98-14.07-1.91-.68-20.53-2.93-34.21-4.52-7.54-.88-13.98,5.41-13.29,12.97l2.01,22.12c.15,1.64.64,3.24,1.43,4.68l10.7,19.44c2.15,3.91,6.31,6.3,10.78,6.19l35.21-.87c6.41-.16,11.55-5.34,11.67-11.75Z"/><path class="cls-2" d="m2009.97,1749.44c-6.2.17-11.5-4.41-12.22-10.57-1.07-9.08-2.24-20.86-1.38-22.9,1.43-3.4,38.82-33.76,43.6-32.99,4.78.77,21.21,7.46,25.94,10.97s16.54,31.93,16.48,34.94l-.13,7.1c-.12,6.39-5.24,11.56-11.63,11.74l-60.67,1.71Z"/><path class="cls-8" d="m1116.74,1588.21l-.37-20.67c-.06-3.24,1.43-6.31,4.02-8.26,5.59-4.21,15.09-11.26,16.9-11.9,1.62-.57,17.36-2.47,28.93-3.82,6.38-.74,11.82,4.57,11.24,10.97l-1.7,18.71c-.13,1.39-.54,2.74-1.21,3.96l-9.05,16.44c-1.82,3.31-5.34,5.33-9.11,5.24l-29.78-.74c-5.42-.13-9.77-4.51-9.87-9.93Z"/><path class="cls-2" d="m1195.41,1600.05c5.24.15,9.72-3.73,10.33-8.94.9-7.68,1.89-17.64,1.17-19.36-1.21-2.87-32.83-28.55-36.87-27.9-4.04.65-17.94,6.31-21.94,9.28-4,2.97-13.99,27-13.94,29.54l.11,6c.1,5.41,4.43,9.78,9.83,9.93l51.3,1.45Z"/><path class="cls-8" d="m1032.2,1603.41l-.2-11.24c-.03-1.76.78-3.43,2.19-4.49,3.04-2.29,8.21-6.12,9.19-6.47.88-.31,9.44-1.35,15.73-2.08,3.47-.4,6.43,2.49,6.11,5.96l-.93,10.17c-.07.76-.29,1.49-.66,2.15l-4.92,8.94c-.99,1.8-2.9,2.9-4.96,2.85l-16.19-.4c-2.95-.07-5.31-2.46-5.37-5.4Z"/><path class="cls-2" d="m1074.98,1609.84c2.85.08,5.29-2.03,5.62-4.86.49-4.17,1.03-9.59.63-10.53-.66-1.56-17.85-15.53-20.05-15.17-2.2.35-9.75,3.43-11.93,5.04-2.17,1.61-7.61,14.68-7.58,16.07l.06,3.26c.05,2.94,2.41,5.32,5.35,5.4l27.9.79Z"/><path class="cls-8" d="m1871.77,1639.94l-.2-11.24c-.03-1.76.78-3.43,2.19-4.49,3.04-2.29,8.21-6.12,9.19-6.47.88-.31,9.44-1.35,15.73-2.08,3.47-.4,6.43,2.49,6.11,5.96l-.93,10.17c-.07.76-.29,1.49-.66,2.15l-4.92,8.94c-.99,1.8-2.9,2.9-4.96,2.85l-16.19-.4c-2.95-.07-5.31-2.45-5.37-5.4Z"/><path class="cls-2" d="m1914.54,1646.38c2.85.08,5.29-2.03,5.62-4.86.49-4.18,1.03-9.59.63-10.53-.66-1.56-17.85-15.53-20.05-15.17s-9.75,3.43-11.93,5.04c-2.17,1.61-7.61,14.68-7.58,16.07l.06,3.26c.05,2.94,2.41,5.32,5.35,5.4l27.9.79Z"/><path class="cls-8" d="m806.33,1758.38l-.2-11.24c-.03-1.76.78-3.43,2.19-4.49,3.04-2.29,8.21-6.12,9.19-6.47.88-.31,9.44-1.34,15.73-2.08,3.47-.4,6.43,2.49,6.11,5.96l-.93,10.17c-.07.76-.29,1.49-.66,2.15l-4.92,8.94c-.99,1.8-2.9,2.9-4.96,2.85l-16.19-.4c-2.95-.07-5.31-2.45-5.37-5.4Z"/><path class="cls-2" d="m849.11,1764.82c2.85.08,5.29-2.03,5.62-4.86.49-4.18,1.03-9.59.63-10.53-.66-1.56-17.85-15.53-20.05-15.17-2.2.35-9.75,3.43-11.93,5.04-2.17,1.61-7.61,14.68-7.58,16.07l.06,3.26c.05,2.94,2.41,5.32,5.35,5.4l27.9.79Z"/><path class="cls-8" d="m1065.38,1570.6l-.14-7.83c-.02-1.23.54-2.39,1.52-3.13,2.12-1.59,5.72-4.26,6.4-4.51.61-.22,6.58-.94,10.96-1.45,2.42-.28,4.48,1.73,4.26,4.15l-.64,7.09c-.05.53-.2,1.04-.46,1.5l-3.43,6.23c-.69,1.25-2.02,2.02-3.45,1.98l-11.28-.28c-2.05-.05-3.7-1.71-3.74-3.76Z"/><path class="cls-2" d="m1095.18,1575.08c1.99.06,3.68-1.41,3.91-3.38.34-2.91.72-6.68.44-7.33-.46-1.09-12.43-10.81-13.96-10.57-1.53.25-6.79,2.39-8.31,3.51-1.51,1.12-5.3,10.23-5.28,11.19l.04,2.27c.04,2.05,1.68,3.7,3.72,3.76l19.43.55Z"/></svg>