<svg xmlns="http://www.w3.org/2000/svg" xmlns:xlink="http://www.w3.org/1999/xlink" width="840" height="1120" viewBox="0 0 840 1120">
  <defs>
    <clipPath id="clip-Wireframe_sketch_mobile-thin">
      <rect width="840" height="1120"/>
    </clipPath>
  </defs>
  <g id="Wireframe_sketch_mobile-thin" data-name="Wireframe sketch mobile-thin" clip-path="url(#clip-Wireframe_sketch_mobile-thin)">
    <g id="Wireframe_loci_mobile_2023_11_01_1515" data-name="Wireframe loci mobile 2023 11 01 1515" transform="translate(-304.65 -724.12)">
      <g id="Vektorlag_1_" transform="translate(405.62 724.12)">
        <path id="Path_194" data-name="Path 194" d="M408.181,1625.115v-99.641c-1.994-40.573-.19-82.333-.855-123.334-1.187-207.994.119-416.652-.285-624.86-.071-1.8-.261-4.3,2.16-4.321a2.11,2.11,0,0,1,2.16,2.018c-.427,208.967.926,418.433-.285,627.186-.641,40.977,1.14,82.713-.855,123.31v99.64a.928.928,0,0,1-1,.926A.942.942,0,0,1,408.181,1625.115Z" transform="translate(-403.98 -657.01)" fill="#0093ff"/>
        <path id="Path_195" data-name="Path 195" d="M671.011,1556.429c-.119-15.289-.142-30.578-.19-45.844a4.1,4.1,0,0,1-2.873-3.917c-.332-7.431-.166-14.933-.214-22.388.047-23,.142-46.034.142-69.039q.071-93.551-.142-187.078-.392-139.2-.451-278.433c.024-30.816,0-61.679.166-92.495.594-5.152-1.282-11.04,1.282-15.645.095-14.957.024-29.913.19-44.847a3.505,3.505,0,0,1,4.653-3.965c1.923.712,2.208,2.8,2.089,4.558.166,14.767.119,29.486.19,44.229a4.321,4.321,0,0,1,1.021,2.184c.451,7.075.142,14.221.285,21.3.095,23.266.095,46.508.119,69.751q.178,139.1-.4,278.243-.249,116.342-.119,232.708c-.047,20.322.427,40.644-.119,60.919a4.1,4.1,0,0,1-2.9,3.917c-.047,15.289-.071,30.578-.166,45.867-.166,1.306.641,3.822-1.282,3.846C670.346,1560.275,671.177,1557.735,671.011,1556.429Z" transform="translate(-46.08 -630.131)" fill="#0093ff"/>
        <path id="Path_196" data-name="Path 196" d="M488.878,738.966c-5.437-.024-10.85,0-16.263-.047a6.455,6.455,0,0,1-4.867-1.852,5.255,5.255,0,0,1,1.567-8.286c2.588-.973,5.437-.855,8.286-.736a44.43,44.43,0,0,0,4.7.024q69.656-.036,139.335.5,34.614.321,69.276.855c6.434.214,12.868.071,19.278.451a3.914,3.914,0,0,1,2.659,1.472q57.477.178,114.977.332c4.914.024,9.829.19,14.767.024a1.832,1.832,0,1,1,0,3.656c-4.487-.119-8.974-.071-13.485,0-3.181.024-6.363.071-9.544.071q-53.381.249-106.715.309c-1.567,1.781-3.988,1.686-6.315,1.614a16.363,16.363,0,0,0-2.873.048q-21.794.427-43.636.641c-54.77.736-109.54.926-164.311.926Z" transform="translate(-322.171 -718.834)" fill="#0093ff"/>
        <path id="Path_197" data-name="Path 197" d="M523.942,1196.3c-2.255,0-4.487,0-6.719-.095a2.993,2.993,0,0,1-2.517-1.615q-24.714-.036-49.4-.1c-.332-.807-.712-1.615-1.092-2.422l50.5-.071c1.021-1.97,3.348-1.709,5.247-1.709,15.74-.119,31.48-.048,47.221-.048q76.315.036,152.606.024H778.3a19.013,19.013,0,0,0-.166,6.03q-23.646.036-47.316,0h-101.4q-50.675.036-101.374.024C526.672,1196.3,525.3,1196.3,523.942,1196.3Z" transform="translate(-325.113 -83.656)" fill="#0093ff"/>
        <path id="Path_198" data-name="Path 198" d="M410.57,794.424c-5.081-5.1-1.947-17.426,2.279-29.439,1.4-1,2.825-2.018,4.25-3.015-5.413,12.084-10.114,25.45-4.914,31.314.594.712-.166,1.52-.9,1.52A.938.938,0,0,1,410.57,794.424Z" transform="translate(-402.428 -672.111)" fill="#0093ff"/>
        <path id="Path_199" data-name="Path 199" d="M453.59,739.154l10.327-5.342c3.846-1.994,7.811-3.822,11.491-6.125,2.9-.285,5.769-.594,8.594-.9,7.906-1.045,15.218.57,22.957,1.733,4.2.688,11.277-.332,11.586,5.555-.95,8.547-13.817,3.371-19.444,3.347-7.929-1.923-16.12-.926-24.121-.024a111.512,111.512,0,0,0-22.72,3.158C452.735,740.1,453.162,739.629,453.59,739.154Z" transform="translate(-341.533 -720.921)" fill="#0093ff"/>
        <path id="Path_200" data-name="Path 200" d="M606.96,734.05a1.024,1.024,0,1,1,1.021.95A1,1,0,0,1,606.96,734.05Z" transform="translate(-128.962 -711.781)" fill="#0093ff"/>
        <path id="Path_201" data-name="Path 201" d="M414.989,1177.2c-.119-.095-.237-.166-.356-.261-2.635-10.873-4.012-22.055-5.2-33.19-.285-4.321-1.591-8.547-1.543-12.891a1.013,1.013,0,0,1,2.018,0c.285,6.386,1.781,12.606,2.232,18.993a156.671,156.671,0,0,0,5.627,29.676A28.874,28.874,0,0,0,414.989,1177.2Z" transform="translate(-402.502 -166.501)" fill="#0093ff"/>
        <path id="Path_202" data-name="Path 202" d="M667.621,814.785c-4.178-.57-3.371-5.342-2.8-8.4a45.566,45.566,0,0,0,.641-10.945,6.248,6.248,0,0,0,2.279-.807c1.923-1.116,3.8-2.35,5.65-3.609.285,2.279.475,4.63.57,6.956-.047,4.368-.237,16.809-5.888,16.809A2.865,2.865,0,0,1,667.621,814.785Z" transform="translate(-50.098 -632.193)" fill="#0093ff"/>
        <path id="Path_203" data-name="Path 203" d="M663.67,785.32c.4.095.807.214,1.234.285a18.1,18.1,0,0,0,2.73.427c-1.068.688-2.137,1.4-3.181,2.089C664.216,787.2,663.955,786.27,663.67,785.32Z" transform="translate(-51.037 -640.026)" fill="#0093ff"/>
        <path id="Path_204" data-name="Path 204" d="M667.16,783.57a1.736,1.736,0,0,1,.095.332h-.047c-.332.048-.665.071-1,.095C666.519,783.855,666.851,783.713,667.16,783.57Z" transform="translate(-47.547 -642.43)" fill="#0093ff"/>
        <path id="Path_205" data-name="Path 205" d="M620.654,732.92a.939.939,0,0,1,.688-1.163,26.386,26.386,0,0,1,9.33-.855c1.187.261,2.327.546,3.49.878-.926.427-1.875.878-2.8,1.329l-1.781-.427a25.789,25.789,0,0,0-7.74.9.975.975,0,0,1-.261.024A.953.953,0,0,1,620.654,732.92Z" transform="translate(-110.202 -714.972)" fill="#0093ff"/>
        <path id="Path_206" data-name="Path 206" d="M665.139,1191.752c3.87-14.909,8.191-29.771,7.288-45.3-.427-9.473.166-19.254-3.2-28.109-1.306-2.422-3.252-4.653-3.086-7.55a1.013,1.013,0,0,1,2.018,0c-.119,2.279,1.377,4.06,2.445,5.935,5.033,10.707,4.226,23.195,4.8,34.781.57,12.891-2.968,25.355-5.793,37.8-.807.522-1.638,1.045-2.445,1.567l-2.137,1.353A3.48,3.48,0,0,1,665.139,1191.752Z" transform="translate(-49.182 -194.065)" fill="#0093ff"/>
        <path id="Path_207" data-name="Path 207" d="M720.964,1136.73a1.016,1.016,0,0,1,1.021-.95A32.43,32.43,0,0,0,733,1134.071c-80.885-3.989-162.1-5.437-242.846,1.044.119,1.567-1.876,1.52-3.656,1.448a7.863,7.863,0,0,0-2.184.071,14.556,14.556,0,0,0-2.042,0c-1.757.119-3.68.237-4.083-1.448a1,1,0,0,1,.736-.783c6.6-1.187,13.414-1.211,20.085-1.781,20.916-1.068,41.547-2.873,62.438-3.513,58.213-.214,117.446-1.163,175.16,4.012,1.828,2.113-7.787,4.582-12.773,4.582C722.128,1137.7,720.941,1137.419,720.964,1136.73Z" transform="translate(-305.903 -167.913)" fill="#0093ff"/>
        <path id="Path_208" data-name="Path 208" d="M542.126,1164.631H498.443a40.1,40.1,0,0,0-5.223-1.852l49.951-.071c34.923-.047,69.846-.119,104.769,0h-.024c-.166.594-.285,1.187-.4,1.781q-19.052,0-38.08.1-20.3.107-40.526.119C559.979,1164.726,551.029,1164.7,542.126,1164.631Z" transform="translate(-285.251 -121.551)" fill="#0093ff"/>
        <path id="Path_209" data-name="Path 209" d="M595.59,1160.64c.095.095.214.166.309.261l.926,1C596.421,1161.447,596.017,1161.044,595.59,1160.64Z" transform="translate(-144.585 -124.303)" fill="#0093ff"/>
        <path id="Path_210" data-name="Path 210" d="M622.414,1200.553c-1.5-.285-2.968-.641-4.44-1.021-.807-.285-1.638-.57-2.445-.854a1.864,1.864,0,0,0-.356-.285c13.532.19,27.041-.119,38.793-7.479,4.606-2.991,8.855-6.742,8.713-12.559.095-4.653-.214-9.639-1.923-14.007-2.16-3.585-6.078-5.437-9-8.357-7.668-8.167-17.687-13.224-28.038-17.046-11.277-5.2-23.432-6.363-35.635-5.342-2.588.166-5.176.594-7.763.689a.952.952,0,1,1,0-1.9c11.372-.76,23.266-2.3,34.329,1.282,12.986,4.629,26.661,9.259,36.846,18.945,3.775,4.036,9.306,6.149,12.108,10.992,4.273,11.775,4.155,23.812-7.93,30.483-6.956,4.653-14.672,6.671-22.649,7.526Q627.72,1201.23,622.414,1200.553Z" transform="translate(-166.969 -164.477)" fill="#0093ff"/>
        <path id="Path_211" data-name="Path 211" d="M455.3,1170.229c2.089-40.644,64.979-36.775,94.228-38.65a41.757,41.757,0,0,1,12.559-2.279c1.353.047,2.422,1.9,1.187,2.873-18.779,2.968-38.579.807-57.524,4.036-12.464,1.852-25.64,3.68-35.184,12.583-8.191,6.22-13.224,16.286-9.663,26.4a15,15,0,0,0,1.709,2.279,10.337,10.337,0,0,0,.57,1.781,11.315,11.315,0,0,0,1.519,2.849,14.471,14.471,0,0,0,1.092,1.306,1.73,1.73,0,0,0,.19.214,22.691,22.691,0,0,0,2.968,3.086,23.868,23.868,0,0,0,2.208,1.615c.095.214.214.427.309.665C463.23,1185.281,454.114,1180.3,455.3,1170.229Z" transform="translate(-337.499 -167.367)" fill="#0093ff"/>
        <path id="Path_212" data-name="Path 212" d="M459.715,1152.169a.522.522,0,0,0-.095-.119,2.52,2.52,0,0,1,.237.285A.745.745,0,0,1,459.715,1152.169Z" transform="translate(-331.42 -136.107)" fill="#0093ff"/>
        <path id="Path_213" data-name="Path 213" d="M554.662,1136.334l-.9-.071-.855-.095-.807-.071-.783-.119-.736-.095-.119-.024c1.8-1.686,3.537-1.163,4.724.5Z" transform="translate(-206.598 -159.776)" fill="#0093ff"/>
        <path id="Path_214" data-name="Path 214" d="M475.977,970.032c-13.556-.071-27.207.095-40.692-1.567-7.668-.712-15.242-4.368-22.958-2.991a.994.994,0,0,1-1.14-.807.96.96,0,0,1,.855-1.068,24.141,24.141,0,0,1,10.256.4c21.865,4.891,44.277,4.534,66.641,4.155,9.116-.143,18.186-.285,27.255-.095,61.156-1.543,122.076-7.787,183.232-9.116,40.526-1.14,81-3.633,121.553-3.894,49.974-.309,100.471,1.353,149.52-9.924,17.426-2.968,35.113-2.9,52.729-2.825,3.846.024,7.716.048,11.585.048a1.143,1.143,0,1,1,0,2.279c-10.921.071-21.794,0-32.691.166-28.988.071-56.693,9.211-85.562,10.422-52.064,3.205-104.2.333-156.263,3.324-47.173,2.137-94.465,2.873-141.591,6.006-42.211,2.778-84.351,5.627-126.634,5.627Q484.06,970.175,475.977,970.032Z" transform="translate(-397.989 -424.348)" fill="#0093ff"/>
        <path id="Path_215" data-name="Path 215" d="M424.495,1239.3c-4.083-.024,7.455-15.052,8.214-16.547,11.372-15.147,24.192-29.177,37.273-42.876,32.715-33.688,67.448-65.573,98.643-100.638,37.653-43.944,73.6-89.337,113.386-131.43,41.879-46.674,88.079-89.123,130.741-135.014,11.823-12.037,23.456-24.263,35.089-36.513a11.456,11.456,0,0,0,1.187-.38c.9-.332,1.781-.688,2.659-1.021-15.455,16.215-30.863,32.5-46.39,48.669-34.068,36.086-70.178,70.2-104.2,106.359q-61.572,65.7-118.135,135.8c-43.636,52.562-96.792,96.341-140.356,148.95a134.188,134.188,0,0,0-16.144,23.86,1.58,1.58,0,0,1-1.424.878A1.158,1.158,0,0,1,424.495,1239.3Z" transform="translate(-380.884 -654.371)" fill="#0093ff"/>
        <path id="Path_216" data-name="Path 216" d="M990.932,1187.66c-28.726-7.811-51.945-26.329-72.79-46.888-14.553-12.3-30.151-23.48-45.891-34.306-42.093-29.272-86.915-54.367-129.649-82.713-37.724-24.358-72.742-52.657-109.754-78.084-22.672-16.073-46.508-30.388-69.537-45.938-18.518-12.678-35.991-26.78-54.557-39.386-25.213-18.233-54.01-32.311-73.882-56.954-6.149-7.668-13.342-15.479-14.791-25.569a3.438,3.438,0,0,0-1.306.047c-.831.119-1.591.261-1.947-.736-.024-1.187,1.377-1.116,2.279-1.163a4.557,4.557,0,0,1,1.876.095c1.97,1.211,1.353,5.009,2.469,6.885,8.4,17.212,23.029,30.911,37.677,42.829,23.361,16.476,47.79,31.409,70.677,48.574,26.827,20.987,55.815,38.793,84.256,57.477,43.707,28.8,84.114,62.225,128.2,90.477,45.226,29.581,92.684,55.743,137.1,86.63,14.553,10.208,29.249,20.394,42.544,32.217,11.989,11.016,24.05,22.293,38.365,30.2,9.544,5.555,19.966,9.093,30.341,12.63a1.958,1.958,0,0,1,1.139,2.635,2.1,2.1,0,0,1-1.97,1.211A2.181,2.181,0,0,1,990.932,1187.66Z" transform="translate(-390.217 -652.944)" fill="#0093ff"/>
        <path id="Path_217" data-name="Path 217" d="M575.447,1177.568a81.383,81.383,0,0,0-16.595-.878c-1.472-.807.214-3.181,1.377-1.828,3.727-.594,7.478-.143,11.206.309a55.065,55.065,0,0,0,8.808.57c13.58-.641,26.993-2.3,40.431-3.775,20.939-2.564,42.781-4.962,61.8-14.506,2.374-3.632,7.929-2.16,5.674,2.137-4.107,5.437-11.538,6.054-17.521,8.286-15.1,4.843-31.2,5.128-46.841,6.695-15.693.546-31.457,2.968-47.173,2.968C576.231,1177.568,575.851,1177.568,575.447,1177.568Z" transform="translate(-195.855 -131.498)" fill="#0093ff"/>
        <path id="Path_218" data-name="Path 218" d="M557.065,1188.581a8.25,8.25,0,0,1-1.5-1.662,45.2,45.2,0,0,0-8.214-.071c-3.775.214-7.55.4-11.229-.665-10.09.546-20.2.237-29.866-2.8-2.754-.475-5.6,0-8.333-.617-2.944-1.163-5.793-2.184-8.642-3.4a29.812,29.812,0,0,1-14.221-6.909c-4.368-2.635-8.713-5.365-12.986-8.19-2.255-1.828-3.157-4.82-4.06-7.383-.926-2.493-2.588-4.772-2.422-7.5-.047-3.063,4.914-3.371,5.294-.333.356,1.306.712,2.635,1.163,3.965a11.15,11.15,0,0,0,.641,2.089,10.317,10.317,0,0,0,.831,1.8,34.178,34.178,0,0,0,1.876,3.727,25.329,25.329,0,0,1,2.849,1.733,1.315,1.315,0,0,1,.214.166c.712.594,1.448,1.092,2.208,1.615a7.68,7.68,0,0,0,4.155,3.989,12.985,12.985,0,0,0,2.8.807c6.5,5.746,13.865,7.027,21.652,10.8,7.478-.047,14.411,2.683,21.6,4.107,6.98.309,14.055-.38,20.844,1.353,1.947.048,3.87-.095,5.793-.237a45.353,45.353,0,0,1,7.407-.119c1.614-.19,2.493,1.163,3.419,2.232a.955.955,0,0,1-.641,1.686A1.186,1.186,0,0,1,557.065,1188.581Z" transform="translate(-336.964 -143.151)" fill="#0093ff"/>
        <path id="Path_219" data-name="Path 219" d="M421.453,1193.85c5.84-.712,11.7-1.258,17.592-1.543,13.58-.5,27.16-1.377,40.692-2.35h-.071c44.609-2.208,89.408-2.635,134.041-2.255,2.374.332,15.123.214,11.372,1.9-38.1-2.446-76.3-.048-114.431.143-29.818.57-60.444,3.775-89.717,4.748A.619.619,0,0,1,421.453,1193.85Z" transform="translate(-384.585 -87.288)" fill="#0093ff"/>
        <path id="Path_220" data-name="Path 220" d="M418.446,1303.661c-2.018-.712-1.021-3.229-.973-4.843.546-4.938,1.187-9.924.285-14.791-6.291-21.913-2.184-44.894-3.656-67.353-.594-16.5-3.727-32.763-5.057-49.215-1.306-16.5-1.733-33-1.994-49.523a.6.6,0,0,1,1.163-.143c.214.807.332,1.686.522,2.517a.572.572,0,0,1-.522.641c.546,22.554,1.377,45.131,4.962,67.448,3.49,21.01,3.632,42.306,3.585,63.531.024,7.645-.166,15.408,1.614,22.863a51.731,51.731,0,0,1,1.614,26.352c1.5.854.214,2.588-1.092,2.588A1.379,1.379,0,0,1,418.446,1303.661Z" transform="translate(-403.656 -183.733)" fill="#0093ff"/>
        <path id="Path_221" data-name="Path 221" d="M768.308,1195.854a19.47,19.47,0,0,0-2.16-.071c-32.24-4.962-65-4.368-97.528-3.466-14.719.665-29.273,1.852-43.992,1.591-3.442-.119-6.909-.071-10.375,0-7.146.119-14.316.261-21.248-1.235-2.089-1.662,2.113-1.543,5.057-1.448a17.121,17.121,0,0,0,2.469.024.579.579,0,0,1,.594.546.563.563,0,0,1-.594.546h-3.276c32.739,2.065,65.43-1.8,98.145-1.97,22.72-.166,45.535-.451,68.041,2.991a35.621,35.621,0,0,0,9.4.024,1.369,1.369,0,0,1,1.733.617c.475,1.591-1.567,1.947-3.8,1.947C769.922,1195.949,769.067,1195.9,768.308,1195.854Z" transform="translate(-148.909 -83.57)" fill="#0093ff"/>
        <path id="Path_222" data-name="Path 222" d="M667.522,1315.6c-4.8-16.547-.807-34.163-1.258-51.043-1.14-11.918.807-23.6,2.849-35.255.736-8.713.024-17.5.926-26.21a475.6,475.6,0,0,0,3.181-58.426c-.261-12.511,1.258-25.972-3.941-37.677a1.465,1.465,0,0,0-1.424-.854c-.76-.024-.594-1.235.166-1.092a2.962,2.962,0,0,1,2.659,2.065c4.036,9.615,3.7,20.37,3.775,30.626-.119,13.675.76,27.468-.332,41.048-.546,10.779-1.994,21.486-2.279,32.264a142.086,142.086,0,0,1-2.588,33.261c-1.258,9.662.522,19.254.166,28.917-.76,11.134-1.353,22.388-.332,33.475a70.945,70.945,0,0,1,1.14,8.024,1.531,1.531,0,0,1-1.591,1.448A1.479,1.479,0,0,1,667.522,1315.6Z" transform="translate(-49.025 -200.709)" fill="#0093ff"/>
        <path id="Path_223" data-name="Path 223" d="M411.6,835.909a1.434,1.434,0,0,1-1.472-1.4c-.5-9.971-3.324-19.539-4.036-29.462a371.012,371.012,0,0,1,1.781-58.545c.5-1.519.5-17.663,2.991-12.867.166.309.285.641.427.95.19.641-.736.95-1.068.451-1.638,24.524-3.656,49.286-.9,73.81,0,3.751,6.529,27.041,2.374,27.041C411.65,835.933,411.626,835.933,411.6,835.909Z" transform="translate(-405.62 -712.267)" fill="#0093ff"/>
        <path id="Path_224" data-name="Path 224" d="M546.931,733.925c-20.275.261-40.455-1.258-60.658-2.588-10.4-.214-20.821-.214-31.2-.19-11.7.024-23.432.047-35.136-.261-1.068.024-2.137,0-3.205,0a37.851,37.851,0,0,0-6.956.356c-.689.119-.973-1.021-.166-1.092,8.57-.57,17.165-.427,25.783-.285,6.742.119,13.461.237,20.18,0,15.906-.237,31.884-.427,47.719,1,13.152,1.092,26.139,1.306,39.291,1.306,4.2.047,8.381.285,12.583.427a.761.761,0,1,1,0,1.52h-.783C551.893,734.091,549.4,733.973,546.931,733.925Z" transform="translate(-400.807 -716.452)" fill="#0093ff"/>
        <path id="Path_225" data-name="Path 225" d="M621.413,735.077c-1.5-.973,1.116-1.686,1.947-1.686,11.206-.712,22.459-.878,33.712-1.068,13.271-.166,26.329-1.994,39.552-2.873,10.185-.688,20.512-.166,30.578-1.733.712-.5,1.852.522.807,1.068-14.577,2.374-29.652.76-44.3,2.873-20.417,2.659-41.238,1.068-61.608,3.181a.559.559,0,0,1-.5.261A.461.461,0,0,1,621.413,735.077Z" transform="translate(-109.726 -719.36)" fill="#0093ff"/>
        <path id="Path_226" data-name="Path 226" d="M671.48,737.206a.563.563,0,0,1,.594-.546.6.6,0,0,1,.594.57.563.563,0,0,1-.594.546A.6.6,0,0,1,671.48,737.206Z" transform="translate(-40.306 -706.889)" fill="#0093ff"/>
        <path id="Path_227" data-name="Path 227" d="M670.159,877.987c.475-11.443-.736-22.886-1-34.329.427-14.268.142-28.489.38-42.757.119-13.509,3.466-26.8,4.558-40.241,1.021-9.662-.285-19.491,1.828-29.035.522-2.113,1.448-4.226,3.775-2.137,1.947,1.4,1.092,3.941.855,5.911-.095.712-1.282.546-1.163-.166.095-1.472.831-3.181,0-4.487a4.341,4.341,0,0,0-1.4-1c-3.893,9.876-1.068,21.011-2.279,31.362-1,14.957-4.321,29.7-3.775,44.728.546,15.526-.119,31.077.475,46.58a140.286,140.286,0,0,1-1.5,38.484.979.979,0,0,1-1.021.807h-.119C667.619,891.733,670.4,879.839,670.159,877.987Z" transform="translate(-43.78 -717.926)" fill="#0093ff"/>
        <path id="Path_228" data-name="Path 228" d="M656.094,734.909c-1.8-.119-3.632-.356-5.413-.594a.825.825,0,0,1-.736-.9.846.846,0,0,1,.95-.665,46.99,46.99,0,0,0,16.1.047c5.318-.973,10.636-2.3,16.073-2.374,5.935.071,11.989.19,17.734-1.353.522-.38,1.733-.309,1.733.5-.071.451-.594.546-.973.38-6.695,2.184-13.817,1.282-20.726,1.781-7.383.641-14.482,3.324-21.865,3.324C658.017,735.051,657.067,735,656.094,734.909Z" transform="translate(-69.909 -717.625)" fill="#0093ff"/>
        <path id="Path_229" data-name="Path 229" d="M588.454,813.119c-2.564-1.234,7.336-11.918,8.76-13.437,7.645-8.191,15.835-15.811,24.121-23.313a16.818,16.818,0,0,0,1.781-.522q1.211-.427,2.422-.926a367.576,367.576,0,0,0-30.151,29.747,52.386,52.386,0,0,0-5.508,7.977,1.133,1.133,0,0,1-.973.546A.631.631,0,0,1,588.454,813.119Z" transform="translate(-154.97 -654.316)" fill="#0093ff"/>
        <path id="Path_230" data-name="Path 230" d="M666.6,1060.208c-27.3.1-54.6-.309-81.74-3.418-23.6-2.184-47.173-7.312-70.89-6.695v.641a.6.6,0,0,1-1.187,0c-.047-.689.024-1.52.855-1.733,6.956-.95,14.078-.048,21.058.4,31.694,3.2,63.27,8.262,95.177,8.689,1.781.047,3.537.095,5.318.119l.783.119,3.87.451,3.965.333,4.012.19,4.012.048,4.012-.119,3.989-.261,3.941-.356,3.371-.38c15.74-.356,31.457-1.282,47.1-3.086,14.577-.9,29.2-.855,43.826-.807,8.1.024,16.191.047,24.287-.071,2.517.024,5.057-.1,7.55-.1a1.679,1.679,0,0,1,1.092,3.015c-13.2.95-26.566.594-39.956.214-10.778-.285-21.581-.594-32.311-.19-16.547.9-33,2.968-49.595,2.968C668.289,1060.231,667.458,1060.208,666.6,1060.208Z" transform="translate(-258.38 -278.278)" fill="#0093ff"/>
        <path id="Path_231" data-name="Path 231" d="M789.219,1099.682c-13.77-6.885-28.988-6.766-44.087-6.624-4.819.047-9.615.071-14.363-.119-48.882-.024-97.789-1.068-146.647.475-24.263.048-48.716.689-72.908-.475-2.754-2.279,10.778-3.775,12.084-3.4.427,0,.594.261.57.546a.562.562,0,0,1-.57.57,27.76,27.76,0,0,0-10.066,1.448c31.528.38,63.032-.095,94.56-.57,29.676-.451,59.4-.9,89.1-.617q26.994-.071,53.987-.38c8.666,0,17.473-.641,25.973,1.353,2.8.974,16.12,3.775,14.648,6.909a1.741,1.741,0,0,1-1.614,1A1.642,1.642,0,0,1,789.219,1099.682Z" transform="translate(-261.033 -222.076)" fill="#0093ff"/>
        <path id="Path_232" data-name="Path 232" d="M660.209,788.116l-.071-1.947-.047-1.9a17.423,17.423,0,0,1,.309,2.232,23.605,23.605,0,0,1-.142,3.181Z" transform="translate(-55.957 -641.469)" fill="#0093ff"/>
        <path id="Path_233" data-name="Path 233" d="M656.27,736.654c1.567-.736,3.11-1.448,4.653-2.184.214.427.427.855.641,1.306-1,.736-1.97,1.52-2.944,2.279-.451.332-.878.688-1.306,1.021C656.958,738.269,656.6,737.461,656.27,736.654Z" transform="translate(-61.206 -709.898)" fill="#0093ff"/>
        <path id="Path_234" data-name="Path 234" d="M654.17,731.366c.973-.617,1.923-1.234,2.9-1.852l1.353-.855c.047.332.095.688.142,1.021-1.4.855-2.825,1.686-4.226,2.517C654.265,731.913,654.218,731.651,654.17,731.366Z" transform="translate(-64.091 -717.882)" fill="#0093ff"/>
        <path id="Path_235" data-name="Path 235" d="M652.93,724.286a.083.083,0,0,0,.047-.024l.285-.142c.166.142.309.285.475.427.261.237.5.475.76.688l-.285.5C653.785,725.26,653.357,724.785,652.93,724.286Z" transform="translate(-65.795 -724.12)" fill="#0093ff"/>
        <path id="Path_236" data-name="Path 236" d="M663.811,827.888c-34.353.19-46.675-28.086-38.7-58.308,2.327-12.369,12.2-23.859,25.593-23.171,12.3-6.98,29.866-12.132,41.475-1.353,5.745,5.508,7.93,13.437,12.06,20.014,4.036,6.766,10.327,12.868,11.918,20.75l.048,1.9.071,1.947.071,1.567c-2.255,21.343-31.552,36.656-51.375,36.656A9.463,9.463,0,0,1,663.811,827.888Zm-36.917-35.682c1.614,21.3,20.441,32.62,40.549,30.531,15.93-1.686,32.762-11.324,40.075-25.9,3.822-8.309-1.614-15.74-6.766-21.937-11.609-14.173-12.2-33.475-36.062-25.023,4.487,3.181,4.012,9.662,1.733,14.078a.792.792,0,1,1-1.282-.926c1.947-4.155,2.327-10.09-2.208-12.511a62.282,62.282,0,0,0-17.9,9.947c-2.4,1.875-6.481.166-6.434-2.968.736-3.822,5.2-6.244,7.977-8.523C627.749,753.152,626.277,776.394,626.894,792.206Z" transform="translate(-107.23 -703.866)" fill="#0093ff"/>
        <path id="Path_237" data-name="Path 237" d="M635.939,807.251c-1.33-.261-.617-1.781-.475-2.659,2.706-11.443,8.167-21.96,12.963-32.62,4.7-8.191,10.137-27.848,22.53-23.242a.741.741,0,0,1,.546.926.784.784,0,0,1-.973.522,14.3,14.3,0,0,0-3.775-.712c-10.137.712-21.414,34.875-26,44.158a90.1,90.1,0,0,0-3.775,12.891.959.959,0,0,1-.926.76A.258.258,0,0,1,635.939,807.251Z" transform="translate(-90.232 -691.253)" fill="#0093ff"/>
        <path id="Path_238" data-name="Path 238" d="M695.045,793.236c-12.345-2.493-22.7-10.137-32.976-16.832-9.591-6.054-19.183-12.084-28.489-18.565-2.089-1.662-5.2-3.585-5.2-6.505.285-1.519,2.659-1.163,2.066.4,1.97,3.443,5.983,5.2,9.164,7.455,7.265,4.748,14.6,9.069,22.008,13.532,10.968,6.576,21.747,14.434,34.448,17.117a1.774,1.774,0,0,1-.475,3.49A1.552,1.552,0,0,1,695.045,793.236Z" transform="translate(-99.529 -688.064)" fill="#0093ff"/>
        <path id="Path_239" data-name="Path 239" d="M471.862,1049.3c-11.491-.522-23.812-4.178-32.24-12.3-2.991-4.2-.712-9.948.617-14.411,3.68-10.9,11.087-21.248,21.557-26.4,4.748-1.377,8.191-5.081,12.773-6.956,9.947-5.532,21.509.736,25.973,10.351,1.757,4.273,1.187,9,1.187,13.509-.095,5.389.9,10.778.38,16.167-.665,13.509-15.432,20.132-27.706,20.132C473.547,1049.4,472.693,1049.35,471.862,1049.3Zm28.275-20.227c.4-4.772-.5-9.5-.688-14.245-.356-4.938.451-9.995-1.614-14.506-6.79-11.443-16.785-12.583-27.3-5.223,3.846.973,3.87,5.722,3.775,8.95a.6.6,0,0,1-1.187,0c0-1.139,0-2.255-.047-3.371a5.9,5.9,0,0,0-1.567-3.8,5.169,5.169,0,0,0-2.659-.688c-2.683,1.781-5.271,3.7-7.763,5.722a1.579,1.579,0,0,1-2.018-.119c-1.306-1.306.5-2.493,1.448-3.276-11.657,7.431-19.871,21.034-20.631,34.8.594,4.06,4.938,5.888,8.024,7.834a53.649,53.649,0,0,0,25.759,6.529C484.872,1048.092,499.757,1041.848,500.137,1029.076Z" transform="translate(-360.922 -362.669)" fill="#0093ff"/>
        <path id="Path_240" data-name="Path 240" d="M469.522,1097.956c-7.668.214-15.526-2.161-19.8-8.95-3.727-5.2-7.6-11.182-6.6-17.853,1.234-12.416,8.974-32.739,24.667-28.394,4.036,2.232,8.333,5.6,9.544,10.256.214.38.166.878-.309,1-1.14.048-.973-1.781-1.472-2.564-5.223-8.5-13.319-11.324-20.987-3.822-3.561,3.276-5.413,7.953-7.027,12.345-1.875,5.247-3.252,10.85-2.327,16.405,7.858,21.272,18.47,20.18,38.318,19.017,3.11-.261,6.2-.617,9.307-.9,4.843-.594,10.4.095,14.529-2.92,5.722-5.342,10.85-12.654,11.158-20.655-.285-11.585-11.965-20.8-20.631-26.993-7.455-5.437-16.286-8.428-25.521-7.573-8.452.926-17.473,4.416-22.886,11.158a40.793,40.793,0,0,0-3.4,6.22,1.715,1.715,0,0,1-2.184.831c-2.683-1.306,1.211-5.816,1.876-7.716,7.075-10.564,21.2-14.981,33.451-13.865,7.811.427,14.743,4.273,21.011,8.666,11.372,8.1,26.115,21.462,19.634,36.822-3.324,7.146-8.333,15.835-16.642,17.521-9.995.95-20.037,2.042-30.08,2.042Z" transform="translate(-354.308 -299.954)" fill="#0093ff"/>
        <path id="Path_241" data-name="Path 241" d="M484.7,1146.326a39.921,39.921,0,0,1-27.326-10.968c-5.532-4.985-12.227-10.161-13.7-17.9-1.258-13.01,4.938-27.9,17.307-33.475-1.234.071-2.493,0-3.775-.048-2.991-.119-6.03-.261-8.665,1.211a39.253,39.253,0,0,0-3.514,2.968,2.139,2.139,0,0,1-3.585-1.4c.855-2.635,4.06-4.677,6.458-5.959,2.944-1.187,6.149-1.116,9.306-1.044,1.163.024,2.327.048,3.49.024,11.158.309,22.53.119,33.214,3.727,8.642,3.063,14.292,10.873,18.565,18.589,2.683,4.677,5.6,9.924,4.25,15.479-1.424,6.909-6.339,12.321-10.541,17.734-4.938,6.007-11.847,11.134-19.824,11.134C485.812,1146.4,485.266,1146.374,484.7,1146.326Zm-23.219-61.3c-11.277,5.342-16.737,18.708-16.049,30.673.855,8.1,8.262,13.176,13.912,18.186a38.127,38.127,0,0,0,27.682,9.663c8.475-.427,14.411-7.1,19.135-13.437,2.659-3.727,5.484-7.407,6.505-11.942,1.686-6.719-3.229-12.369-6.268-17.83-6.22-11.182-16.286-14.957-28.537-15.645,1.757,2.4,3.8,4.843,3.8,8,.095.712-1.092.855-1.187.143-.024-3.324-2.374-5.7-4.107-8.262a43.2,43.2,0,0,1-4.914-.285c-1.5-.143-2.991-.285-4.463-.285A13.206,13.206,0,0,0,461.477,1085.028Z" transform="translate(-356.401 -235.555)" fill="#0093ff"/>
        <path id="Path_242" data-name="Path 242" d="M713.969,1004.2c-20.939.38-41.831-1.424-62.652-3.062-23.859-.214-47.743-.142-71.626-.19a549.359,549.359,0,0,1-59.969-2.422c-2.611-.19-5.2-.166-7.787-.166H509.2a.548.548,0,1,1,0-1.092c11.491-.261,22.886,1.329,34.353,1.97,22.34.878,44.728.712,67.115.57,13.532-.095,27.065-.19,40.6-.048,28.062,2.065,56.337,4.439,84.446,1.615,14.6-1.353,29.083-6.268,43.826-4.7a1.388,1.388,0,0,1-.4,2.73c-11.111-.712-22.055.831-33.024,2.374-9.093,1.282-18.209,2.54-27.4,2.54C717.126,1004.321,715.559,1004.3,713.969,1004.2Z" transform="translate(-264.104 -350.022)" fill="#0093ff"/>
      </g>
    </g>
  </g>
</svg>
